<mxfile host="drawio.jarand.site" agent="Mozilla/5.0 (Windows NT 10.0; Win64; x64) AppleWebKit/537.36 (KHTML, like Gecko) Chrome/137.0.0.0 Safari/537.36" version="27.0.9">
  <diagram name="Page-1" id="28ngXhdwh-6rOFk4RAri">
    <mxGraphModel dx="2115" dy="2335" grid="1" gridSize="10" guides="1" tooltips="1" connect="1" arrows="1" fold="1" page="1" pageScale="1" pageWidth="827" pageHeight="1169" math="0" shadow="0">
      <root>
        <mxCell id="0" />
        <mxCell id="1" parent="0" />
        <mxCell id="ZyMM9qRGssIg45qCTCB3-37" value="" style="whiteSpace=wrap;html=1;aspect=fixed;" vertex="1" parent="1">
          <mxGeometry x="-40" y="120" width="160" height="160" as="geometry" />
        </mxCell>
        <mxCell id="ZyMM9qRGssIg45qCTCB3-4" value="" style="whiteSpace=wrap;html=1;aspect=fixed;fillColor=#0050ef;fontColor=#ffffff;strokeColor=light-dark(#001DBC,#000000);" vertex="1" parent="1">
          <mxGeometry x="210" y="320" width="160" height="160" as="geometry" />
        </mxCell>
        <mxCell id="ZyMM9qRGssIg45qCTCB3-5" value="&lt;font face=&quot;Verdana&quot; color=&quot;#000000&quot;&gt;&lt;span style=&quot;font-size: 15px;&quot;&gt;&lt;b&gt;Entra ID&lt;/b&gt;&lt;/span&gt;&lt;/font&gt;" style="text;html=1;align=center;verticalAlign=middle;whiteSpace=wrap;rounded=0;" vertex="1" parent="1">
          <mxGeometry x="210" y="440" width="160" height="30" as="geometry" />
        </mxCell>
        <mxCell id="ZyMM9qRGssIg45qCTCB3-41" style="edgeStyle=orthogonalEdgeStyle;rounded=0;orthogonalLoop=1;jettySize=auto;html=1;exitX=0.25;exitY=1;exitDx=0;exitDy=0;entryX=0.25;entryY=0;entryDx=0;entryDy=0;" edge="1" parent="1" source="ZyMM9qRGssIg45qCTCB3-6" target="ZyMM9qRGssIg45qCTCB3-14">
          <mxGeometry relative="1" as="geometry" />
        </mxCell>
        <mxCell id="ZyMM9qRGssIg45qCTCB3-49" style="edgeStyle=orthogonalEdgeStyle;rounded=0;orthogonalLoop=1;jettySize=auto;html=1;exitX=0;exitY=0.5;exitDx=0;exitDy=0;entryX=1;entryY=0.5;entryDx=0;entryDy=0;" edge="1" parent="1" source="ZyMM9qRGssIg45qCTCB3-6" target="ZyMM9qRGssIg45qCTCB3-37">
          <mxGeometry relative="1" as="geometry" />
        </mxCell>
        <mxCell id="ZyMM9qRGssIg45qCTCB3-72" style="edgeStyle=orthogonalEdgeStyle;rounded=0;orthogonalLoop=1;jettySize=auto;html=1;exitX=1;exitY=0.5;exitDx=0;exitDy=0;entryX=0;entryY=0.25;entryDx=0;entryDy=0;" edge="1" parent="1" source="ZyMM9qRGssIg45qCTCB3-6" target="ZyMM9qRGssIg45qCTCB3-32">
          <mxGeometry relative="1" as="geometry" />
        </mxCell>
        <mxCell id="ZyMM9qRGssIg45qCTCB3-76" style="edgeStyle=orthogonalEdgeStyle;rounded=0;orthogonalLoop=1;jettySize=auto;html=1;exitX=1;exitY=0.25;exitDx=0;exitDy=0;entryX=1;entryY=0.75;entryDx=0;entryDy=0;" edge="1" parent="1" source="ZyMM9qRGssIg45qCTCB3-6" target="ZyMM9qRGssIg45qCTCB3-17">
          <mxGeometry relative="1" as="geometry" />
        </mxCell>
        <mxCell id="ZyMM9qRGssIg45qCTCB3-6" value="" style="whiteSpace=wrap;html=1;aspect=fixed;fillColor=#b1ddf0;strokeColor=#10739e;" vertex="1" parent="1">
          <mxGeometry x="210" y="120" width="160" height="160" as="geometry" />
        </mxCell>
        <mxCell id="ZyMM9qRGssIg45qCTCB3-7" value="" style="shape=image;verticalLabelPosition=bottom;labelBackgroundColor=default;verticalAlign=top;aspect=fixed;imageAspect=0;image=data:image/x-icon,AAABAAgAAAAAAAEAIAAkpwAAhgAAAEBAAAABACAA3BIAAKqnAAAwMAAAAQAgAGwKAACGugAAKCgAAAEAIACZCQAA8sQAACEgAAABACAArwYAAIvOAAAYGAAAAQAgADoEAAA61QAAFBQAAAEAIAA+AwAAdNkAABAQAAABACAAvQIAALLcAACJUE5HDQoaCgAAAA1JSERSAAABAAAAAQAIBgAAAFxyqGYAAAAJcEhZcwAACxMAAAsTAQCanBgAAAABc1JHQgCuzhzpAAAABGdBTUEAALGPC/xhBQAAprlJREFUeAHt/Xn0Z8d1Hwbe+36/bnRjIRukuAAUxQbAJRrRJihTiSTbUWN8YjmOLYE+lsdbTDJyJDnJhKB0MnMSzwzBHDs5mTnHBM9sXv4gaZ+Z6CTOEZ04HsfOuJuJI9HWAmihKBIEukEAxI5ubL3+fu/mvVd17/3cW/W+v18D4Ab+qvv7e+/VcutW1d3qVr16RAfhIByEg3AQDsJBOAgH4SAchO+iwPRtEv7fZ+X4EaLbaaB3ME9XkmOD8HydkTw+55mRlfqbwpnpek6EzwnTmXGkhwai+65M8T9zI99HB+EgHIQ9w7dMAPyds3Jil+h9Wyx3MvHtPDE8V4S4YobPQo6s4E+CUND7STDQJAT4c9Pj5w8EwkE4CP3wTRUA//eJ6bfG8U4a+ENbRIXh2ZEY8AoCgCgyv16l3gSBQC4Y5jCWy2Qt8Knp+tm/cuNyPQgH4SDQN0EAfPKsHDtM9FEhuWuYmX7m+Ik7jdk5Mrn92OPwqiELgLnAOMFdswxGwqkD3z1NFT7/sRv5DB2Eg/BdHL5hAmBi/BPDOH54YP7QmqZHcx/j7B6EAE4BNMxxo5R4YPAgAObUWSyM1FgGZybcTk2C4BMHguAgfLeGV10ATIx/fOKyT09MfEIrQK0+VHYuceU+WwG5HGKpwoA6c/85jPoc0ifroN5JZ8qwy3z3BPezB4LgIHy3hVdNAMym/nT5uIyTqc/O5HMYaF3bo3DozflL2qTFRUJ84wug1jEY4uy5wOr4DM7IwHf//I38WToIB+G7JLwqAuC/eHrnzm0ePj0BO6ZAOXnxVeMzOyMHAQHmPicETetTuxJAnefe/N/ygM9gFgRoMSzTBKZTW8wfObAGDsJ3Q3hFAuDuSetfO8rM+HcGJp/1LPs9Uavp56CWgYahIwTWEFxj/uVZItPPIU8NZkR2RUy4jBJgnZtshE/8R2/cuocOwkF4DYeBXmb4v569fPvRke6dbu9UNq2zbDCtJTDmkipdz7ylFQjcmuiETj0ok+4VPqe0xoE4r0Sw15M2GU2WDH/y//aMfPrO//Kx43QQDsJrNLwsC+A/f0Y+yiKLdszme/bg49q+Mpn6CIaECFoJGE+0Pg3Qq0BEFBYuhIqW97jkAyh5KFkNI50Zt/mO//hgSnAQXoPhqi2A/+wZ+fikPe9Z09CZofR5JDTDJaRhMC0O5YnaZb4RrhaqRh/tXkKZcpVQ1yJOoC62tYnpvkir47wrp+d200E4CK+xcFUWwF+bmGDS/HdnB94CqOP0W9Jxzl83Ac1efZ498StluOYVKb4ENNERYYGbxg8A1yyQdNOQLQ9KFFREcTrhcPlzl7boY3cfWAMH4TUS9i0A/tOJ+YdR7sZlvLCmDyZ/ZmZN21KmJnAQruwB6F3XQtbyOS6b+Bo/1pucN68MMK4YTMuFJDsf/KtvPnzwfsFB+I4P+5oCzMw/qcy7dZ6dzek1kz8zpGpddBD21uyxDMb30pVZx04+3P3XaHdSAVZDcghaNBUAo0ccH3n73v/0YEpwEF4DYU8L4O7Z7B+T2c+4m6/d5MPUplta1aZhMxBHZPxa5vG4F0DfJdAge1xRYI29fCvCYXVaAGUmXE7tbtFHDqYEB+E7NWwUAHc/JScmBjyZGV0FwBxwLT+/xcfUrvMXhncmDtOFriBQMdBHVjbcZ6ukSad2V+CmsooxvnRE88tFI3/s7rcsrx4fhIPwHRVWpwB3PybHJ0L/dI4vzCFds30z46AGlQSVN0wjZHUqsGlqkFcRSi3OxEXLS8KCQqHlwmnfgaR6iI7LIL/0f3nqYEpwEL7zwqoF8H9+Wn5pUnV3qoke1vjJzXqNz06/7AjENCJq9gA0cYy6v137x+eQJpunBQK1jrIiXKTN33vJKKSXmzPDLt9x900HU4LXYjh21+lj9BIdJ949TjIu296Jt94xjf48wS0UIHSOaPe5aZnrHA3DdL995tzfvOUMfZuGrgD4T57c+fBAy97+hqH3MvftfX8w59XrP/fOPH2Yl96y0Fi9bpykaIba90k7l2Rd8osm/FyqmfeTC4Ae83fMf7dWvO4z48B3//XvOXip6Ds1LIx+kW6fWPp9I423TwRx+zT2E+OXQ2w0zHSiCi0ookpuzOZDnv/eN2U+Q8tJVfKbNGzd9+0gGBr2+j9Opv/WlpycGPR4duL15vZD0uibBASle+INabTO++wewWY60UwFes+yMjUhWvUbIJPb1ED8nIH5jzsZedYJ9/znb+KP0UH4tg+F4XcmRh9+chrUE9P4vc+2qixmKE8aQ1iZXA1HZ/ApkUWZvTL+VFyJiVtdpkJhGPi+cZR/cO5vv/Nb4kNqeOw/fmL3M1wP8cie+myq96wDofXXf5eyuhkIMEALAZFqhYFPCQbQ7Bpk5R6fZQPzc2daMId8mEieAuT3G8jjz4wj3/FfHEwJvi3DsZ+7/8Rkon+I5mPqJu1OkZFdu9u9ygQPzvBVMMx5h8hXmKcIhpEVeGLAz02Jn/1mCoNQ/6z9eZDTPa2+CATIHbz/jbkPTMyRuRs/Qn3ApUOIrjDYxG7PKpANccj4cxjJBdXa/J5oj2kBc3CEjh2/AJQ5d/api5/42++99uDNwm+DcOznTh8fRvrQZLvdtTB9DVK5HMz4mRiLIVB2pJYX2eteFp6IXkZbymKmjulf/gDze0ABY3FkFsaZ6ebUVMknvtHThIDC/2HS/ls0af/OOv8chjUrgKKFgOkD1LRm7qvvQEAA4DUz/iZBIFCG4Oqe/eKDUAdjj8nn0Fv7dzB+wtC4ZhVQEhoD33P5RfrEPbfwOToI3/Qwa3uWrY9PI36Cq0mPB81U4mOZBrZo8JnfxcgsmPlU6U90Q3vZ3u5lY1jyA8cbTS7OsDrHqMkueEqYrp8Zv4GCwJCdtf/kyDydmTlr9ezh1809ZY8/dRlYy+FzvrcynOMKO68xPTKySW/qMT51pwjoF+g7BQvUTSsGmfFpPf7McDAl+KaG6//y6RPbNC3RDnRi5mlUDgRz/GK7N0qZnDEXgUDB3KdKf+zTAjX3F4Hh1ZgFgTQapxJFwFj5Kky0/m+UIDAFvSvjnZl4FVG99u6X+XF6uw81scUD96kWtfIp37IH3xioz3hUYYwpHZ1ymQlzHv2NHeZ3BpfgaIz190PuOw1THcd3WE7//OO7d9FB+IaG2dR//U+f/qUtppMTJ54oA8eCdGlm/WINROZXGlKtjE4+LbsIgzle9Jgr9lnEzMwz3IH0BdOFmKXi0BKRg1iuQxUY5oeYLHMZT7/hZ05/nF7FYG3+j56Ytf/kAyCyt/V62r4iSd3TfmqaUGdvQCjbIpCvIZ3b/ASWwRI6XIlCqjctQMHU1e41YjWN+jsJR4C7dlrxNIf8zPYufeLAGnh1w7EPnz42DvTRaWju4mWOXwzwov1n4httVhmX8KLJXxLKVCFEmVAocHW1wP0A1cyYYUnrDyCKu9kNVs2o0xIUNHlaQPPuUx7ueDWsgQXmLzwmJ4ZBTs73+/L8E3X3BmRzv1duEQ7gYyBaFwhCfcEgnede6GniYA3Iehqu/fcOEaVsXYBjsGf+rwibMxPB3HHPgRB4VcLrfvqhj8ryurocmw+fNJN6mPlKlKFpvgEPv8py0zXIrDglzY47M9cLADcFrtLxNwDtMBE4E80LCVMLLbbk/MS5v33bJ+gVhIU/RwbznyKD+Cy8bYyGsFGGKC21scG1N/e0FZmJaPPzpnxreXM64r+prIptZH7q5Hd4shE/nA7BEtDxYZ4SPHGwjfiVhOs/fPrEDR8+c3Lyyt8zdfDrF40voLlnOVDe5WYuhrtONUVNeeTLoZq4cU5QJ/pq7pOb6yRuOri6d+FSZ5GCmr/wtN5Xa8KK6oKD+FJ39QssGCx1T3Jt4Ltv/NkHT87THXqZoVgAT4z3Tje3N5qcokbP8QPHt/VCJ9YCJb7V+KHDTMr6tKJBsvPc5uzHN4y+wvzhfkU4zQHPERhXYIe81K4WNBYO8+d2R/rYgTWw/3Dkw6ePHxL+NM1zfJ0RVoJTBT8tazMoMJksXTYlOvHUMICGXQgxef7r5oBF5zJwf17/ByEiYA2A9WAaPE49PCicUjRaKWhRiK5iVCDzx3HpZU4J+K7Tcmw4KmeREYfKiOG13lr92r5/e4Z7Itr4XkDORytpDdLUMtGapg/Pkpk5ng+ocDITN/cJTvExrG8TXhM6GOrGpjOP3f/SR37xD99wig7Capjn+Tvj8NGp5+9GArRbICA9dMaCTtGNe9qlu43LeQRWnRRnP+d0WDJsYEyZhiGa/DVejUMW8BVgOeJWoGi909Npkp0/de7vvPuqDqoZ6Mj8KW5tkDZECRk87PWmOXhDVMtxV1uuMRPGWT6hleWz9VOC9/Mj0Q7McByDNUbNQeFgGznBQpi9OCzHCHeaEtz8rutOHkwJ1sPRv3j6o1d26fTU3x+v41VX8Gjely2hz6VqSwEGI78vHOVcpvQ3bLEzFqVxlio05nsW25oqxjTFqjB4ob5qydvcoOBbSYohjy09gnViUwSpeRS3apgcJ946eezf/crtdBWBP/bY7t3TWsXH0ZRfO58/O/40zc/6g+faA3a2H1GzAtCrQ6/QY+ZIlF46+fQhMLQOMdNGTz8hbOmnh3KyDqcvvNI7BCnkdki9Xjy/c9/ho4c+eDAlKOHIXzx9YmKdTw88vEOXyGzrbiWsgU1huIkMzr8y32fS853YJLdQT+MTrgzopp+Opaq0oytgKb5o6mWjEMgdivSc8yOcJTpZFZquZcinIOemhxPn/tatv0n7CJM1MrzPmB80W1cLdhhk/o11YoPPKuV2RfZmEOrHL50jdU8A/jpoVUlpIpWrd0fX+POHQmSlbdoOWsmfmV+HSbodtqG+Wtea8Dty7fbt04Cf/MhvXvgQfReHQ3/+K7cf/QtfPTmI/LOpu47PjG07cBeGYKMIF+KybBAptKDKqF5GqZv37BNVZTUfBkiddmQ0pTsH0ziJWeYFhNhuYVkkjpSJ/PKsr6B2psxonaiQih5IorwcWU2UUsdQ9+4WOPMbi5/br2Nw2KXlm37ORJCYmVE1oGOB5pP3Zy+E8/lcELa779iP9haKZ/55Xe0vw0EhlAVbZkrcyx8+Md6pk3JZks2CTGL+UB6FI/zAEjh+41uu+cx345Tg2J33Hjv6F+7/5DYN906dcYKLuY2uc+9TMUZyre5DTsZepVPVYGQf00gftvymfAgvCGnuamLA/F/KyiNVuS4q34Vt05DEjQaSliA9XhZBpcJHcZKymlF0Xd3PXuAKaX1lnVOOT9bSyWN33XuM9gj884/L6blAk0DUdeC52e9xwcwn6m72wbIEMCTDB1hYvodfj6mCOUV9zRuYTrzOUIZ9nzh6/XsMi4IhCiJuhGoPT+5cO3nPjN8FewZmxr945PqPyiB3TaR8TLlHxwm32lXtXZ7rH53xMey/q1MBtqkBcu2gUwVyKUJuzteBFK6OO4dapUl+KYjrc+FMVhA6kGHcwYlowouKANA243TBeUPqlGBF2zq8z539W7d9kDaEeVHELQAEQNTMnfEe0/C1XC03BqqH6UGGL5kh+1px0y/nzeY+9fLDg6QpDAEeGUdKdVJi/igYIuv3+jgLsizAIBy/cnHn3l94Qj5Er9Fw5M/+9omLR47eO3v3B5lfzy3x4lIQtsjVDfw6NnWvfqffWJD1cBBw1Rni1W9UFVLdkz8yA/Pb5gE3Sexcu5Kk0xOCvGR+9eWx7EokgT0GotOGsa73V4SW5FHMfCFbgvSXFAONl4x3HvvZBz5KGwJ/7PFRehrIlgB5xQIg76xeuloClOKI+nEMDxgn1FoAPe1J1DJThxiWXPlEIKK+sFjugfnjluL6HoLENFz3j3VE7HrMr2cc5JOPKeE2aZ17/sabXzuHjWxPjL+1u/XxqQNOFJWuhFDJnStlOd0Tmf3tBGjF3BtoggMNh5qATrXqTFSMxIWAaeVwn9blo+NOmbhwdF3TJ99W3KNp8qqpmjG2zZjVR8HJOsQ3FMsxW5aseEw3z00d8v61PQLTFCAeq5EZKjOyxzmRDtwytwmKxNQ5PZ8QrDec2KMnpIjWmR+DwE0W+FgOy6MFI0Q9RRGEg+RpRJbI1MdxrT2b0mvcme/4bcSTuX94e+ueiUA/RJXJOV2NFkAosG/srwzAzhwMzj1Y42cOjFuYkZ2+q3nvioipmtpVoUZmtDhsTm/9P4y9OB4AMzB2Fi69OKMHeFchCIqlfeif4FPTqsAd1AkDtLdhUmxAjKUusWv+zEjIDJrHnHzJ6WZbiUWC17/3tl5PgzcMWiOyo3CtXMEppkcBwd4uTefNB4T0+jYIwU5epr5wAjjHh0Hu/cu/c/47783CmfH/9G9+fHt7OD016EM2QETqurdr6QMYhWL3s5VRgjdjrLj4ydfnKVwRDzCfodfFM5o4WAIwrE0HRChMgCPtsWC0+RUIhQfb/oHyqAKrCL0Cg63pIsCbdRqUBERwTtaoE8d+9v6fpE5opgAoohCISQpqiRQ6qEvc4cptXECoE9/L180Ag4xl1kx9fI5Wgh4agum+z2AZL6hLAtz48tBavdmiyWm9MrmchvMvXvnMka3DH/tOOGxk60/92nzg7McnQjhetPxA1Gh9WAZjP1COLY2IQF2vTQVUjbN225x1UHVP5HsFqgYlKttgCXYLCpmWRa4KY6eaXYHCCwM4TlYGJAZqdmY/5k7zQVv0jEHcIlzAdqaM0YpYfAtn6NrnfvDcPe8PNDI0BJXNccBUOpoRNVdhHmq0pj3XXgrantatAw22js8rOwIlWgr5mkPD9ND0qn+a/Mb8ss78xXqQ0K6RYv8ic2NctgYo5UeLIAuIa68/9GE+Kvfe9Vi7mvNtE+78lRPbH/yXJ6cR/PREj8dVy4sv2Fc17r+i5FG/1msawJJVkt3MChTUFulmnNKdSjejbtap/FateJMnjJYv2ByU+ESal4LUwigom5OvKsL6go+3q+weYL1npDWp5w9w0CvqcKwyc35BqLREVDjZqUW30PnXNQ7BwXGnRmMF4k4D0TAPtctl7bvwEhg2C4yeIEAYq6fyYP0Qmr0BCb7V02FqoiigSh9Qt36Eh/3Rs4Z6DJzLrlkHOS7dL28W/syXL32cvp3CnSePb935y7+0zXxyejqhdGBBKieSEwVjYiWWyr5QNvbanD7WTRkqEILAAE4SPc8NRwiEAdUabQfnqGxZDAHUkUV4MDSpeP/NLIfluvJasi0WFK4ddDFBVwz0/f8qhJLVscCXWh++C1BhjqPUbcraMXouwdLGZrq4OAExIhMXhydqTHlNWftoCLv1RXFwk1bk1urIz700oXXGon0857lhZjhj8o6AaASWVEJMeEp63oSbrQRQHAvMvwYTxuszEy6f+JY6CO88eWyg7Y9OpHfXZHcfq/Y3mdlv5ry+ekbLvcYXymGfDlQicVvcd+ks5M6wLm4cp8hwmUkgkZSQ5s5R9av9YGbBon3HYuEPddmP1+l0H05BZ2Oh1ZUHPLsQ3wQ0obH8ETs4xOBjhbqhaOAPnvtbt/wDxWfQDhOKWisAIWk1nrQMQBQZBiXx2IOBP4nOM4fJG+spsNv7nIewvHTqY6yHo/WxwvwIU50z2If5OeSnNqjph8+81gZKAo8Z8sqH523Ef/yfPHlVL4a8WmH4iZMfnfjjNM2Hcyz7TGAkxB18BOa+t70ODpRRh7DZ3/WPNF6xyhQCSt/yUis5PRhYK0ekrLmo/xJvKw5h/wBahkYrQs0xYm066fm7xQjxa2VsPxcAUV2QWiRDdYZy5W4hf6EvEE01QBYnQ7QCzALQ/kl4EgcxkLQ2ubTKHxnkPfLwyjWiTKv15oB5kEFGyKDPmQ4aZsZ4oa7wwbw9K2JNg++FM1EUHJleeQV+n64XQrn7b7yFP0HfjHDnPz3Buzw7+E7wMtrq4BtMu89X3cMaHICmaofKY4Nr/aDxyQhqGIaqJYfqqLP/ROQmdXlUWLX7YFAqE9adhcmXUNVr0brOB/pKb3kUX81m2mjlRXOgfnAE3+8npzvuEI5qebQKgCCApFhpt85JikCR0t4fPPd3blleGx5U4zHDSzDMK+h3mCBpx8wcmAe/nKPpqGl7rxoHQJpP2qW2XKdKZq4dofXjVVZ+WNlezG+h9hkyNVFkzk1lewIxw6KUZ1M+FcDzEVk/99WLJ7+hDsI7/3/H+U/+k5O8O56cajxB1YHlm27U4Ueg5Yl0kJJV7rQsHX8AafsmZVZnr8uHNqQWch8BV4pHF4Ar0zFpZV+WM9pzGqycRGwZpRKgihxJTa2ui/pSkXsQ0JgRW13Qwz3cpHdZ11BAkVdjWQU0HTlWbPRXzybkKvXInfg8yninAhvY+s2lG6GXA2uG/sqMmhmxkYKC+eIyGWpqhIHCwcpLhKkOvOZq5bAuF3K9FYi8TXk/gkLbZC8eQXpPjGo8Q97QqFQe+6gnDCRdKeQrd0evP3xichCe/IXHrpygVzPc+UvHhp/4px/n3Wk9n+ZPyTsmgqY+ac/XXl8aBzQHkp5ZBQSkGQPWVkrx5BFJKFumEqAZlcm9oHnHhXxDj453dZRVayTQu0l3MUFQx32Z27IA41G9qXKdi2NPe6J4Kwqi+fyCcKyg05UGszBYgegRw+xmkhMPm9DKwyDDhxQmLu8T3iPxUUpnajWbatveMhwyjHfi+m8pk7cy0DoTZnzHVbjStAnLVAkd53TcbhfPzE+dPgrPHQ2v8FCoqrTnDfBkJb4vbDz3fCT5Lm+dvOtVerNw+In/8aM8Xn960iZ3xxRgZngW5bzArGmE5v+jwJ73RTsGq6G48JWaKQoKru5xpDERZQw/em808grvfo8jyGPhLJdJXKCQ4KqAASAx6SGDzhCsG8woUo0/EDfjH7cRBJrUjGMxH8gETuxCCjiKtUfbNl+Pz8epFRSIgpbpMVcv9BhphIKBUaw1HDS6Ity8Ekxkmrvn4OsKDGrxzrC1s/0Eozo2inMZBcu/5EXLiDxfsESoHwwnkYbZG+av+TRwB1bvPgvjnKfpk1Hu/pn7L738PQPTPH/4iX9yerI575mgHRuYO4Iran+9MkwJAkUn+7zaw0FoBDtOoA5GUALz4ly/mBBYbOcRxlVlVNWoUJO3Sqgu0aHEIFfzdVEABpcJmXSxTKps0K0P1WxXmTZPaUQ3HtlJRtpprkLqsmQgFlE5NC7nErTCixAQ0+GtYdkZOGTmB5hBIBBFRu5aASYgOTC3MWpiJjs/XyJTNcxsnhu/zwTe+xHWk+JH0o0nLpAUx42wE+Mj8WeGRq2ftfUmBse61ywxxGlcS8N+BTI6ev2h26dWnvxL9774IdpvuPOf3M4/Oc3zx+X4+ONakSDTJQwEEFDuCyY7+XPZ+OL3xdeljO9QiYDOav3O2TVdKiNV9aiaW1St69n9bi2UrnYC9vilgzlMZkqeasZjH9t6JRxDpkxs24KrDS/D8tZXKecnbfISN5TmV4q3NLtWqSKF8ReBQOC+1DrtvnbcWKYqxViav4JcfQBMbqb2iLM19yUQKObJ6UQrjATww9KdYHrBRnfX4VeItJzCX3tXIDI9toGCCd/gm0x/xa3JK7LKpNgvwckKAfsQ47Bsjm/yiveXAIII29qsZZiPH7vp2s/8h4/tMSWY1/N/4p9+chj5Xp4P5gDc8l3GrBymW2ocKwuljWwEXEu4I9CeA2FgvJc1s5/68Vq8nu0riwo1J6DhU+wJQG8xyIXckldNPpbddRLNaiKfgcxp4Nv1+bpvOvPXmckE01CZGdKqJcCVcZW51SFJehOZRuE7PRSxYXOW6f+J5V7fBuQ0LEh8vbS15xyKcIlwegJmU3xOaExn6uOwjCjjELdMlJl87V6ZX30FPRhr/bLG5F2cAdYaTmR5YIMIbbYW1qYJFYczl4nv+Ju4cWhm/HHno1OeuxhOjeqGBZArVYvishTItvFHNd1Qrch2GbAsExLp2dRkk+VoT4UlQY66scIS0luDQ1aGm512vkRYlvS4eQdAD+qwFpatfj5miRj9cJAlv6Ho1rjUaosQ0V2ADDv8dH1R1OLQhFof9ndFhW0c1ICAGahPKYSviNwyhEFNWo+JVq0BFzgepJNmmge0z9pcXtMaeELBlMXn5rxAyfVxU/8aDtRcvSxRy/w+8Bz6hWhv5vcORVcYN3lyP9uAC3WPIccy6h+awTbvRICvY/odH89fufc/1MNG5vX8cffe6e5unj+vZUwaBXqUVu28E9bmqKgdbGlv9Mm0dlRpsZXMqbW1Yg58Xt8I1OlA0KhOSGLbh5foRYUvzkAWQ99pIEiRypgVZhkTsX6pJ/pat+lKga0SVKlU5+zLdEB7dxaCyzx/WBY7RMt4V2l9bjjpMqAuDMz1jRz8pSB4ludDvPW+wQWgHjfkjJ/GsxITE3ZFEJHUCo0wdNqJGXAUbLT2klBOy3VIpxz6HTZt0c1wSFp/AHfqLu2SAJeoxR1JGeuPr0NLwMH2oqdGZUbrtdsS4BrySazr8LXbxyYn1Gf+xP/wxL2TVjg5cHUS1rKmBRHuSodYX1UKtbU3Au+/AgKzv7eAbvfQaLd6ItziRIP89RgwXTKrFZatIaA64/sFjTQDFmEQwLD0Zwzuy31C7siz9wHAoWFGMQeZVVqzK1XKCftSKWEwQmIAVSTFUi/pR0ldcdaXgsTxGmX3FlsGRFMyjy92DUmc844ZO3DYWRmi1ff/VXiFNf+V+7U5PzXw0ktEKd/qagIwmKzATjqg20/kBmkQiOjQQpxCEO9OM+VoGdbVfQm05l/g9XZIql9xPP6+N93+b//1P0jXv/FIhU3OVABHlXCwzOEW2LWWL6qWq0WqbwGa5x8w9L0AhK2hqg5NKFgZI1hpGXtSpf6SUGXsxWzk2iRdpqt4VgItnnqzHuyZFqebkH4lSHBQUblJEQJSrfqxdBpr343wvQI2E82mCcwqQEinPNRasiO8l2TzHC6GTSKwpRr3e1Q8hneEZcDY3RQYmdJV50JDLi8oPlrGQWbTsYiI9u8zXnPoThc6z7EK7qd3mL8t6xCCUGj2LIjVkQVbgIfE0tA89/FLRQvOyG71x21baEM7cHl2Zv6f+j/9a/S+P/L2km9lf0K1gi2NkyUYMOLSIrCnyZgdTHLvPcgfmNxhNhuJhNKze+cIxqQk69ngAujAPNu1usJTD+usXsHshrcDl+tQjQ2GCusqQEWrbr5XYcDjKCYj1UoexyobxARR9IPYKoQ1gygtGUa+LJibzC3C8XjwAeQNK3nAg2QHi6GbTpK0XxuQmG1r7yoD9meNmxislzeY2eI/6pTtbMP0NALrRmQ1X3iwujjQtF7zkqmswNP6UeFoeYK2reEU+om5m3b46Db96J95N/3IT72brrl22/LgPJvtz+Y6CZibKU10hCguD5INSjM5CpZI6j0QAkxxyrCUH63HxYQICCJRSTDq5EOZfgRfgJSNSuKa2mowWhIUIE68tmpQrHRH25yVRlLLHgUGl2QtJ0Ag2tySTcqqhr0UFAk6yVx0fB5ffRnIu05bE+O4l4ZuyQ2wiNopwlq8vy6V4lP9PdhN3RXA8lKnwuLoSSdq27oJZhMPBUQ244l10wrsDHYt76aKxKszAZtDmqKG+l945iL9t3/j15dr9ncIUQdgpwZYAeB6JXtRqJqu9b7gEl8HLstqlUfUKWmefCbYOxjivX7g2ToPqbzFZj1LOQHYaJArgy5HibM3GqjUHaK+ahCybQ5C66zggKQtIejx70FF4EK6R1qB1mUFOmNHgsVK3SG4X6ZY0/SbhUokujng+/C9sj0ZU8aOfIKFleAte89FPDYLp0zye9K7Mn8dHpE2jWgfQhfLbxAWuS343MuXBaxULlZVZM611BG//F/dT7/9/3+oW6eocCUKAnWw9uqIDiYMhvpmoKbZeQCkL6fp2+qD4bkc6VWPvzWhgEuCFSMV7sxYt+LI9dBMLmrTzgFgaw91rT8XBqznEBDZ3p6O1MYphShKRM7A2sfJyar4WR21TB+nUqgs74t1BUvQmyDcdcuy0LnGAtjECBTaltITc81xs5YdVsoSrQuQvQVnmyfj06HfwMhC0k3PfbDEQ6ae8Fljzk1MaGWx7o41UsHbYSNN4IjTWhsI4rt9UoUMdaYeBLh9+QuP0a//dw/Qi7M1kOBGBKKKKsKgMLjYGn89DETqvWl4tRL0Ga4VKEO8M2zaH2BCmAhOCwlCoPJGOT3YyiS6Tp3YFxBwoo+VJdUENT3r2hoXBIXm66VlVEBY2xjU2kehxj6QNE4E/JmZATVEDpnIigTxigaQpCHPSuCVe+3RXllZ+RUCa+Ojw1CaenorDeak1Dgxkkx4SBcvCu2gpo3avhHgaBzmzz6K8EtpTNztc2xjeWbvLxj4tXFSvN79wzfRn/j5D0yOwqO1tGfgEOH07zJBzAm4/NN5Pvu+gOVZbKN2fYafVSEUel8diFXwoIPQ0x0h0d12JXdZLhsVr1pEy48UuMwOHanOuZrAhPUYSq6hSTh1b+tLsLhemgB4qZ++E6ADfOBagEKzFY52LDVTAMSwp6EpxeX85aadQtAGONTJsxceQq0FUupkosCSHYtgRdMGxEDjm8TvTB8gqSluOHO7Y2+Tts3lQ9DK9pgSICy7F+pPoarGI+mXW8PrN/7hg8uvybcRrxmCHw6iGr9Qus7lMQ38YwuiXOcVYN6HPFoHuUWhjaxXRlwYeKyUreY3YdlwDBcrkdW1ei0cdWXR4HXqoo6GKmvLyh/p0dO1fNlpaCRsXQ7kGMdFqH61iMilOAgqSviIHx+g412mAIkqMoOvCYKNJqM2iqK2JQr8RT1S7zE7Ee0BJ+btBekVVg3VYYzUn3uGJg/A9zgXjhvLG0Iu0PRpzWGX6++2J1cEgoSTUMnj1BvpM/c9RV/4r7+8OAjXK87BGd+2CSuDU/QFWIvNUVjus0NwIWbNw/q9ShQEpa3VsVewAEur9oAd5Klf2amcXnbXzNehnADqzD4IKUODIIF+E7jVqbkb50ImcKKSItX4TXrp4oYzRS2bIqi0SdBgMotlKXzoyFCnADhgDOsREDLtmHkE6Zzy9UxtauBIN12hSoLbzxfx8isnE6mmQabM/IWGnCp6LwXl+Z9Qh/mIgmntCW2f5PKhjyHF+9YBC16FzOGWLZJaNWmf2i+ZrGv4hHGCPn3H7W+iP/6xP0A3vevGgolRL1M7TyZogSJbJyYsseXimCCYIgIkTCfK+liFqlMMKB93FXqLRjCjvaE69xanD1hgdyuTST/7ZYhLNQd8ExGVzUdLYtkAOabmVWluAOqlLDcS0GzFx9qWBoxstyPVYa4mlcaJWYA6QoeOcjwVWJ12Tl7eL2ualjfkoQ0w/LmvWYg2weuX6UGJ4pb6WnmlbMa10Dab4Osp1F48b6gDYee8Pp+XVfx0irIGm2jFOoD71fTad40IUsHPIXZyDj5I985TAlBv3ZUQKzVQ6/BbsQiKq52CqS+Yhx2uGfBexuWSWws6niWzW97qx7O2w4TA0mEmYcuITROLZilfECYr43+I8vIhdZ2FKTj9WrNMrtXurp1Tpx+6B0FHrdy+8dajNGRCgDoaolzBhaRzrx2wBgPFJsatCRqEPwJU1Eb40wLVHNJmN1quwblTrz0zBasH24dtyPdCm+tEQpTUzvLP04hce2C/U6cuSulSsRo7+BFxky/gqxSnEofIeEDz/OCfvJX++C/8AbrhjUes7rEztURMmcDZl+J1I6w2ODoKtQGSMSW0lEz7qxBCXStuSdQNPkRKQ1RfYV4GokSgw0+AkJYa7D0El49UPZz+XkLNTAR0WDU0vqgDzsL6rj+BsVMb6DsLJRBDrVpfRiJ1atrpJNpGOXrjln8ZSPvT+lWvYH/hEIHMLnlh6mAEDRMOvFKCS7Q/xjEY4h2Y4S3TOpsvAjOBEBgB5xxyXWGXoaTVhETcm3753QWiFlZuKwHTGdMLhX5QISQJdrffqBBL7l8it6j07cnlTgWc9R3EsTKYrpSU+Le++0b6N6dVgne8/82ufWvlWcEU4hxJzXp7Y1BcKPRMeWsxmP7Y+rGxsx1O2DYchh+mB0Eji2uRRSqABa7MhYNSBsteySPdg78QQXprsH4CvKA7llOK9KUdYlt98OkpF/NDYZvHG7kY6qU6BORvRtpAT3Gvu/lw/0zAyGxi95yuofsk+gOokyeUSzZhZpZMvMbwUIkv8RDhW1NhMycUUSGgePReTMo/cguR4LHBWVJctH44CNVe/ubrROJX6uRffsyNhi0/rJESeyB8fTdGzD9QGJ8CraiQmG9GoyPFQc1pJ9TrpiXC/+3P/n56/5+41WuuDjctZ5YquRYu8xlnfJzvW0kBZl7aUcUoxJvVoGMt2ialkVQnEJfF1b3p+oJQ4bLR3yq0SbW/FGQcwAqr+gJsPb++jafPYSmSRbf1Ui1XhlGBUSKQWmndVxzGV4dtka/2UL0s/obhDTddU6YAmTi0DcjI2TqwvKBFOeBmZBNwzsKhIczOQ2CCKttQfoyAQO8tu4CztOkSqyN8J0KHZ5QVJqQ2fsEJhMsI4ydZshAFDSnY7g58zYl97KWD8Qtl2GkaBrhYqGRedRWoo6VDnxORoBSrkcYNhrNPC37/v3Ur/em//ofohu85am1bsAzCtNZSGT+b+9QTAtRhdoUlbikEYSFiwsDzIuuU/EUjo/oga7mgkCB7rVbNs+rME5yXAhlJ/Q5gHZd6rJCe51XSJUnXCmOEeiVRQ+Vnjk0XAodg6XehqFWEXnfzNe1GPTTjM6NAtcAgvVxRaOT48H0A6TB+p/7a984gqE3UDBZggdyPnGeK/TYqY2F+NLNH2tw3jaCUFXwEhMIKXugXwCmNx2BfRavHhYQvNzMUQkHkfeQZZKV1jq/qnhrY24VfuJ2tgT/6sQ/QrT98UyNUBQe9Ereb+ATU7ExMIDCsEQx5NF28Z/Te06As5qt14r3zm5dl06IjR4YszC8AR1RA6GYiIRRCKANFdEOSwhHv6YImG9G4LNA+qBmWYaorDiLG+KGvp7w33nKUbBkwa3vNy8n7SdROF3qhp+WxH7Uvx8qxgmNSKzOmphXGBQotcNKcP9Vtnb5h3o/4hunBBiGHZUjxFde2GddQXigwGjKutSul4l1so3NjJaJQtJJntWTYmFcZrPdGo+NuxnhN4TBmAm2l5Mycw/x68R/68Hvph37qPTqPDZaAaXN2jKjDrMwpnsBqELAGQOuHOb9qeOwoc7UGxiQcUUGGS45fEXAILhHzSTxlAKTOl9RikMqUtrvQCaTeV0+9qBgh/ZBpSXFrwfHTi32oxPwPVidQiLX7ph+4bontngdgM0jBIV/X6C3D90WDEGRmCuvvhqbUV3xrgjMuBdsRSMHndxyHLjUqwqM2rz2vrl9HPPv3lY15Q1lq693rSevJ5b1+CSa6M6S3yZ/FBg77cI5wKzQoJ6fR2kbH0vOhw4+o3W/wr/yR76MP/rU/SNe94Whoo01zXa1FIVB/DU3UWuyfuPDANY0GljJh7TuGG4sffdpA2BNwBl3VOw5v2X+v84Jx8RmQm+JSn9UaYAejmn90r2tJZLUGikJi0XoVedGNP0u3uEAMGr8k1rEtfPKG244sefxEIOtQ7fw+IzFFYpxDc+IOdC4IZGsX0WaCBmXmV4lwHSEOZwlgkFReevHpueTF9ufZKOAtabqEfSKZfDccDAKwdVfGiP1X702IVbyIOv1EnX6tTB/rizdqNZT8TGj+So8QVtpFxm65ENuU4E/+1R+m7/8j74h4LPfwRga+/F7NfZ3DF4E/GtMbc0IvSG4cJYsgCYPKmKRH5rqCGq08wiHtr2Q1FC70gznQ8ViycFynVF9CPbms4si+jFfJbJEEI6tZj8JurMIidijgar1f7o8c254cgOXEpyEPKA6YFUzmOCVGIOyfWlLNpYgOECQwS7OeLhSW6Gy3NSMuSuxhqBvrgNI1/3oB06Iw8xI2PwfglW4auPjcnh5EFMVuKs8Jd+tr8SPMKLW1WksobGPbOFoGkvNLt/+sfBhXCffdtld8ta3bR7fpD/zpd0+/98TDRsgyRyxMsxXBIEEySbwaw42U5/PMjq8Q5s1xtc5dWGbU8RdgvtGZzPmurBYERWravDK8ee51IlZ8CWOxACS1qQ6MmvOKtjhBIGGQgLCBcYHC7/o33mi90DgBBQZzDiM00IdEwKQG4tRnINruAZ/KKfYsll8JzDqVwQMv63NVotgfCG/dcdf3LwBt1FxA8NLHWefjvSXMcDWiwzrBsmHulGnb5MtqUcj6vSRLyucHaP5Gs7pO9MTFf65XiFqhGwJbfcqPYdwB3vdPU4I//p/88GQVHAmY+zq/18qK1AIe3p8UML+hNxWLLAR0gHGCE/IJlGMvowLEWqjpcJBktJpgSqNlBQ4CBOkcpxvRkRcEEsCz9gAuhmftAwEhYfVO/2689aj19IAaKw9Q6JOQ4PG2hIRJ4oSCBESduiSDZgKB423TdCP3uU6b18bhzHD1gZPlMtrgQr8mgrV8semB6Yn21vwIT9byAsHhxiVBjc5O5u4xpYgfVOBtE2P4QuNJcHAgG2UZuC+OQA5TD7AIYczHNLYIA1cI5rt5SnDnX/vD9J46JdBaJTGnaWcZXQMqVHY/gvdOueq0QSQKDWMK7Cgt6QwbWqB4mNBBRoS8zvxePPoO8H4E5iVop+JHxg/FTVNxGKFt5PkZ8ZE4evO/7/3A6+nojYcMtW3LosSlKZyu0ida1AbVjxSYNgiYOlrI4CWKg0S0wP16m04ByWVxCEo1oaCpFvNIxoNivWKw2To654/4xbKsylWgzTZgBB2WrEByZrTj0dj7AFzpVr76ikL91hWKMyf4EkQKEbTT2l/rM3wVDgEN1WDfw6DYhpjNDeUPTNOBG7/3evqdf1gOG2FjOkpQmPQgUf2IiHZDOSEoEoxwOfzNNs1p3gpOCBst9gKA0SYSdu0n7cdARLVfWccA+jSEssnP2hPo1zu2oyDrF01HJ5YiPNjqWeMTdLa/czL/vXb9NmDgUCcAHWzUXKUNHJ8JmE4qkTE1SBkRQR8pkoFaODnbCGHhDrvUWHK6lFDI57m94OVcb8Q6sT5p2mJ5K7552sOM9+yavlO2EJHbmlrG9wS4tiWdSQpaTBIUVyYK1Fp5DGN7JVpMoCGVIXJaL2h/WINCnRLub/vht9Ef+dgHYEoAWNUBXRyFoInJBMU49VFnwpk0Ye/KlUniC4mxnNYlyVIwsrL8BBaBxxGBlRKYCsaj25fQSyKrcSZ8BC2U0XGefm/7wOvoyKT9sfVDYHqcf0oirBqP3wHI2l1/9hIFtYSl0wUQZJEBCDqBuXP0t8RnK1eAofd9TPBye3q/MdXh9aLQ8zbgs0ABM0uZArRQn9JHNfErqOJ3CRpabMij4DAJ0eCAuFLAm0M8Bpz3wxBG2pDaFwK9lKZgoVy693cNYpllejDdXfvGa+knpinBe/+t2yiPzsz8Jga5rRGddCUPlJ3jR2AIImceY1RnmooSCcALV4BhZjjmocSkUj5cQhhHKMggTuKPpBc3erxu97VPp4sOVOiPd/7R71ny4f6RITOuNN3eG0RI45jOnfk4hvC1HaFVJtS8nHEQxZWCEA2aj8Olwb/3rPdDwzBOfsZ0FMbfYs3Uqpaab72NcAz+nJ+1HaVggLukO8MEB6gOLhEQIHVwl1S3xPoI+pB8H4CatO7jArxrult9EnZ3EtRf7lQ419pUyBnGqW3T83v/xK30h37u9moNKEEXISBwr/HWkkXwlvvR98FbWmmlzr3FmM57isgdgmImJRPSk0BHSOp/KCvYb84R+P6Cdn5xcnbgaD6IsxmGPUuo16cVTm0z8+PcX6/mAzACJm83ETUMSAkAJZokIBRus4S8a7DZ0hkGRRN93u1LcalOiXAlwdV7TNOgr22P2pncYr7kAM1uzCoA24SQz7mp3gd/AFCWDXkSLgteHWHogUmaFEk5IB9XNhCfs5oWZAYCUubF/gUfBcD1PNLBq8YyCCcbw1LKhaeX/973vYmOTX6Bf/l3f5ee/MpZ8v6cmbeeI1D7dumf5dyA0cZHN4iVE4acKAQGH/s7E4XSc/3IJ7mVVnGog9cKBrXMJI6/Mrvh5X6WcuhrzRQGOgmBWhYRHxPqeUXj6BsO021/9E0N8y/9/r9/bJRMWA2hsROu9CkwAXYgG7IHIRDrjIy93yAr9xGqM9omAbUKHwoKAoG0TUImN8lfuZX1Og2aUKzSGR+/W+fcCdZMZW7s054Tk5n7lhdgoc/NmIlQPBk/SAkXrJTydOuBFYMJp9k5+MX//sGSoseJi69A5XMD/VsBDA5CrVPzeovC+5o5nrHlhA0iHXAG4YZJsVwnRGeYA6qWh+FvnSNWximCrONUuGD41//qu+jaSQhkCpuft3vo4dt1KrUUPxvPFY85EyKb2kq6GEFNOWXKCxeZdnaFnn+JaGec7neIzl+qjjH2Wo4eKQ09Ml2vPUx0/bS0eWgrC7LQRST5WSg4ZZWhre8LEMPPVwAqk2TpxVEoZAEhbYdUZkuOzS6jxr6Kd+xTIKNjdi2T5xWqrSXpa2Y/BRm8y4YXMdCmhPbWrWrUtBZXNci1nmrI2M84PmIMO8f8wDQleNO7b6RfnayB88/O5w/q2VUDNoBMgyImGiVIQ4BmHkjIJ7EpJtMKZl5f4V3vWy2MIhtTOa/eILKEGaWjaGqdimuPtWuZ2378zXQEmF9Cu6lYABbJ5CZLzFcZBdLQFKcev0eNJQishitXiJ54luiFidmfP88T08vE/GTww2AyCEtkSvbnQ9tEN1zLkzAQuvF6otdNQuHI4V7dHc3jks3ScPAbRtYBV60Xx32lTxp5sWceD1iq5Ar83BEa/aU4LOLOPG7y9KYVMU8UJhHewDj1ie3o1xgVnKTK9Pn8tER479//Cn39N58i1fZKHAVnODBUML62qgrTcISYMihYTL4SA+mkSoTAmoh94RYdR2Vi4DgIvebI30SDvZDYqMQ1FrrQ6952lH7kF97phahBl/g/eGxcr0klcE8grCKEQqKt8ZlzTM+eE3ryWV60vElQIp8TMdlSIs6XyhlRHGH7tmvSA10xfbYMbryO6OY3lHtFOCzHEgXryyV+tVgkSn8bZPLMPQu+HajIVFm29BirKSsJdvKDNKE2SlYooI1NbdZ8tUKBISCKAqPNB7hB2f7UKVBvxAskgmL8pX90mr74Dx+kcFqwMbP/fKzg2XDjyOwgCGI8BUEQeiu1FdPaJuQ86yHvM1jhX+g2EADTn6NvPEw/9O/dusz/EQZS1sJS/0G1AALJgflnFUF6T2hpJ5uTC/LvTJr+9KNEZx4h2tUXnirjm0lI2McgGgODV5jz/QDEmODo+COOy3RhWgK99a2TQLh+mkJcs67hnNFjO0LPVZjIiM18mqhbQ68fc+6eBuyKharpTeN2hExfnJDlDcIv5MF5eBRycc7b1puDTmEGHG9iGxtsj6+vJ2lR1SlaA5+/5zfqxiGf96sloAzvhZGJndlBA3nLA0PDFI1z+UqHKkxgHLKg5NAOA0hxkAtAF1xrXIigBLtnufnRX3gX3XDzUSuFjkLC6v/9jgUgTQX9NEqo4PRgLvf0WaGvnpk1fi1Z+3kY3BtN5MQUdroxWedk5mYUElhGMRkCWo63VKadfje9YRYGAx25hkKjWkaIms2BtUE2PBuB1BTdsb0GUtY7ultHz2SXlfhQBzuGwYxkKOuVJMuAorCBcpqCRBkFqzs/M73hYApJQ/oMbXvpmQv0u5Nz8KEvPE4EQsBNcNMQFJk/PTMwKHE01YkIN2LVHAkZFOUc+FtSXGhhYLAo6BqpqwCtI4liJ5fwA3/u7fS2H3oDrZFs6Mt/DwRAoAeNayLduVTSo8d4vj47rdh89cx0PVeZlPqMXfvdmRSfWb2fzvh6dYFBTVrOY3VU3EzjSNlAcfMbmG67aaBrDgMeQhScZ4pUlSKZIEPf0H44F/IhVWtal/tdYITBNEKVFnYnuK6gPsPrvD0LhyxOhNppVP0TVjbAmsztyZYDak+kcMTZx9IdiHMVX/1nj9B9k29ALYECV6cFhXE5EM6KAGgIC5hSRZtQtBCStVArbJmJOPQ3Mr5OdVV5xrBOcdoXWua2H3/r8ltjfkpxQQAoMmtz+Mzslqd22sz4X3lQqsYnn7fXfNKJs3wkUTCo1gdBgCZ5+UpsjFfGJyRqtBAqngvxwDHOs+v75jcS3XLT1uI0bDqJaJWlJHVE2LtgyKYyHWBZU7sGyd583iiCsErU1jYPB+Cu1VyjqBAwp29TBxvgnu7WxmX8o5xDgUJ2ZJnHRMEQ4zsCuoZ5deB/vufeySqoXyniAcQGMnNifs1lSq1KNoGpgD2DEJVCh1FmcuiOzoPHWn0E/idQroRwS4yPaQxzX9z24zfRbX/srR4HtYeeQp38Vx4bBYk0Wx6ZAOe0USLQeanu/mmJ9szDXib0b2BuYMia7s4/T0NBzAOYy2HcQHsMAI9Q0BeBk1nGtKbMO8ZKxJFDMgmBgW7+ni3XWo0ZtreWzw7FNQnsxCktXFAVWfO7VuswIEUbRYkSmXwGm730LY61PNBGxkFEVtuW89NKvtyWKHSc5pY8LlXq+FShy+6r2L24u0wJHvhnD9d8HBjezreQ+ExJ86tlVT5XT0Hjl+pxX0HbHpeTvMK0kbX3DqhqYGxrPe/98++gmyeznxLUtf43/v4r1QJophpaGEz98oiSd9b6Qr/1RZ7W7z2dTGMX5jOABk+M8U1AaJ6eFaBFh1Z4WH57JhMkaUzJfQp+8k74IMRYXgx56zQtuOXmrWVaoNDFwPfn2ngjKY2ba4+BW3hh3wGVz9XZnFgFixGhBACaxh38iFvrJGOi7BEdjFSZR/dluNaKwmldRK4JGksTGPcg36JzTZJQDjCm5wdOPky/99+fpisXdlwQkNIcm+MuzhUVe5guKHymOg7A5BUvEpTXnDDScaSgA31jIbcdxL2WUcUsdsuho1t0+79zKx175w2twAWBr1WJxGr4577eWQbk/jw0x3zpy0QPfY2BITOzUzShFgylMLIOIjCsESM7wuHtOXaGlgC7I0CsfBTuphAqfaElIPX45XG3WAPvevsWvelYc2bKAlgJFHhqtd9sGCsyrZceRQQZ068JmjDNEGgb1hUqaM119OPopib80p0JelBdsmLeo2DLtlZPGOalRomNc+1ESvIZIqd+wTgXVC89fYH++bRKcPHsJdPYvkqgeLDXELSFX7mxECj5ARCfJBwSyk6ebO3hJFQNPnmbY4sLvKM3XkM/+O+/m65942HAKfVnrL69zwJAKBJ1HM5yf+EC0W/cN63jv1hTQz8ULNq+1Lw9IQEIMUVB0B+TkM/9BW0eSVeCctbe2mOyW2PmiHGeGox06+QXeMfNWwAIyDAxfDP/p1gPao7M3NlMp86zlQUO6VkCjR8NcCAkEqIIX6RpF5rXicXIRZfTgW8Oc2GAwsbwT32Zg1tJbY4o6BgEJpb3Ul/+Rw8u1oCJH+4IACSoLACAoNCst7qwbS5OEjYpUrxs5jFK0HBM9Pktv+9G+oHJ7N86sq2olRJp7BvLnpMV8LNfj58HN0KFwcTw/AsT89/LdPEirfUXmTY3Bq7wSGwduGz0cSIrN8lsH4DAODJys+6v1aT4pTxvEAY1I75WqSsEy3V3pGsOEd3+nsPBQUiUBABI8VbD1zqon94wpTIjUyuExZkyav5K0Glez0RmmoInhcx8YZ/Lt0SbGbV12uUQ4cBqQO2jMF2ojKR0oduivU3I2AIwbfbf4IHORX+elqTvP0f3/b0vLXsHDJdClKQHi3DSHMp4no8D7ip5A82mXkR+Cp2DXZumDWXMpBHEc+p8nuKtP34zfd+PvYVyWBck2HsxfREAvQK9wi+8wPQvf7U4/awFCpVgkBn27qc8DfMh8+rzigDA/AUGp7rbPGFw9HlI+cgtAfUHLIRaLYH5d3h7chDevE1veWOeEnQYGmECWmsmb6AKcimOTK/S3ImGovYm9w1QT9vqPbng8uKRMXuhTeOUGkmrddhRYlooE6Uf5TUDCXUQCCHvBFnFGqcl0yrVZA18GayBgiJTXN/nJLjRSiDLh4JXURFkZiFqdwh6t4yCOog7nYx9RPSGd76O/jd/7hY68oZrWnj1ih9+TfKmeV5a+jM2BfABFH2Gicis+X/1V+eXc2qnMpUDBU3bpN1LTMRrDAonEbbmuTfYGheW/KpgIcxPsUwWAHjyoaWpJULxJZYqBEwYjNUaWK4jfe+bt+m2t28Tdmf20uf+JOxTK0Gusa1IhgLCRVJbKQoHxvzAP5kRvQgHPEbAMAqI5IglcETSmq9ozRUIqzaUvP2pDmhagILlNY/nyxZEr/w0hZ2sgFkQPPyFxwokM+k5zuuDicVJWHuamfG8xvQdnNK4OT+w+6VqmBn+tj/2Nrr5X30Ttb0d29aL45Qe9McsAAQ1jOHsg/LC8xPz/8vyZl5hKPJ5HQgBt4qyBSDehw2Tcp+xK8ACs8/cIY7zdMEZPMLsXBH/UfuizqWrANAfT0Lg8GFepgTXHI7MRJ0OBgVsaci0znYofCkhWVIEic1jgbIqoYGpgHN4Imc8w49aJsc2IC6NsBIQ/KvOz6iHMT7XF/swYhodjLls6wOg1JJe2vlnLtD9/+i0CQL9laYpa3YIxpkExiFTAaPMpbY3Xa6gZDDhMIXD123T2//1t07m/lsnb/9297Pusc42DvMGxtf0v/xoOV40J2ihC+eJfuWXnfmXQt5XVEWgl6jxOBfX+Qtqcs2jzGYmfU3Tzgk+AyyHrTPBUevh6BRcm3LYVdvPsZdMCCyWwPR/t34kYuqyrUHo+DQluPnNxQkjQXp6/9lNSGNq1reBqFCTETKOQB8BHG2AE48AnEqctZ9bYVNYx5e3BFCOPg5tZyYwCTh3mLQyQp4ICCF7omBDkZFgAYYzlIFaopeOWLY80BztjtkvcP80LXjkXzxW0xj8Joot4NGb/+dtkR28W6GQstb4Q9dOjP9jNxXGn+4zaeU25fi5T3YTaEzHsvzvrvgA5siLF5l+9QvUdfjVL5gDs5MJhKjVXUtgebUiSvmawJ21+yVvdASh2Z4FB5brCm/sEfa4BZXkGxjt8zxkFoBNCWr8TW/eou+7eaBDW+AhLqoRYJUK/OObYn3sZmNiOqReBwENIQrOAGbKOwY9gMAIbC8xR0OYXqnU51ItCgnHB52gea6vzVGhFDW2C4DUcdTjlczwDiWLkA7DUwtQ4y88e5Ge+cpZOnPqEXr+0RcoHjhC5EKKoU4GmcwJ0SwUYh60OOdw4ztfT7f+m2+frq/rtjM/99J6QTY881/+enwXAMN9v8701JNQW7gi8ZXWoLm+DHBnKqAwjNEDI3fqQlgwnWBj3mhphBUAplY4ENnOQo+grpBQprCNQrsS/ALz8wzpmmlK8PvePU0JrkHkiXpe/1ipa7pI0N7OXDTJBOpkAZiJyWWFEWC6sDCp9Mx6tjZ5DM59pZMnCgFpWsLhiZrastbqm/pz3nAsFghUzSy03l89hpqFwRO/9RQ98ZtP07PTCoLLWSeU2MrYFlNqKIAS1rNZf8P3Xkdv+n1vXOb3W9NzZuq1kAXBmOJ67eIOTP7p6gNATTSHB+7n6QcQ6pVXmDRo+dJTJhCYXUv19gFoB5lgALjL7YBM7sLWhGwPpxWYktsBdZnlgrBqc0awBPJ0QDnq1sk5+NbJIlicammZLhBfhwF7Oy2j7vTn7nyds/OoHW7JVBDMencEDvU+LsH1zdeo4dfY2PMqikYTJjQIasIyjnJO04gitFrhpvSBaM2380wUt7P3GAPz71zYoWcmIXD2/rP0/CMv0guPvrTsMGSoCeGEZT/FhGdn3hG64W3XL0z/hknbX/+268LcnlZwadoN8b18md6yUAkk8NPVB4AAL07z/n9+iiP+K0zmWroszQxg9reCQwWBllErgWBnnwsP26GGMInMq18GE+b7jQCo5URCmTkuvJc+xLEynOtV4BzlUfcHVEGwHDUNn3Z68xu36Htv2l5eM7ZOr8SJI9PzzjsCqjHXyNLQ6QQnlbzhhhqt3pYxlgYnn6f0BFAmtQDFBEj2zmvJfKDlWkCvufddrLpn7ps2FsfQj/OMjBEr9LJpprU8z0JhthKunJ+uZy8uz/O9hu1p7n7o6KFlq+71E9PP6/fzr1NNVxDtRzDxyv3G59oG7Yft3lFfv/YFasQOWgdr2IT5rzEQUDzH4VdCsg0vAo7CoEHFtYZSgAlZaQbfcRcYNLGGK3xkRp+De5NMkKinqd7P20qXjStFBBUyn0+jnQTBE8/s0rkXRnrvuw/bK8aBxyV0GeWdcz7oEvqpP5WIrBOYhDpElOumaKJjNnQmeh4FocyM+EYh4sxPdo8mPDJibpX3jbeHUpyNNzwXpWHkEdq9xliSKlamH6G+Msr6TYySdWbmmbHn8IYEdz/Mm597+MgeZXI7Gvqtoce2qtOGYsWKAXj04bLVVwCKD7f0NQi7iew7q30+2Q1A+MptbHVK01oVLtJzoYJUs1hmG7yaa2NAokP5gdWokBvquwzD5PhbBNZyHUidZJcuC/3G71yihx/bLfCUqgALZwTvXWV2JwhkfqLICt6/OhMpgKQygQoF7AE32DPhIINn/7lgB0C5yOSUOisHXNmI9QVcQEgp8+tHZJZ2JWGqZfSaNbsKGqwLzX+rTwVJvR84Dn/+EnPuPyKCbyO0dfbK4ZVW4GbG5tSuNbiIt9IgkEjpO9FPg0E4fT81XOOsqoQntfOhV5hSw3DxpHBoGVQnJJ8HEoUXTzo8rkKADAaFcpyJDmDg4DbJIDJztUggmnexBlitkSoA5raxCoHBcHn4sR368gNX6OJlCvN6Yl/iwm+5aDr2s/oT9CQjSYK1lNVe9h1tkWEZ8kVh4iJBLRqODQ5CSQJBCjkNpG/SdH4cn/Vz9kiccNU0Zbwx5cmET7TCnExdoQ6uG/j4iZfLr7z3whoeOR2f165r+bJwWfvSNQoyvGeEJS2+22qmzwT12CNl3T9g0vIcqZODk0YzM1q99WDSk0gwxYmVeSk3JQ4W0HPWapUHSZfYcBUg7wOwqtjAheC4e2clpU2G0pxnIHsRZ5kOaJtUNNclxGfPjfTS+ct06/Ftev0NQyT0NIzF55EYHFZbsDtmJHDvvDZS2pZZXQx/NS2ux5eyY03TfmQQMNgPCJ8pzve9hmhOcxhPa1oQtBIraEJmTNmQHesce+mU6KMDl9O1B4M2xMtKXtlH/t5ziIf24VR2U59g+QGJ7fT9qQs4Al8LOU80NxyVyM9R2+PyihN5iVcfhdsgUfBQqAviBQhvhpHbAr0kkBfb1LQV2jz/dDqwCLqB7TpPC3SH1eUrQl/6yhV6ZJoS+EqDShdleEAJzPbSl6BdqyXgwsKFYiSu7DHI1gF2gWv4EcZKrNw64TfEJkywfYJyV+vn8dBsT6TQ1Jfvx07dNnZIg9Cn+Fk+4lgHfk+y16YRrhi3JlDwStRvw1r+Xj/32oNtxfd58ZN5vTpy27b15vFHeNH+QUoroKqFJLdIte+Sxy0A1wKV0OukyjWwuPa3wReDyYT1F0IPa/xApI1qtzQfbWb30qtQE2qZXOO0g1ednmSgi5AZXJ2Vv/PzOPkIahtqHz3y9R16YXIQHn/HdtkzIFGzm1POvIYSK6p5rH/FGTj7ElQ0Smyd3cV7gtr7xMu0TpxNn5BYR5qXH/qyOaFW8ui19/qcxwWdf1YmMQQB/tIBHNIIe4oSxbXptIYnwEZn56Z2rgoJgf6vQHp1YpjbPSRcqFNG2ZIee5hs3LB1xcRma4yu7aMqjC8/SOwdA1IYYc2UaHVT1OxoARSQkJNhCGWlpbldUJatnURJLnXRxTgeigDgKgBni4C3ChPzFpupoP363Isj/d5kDZw7V2bNUctI82VlbAKSkdidM+0IaZTE5dx77Twdd7y3mj4zRa8fUJPb8NZvw4f6E4Bc1yanmSQYoa4OjtKBr/tFEhmEunswaANeeznhMtNTpwz6PwjiDM9OG5vpUsJRBc64lg5jNsxEMWv+s89QCzVxpZnHqtVrpM/NNbUvH3vM7fIiDwtyGRG+oVbqcgqTPFqheO4tDr0ZcOdWQmesQhWpDpwGzCsEskwFBhMQGuZVgq9MzsFH51WCpSB2NDJiMdv9nkj33e9FcFqu/by653VhEYmlR+zaXmR2yvEciTDj1xumMeAc4ZK0zE4dHKmDO+V4aU39nCczTA8eBiZaFRIIL8QnHNTYy/06Ar7Uwclw4D6Oa88oROcw66/I/LlgphpxRvfIktEcclJIVDf/mOZvtDZFGNiqhINuT1WNbTCq6u69d20ONYUDf/GuIa4kM4wwbRUiorkkDZmP5+XCoVoEw2waUNhsMP0ee3yHfut3LtOlSxLw6y0Jxhypfwi9/LG9YBuBYJYug2PbJXWASIfYOc2DZYX5qM8oI2QI6/epvoxnJu72XOvN+XsMr31FnbKyIW7Tc6gP2sSpnb0694K79B/1+wnb41YZmZKj2knz4zCbnI8/zJHQKWKS6D5u0LE4BiZxztA5vIm6RKS4vm9kLRLN7GRQuBTT5TEiP1PNkZXEydohm4Kk+tQMM+FGrVXAcFP43PcKzCJ2ng7MFsGwCIJY+vJsDdx/hZ5+ZgQmjn0EvQXEKw2B5NxEa8zHrQML+nUEwFLbpf2yaNIat1bH2ImX/OtxXidfnraFtnIbL/utf6VcDw6i0YODoTs1kbZ/evsKBNLXxrCXl6hdysxjJwgM8m3PTPPi8+REjloNGsBJ4ZdbmJOq+KbofOIKoBwBRtAqMSaNDr5OSEQSXgoqEcC0EstYu9RScDhhGzHUIU19cE+bgwlH1qlSccbYkuH0r2wjHo2pLl4a6aGvCZ0/L/T2etjISLiLgkNXFDza3XWp2c1zIAKmxtKx5bBKNJhPsHKieJoNeZuDRsvMnesj312XhmC1TKASSXRKsd2r5bQN1A+9z2jlervtSnEYbeWTFOsU7dIYChPzVxGMGbX49KyD3K5hNv/nr/SGSsh4OXauxHyhRcl7iEQ5hzFQkaTGSVMHrkQYvDq1sDkwMP1Y07oj3QlqNWgd2qlFViSG2z/YMKBD3SS0bB/W5UHzEWyRv01X2vbkUzv02799aZoSOKws6bmph5u8et9sHklUoH2IxOV9E8cj15GFDKW8Sx7uFGJPE4jK7cx1SudZKAq3TX4MhEe0Pp6yUu++8kinT/K9rMTv0Qa9QZ8BJXi95UwMPUE5vPQ8mPbpisSyxAcmIRA9DIzqDI1LVUHwpV7y7cOAahVvPo8X2xOQyy3eTO7JzYi4QC2ucbwOXwIUgwsYNY6vnMeaZIQudecg23UWALMwWKyh6hzEDVHLnoHfu0RPPrkTukm1ZSYcor6jL2iFxMQLoXYYnKglnOxkymVsXZ8ozDe1Di0zpmdBYk117NVOpKdsLjfWToKx33tK7UWhaHmhIr1lTn1FLT45vYcz7pfg1G/W0BX4vFJ/T7hsXzgvFG0XilK61ysJeQerxOxbXQn+Yl59E7DErA9X3ttmPgXrnRofhJFU60W3Ldc6Bw5lWMthMZM9JQLbyUkYFp+DhCmSWhCLtcJ1LXa2AEamra35qHHv3GUmXrcO2uEo09PuLtEjj+wslsBbb96aynHTM4EphHx6BQTSECs8Z4Lklbgwt+R4ZYZyG+BjyPPhXJYSLgztRAXVsxRorQ3Ut1gCvjCGazSvmXs4W1SnM3uGUGZmIMMGz15/Khnn6nJdmI5XDcOLz1X2VIKBTuj1gzrsdO5uhZhDhVod4x6ABAexxLPaQyshj504o46/AJF9BEAoBA22aWRByi6Yj7ilppNdahuImhWIcZQIdtH2VC2B+pvjtqqEGMp7BD4lKGWfmqYEX/7SZbp8SdbQjfiItzVrrUwUGc7a+rQJwI4y6DFzj1jX0jJOa3nmwPuA0XseN6Q1OAp1p7k6hrIBXqhTorUSrBStQ2K9vbo21ZGZeq3/iNbHf74OO1d8wBlSmVpIotiRm+LGyJX5UEpHdAlQruVB29qpO5YnlQ/alwNUM/BxXc7gxtq9HTEutJP2DpHngeElYB3udTGEkemnlYFldYCTEK1NnlcJfveLl+ipJ3cDYxMwOHFqX7qPFlTM0yWYDmVJ4ggrx7CWzwkWCF/u4JaDbMCvh6/soyylvCgY9Tmst2fmq8MyStuuDHsOCEsgcU0YZ+Nbl/aI2tWMnhBMaIV0FDy5//U3zId9MrVMgiZtvuKKgB/9jbkiI8/3Q1rLW3zgwtEMpz6xGsXVvGouK0N4trgUGN7AI5CatcEoHLLM6ZmDewkOLcfclsEBZ/MJeIFl1+BiGQyWX2AMHn3kCj185soiEBoikNi+jGNvl10TEmMEJk/lRiLwl7QmrcBzrzzilO8znj1CpxW8cr25rJn5KDC5rZegfSTtGDbtxLIwCGuO1B6u2cmb8+eyvWvefLXG9AhzuHg+5laaXOt4jRTCDNJUSOJMON+NEiGqaIhbeilIl6BBqwMQNwNh2QGETeCIWqU6JDmi7CgBen68FoCQ2C95oNYCLq2pbFp8gXWT0KCrAyoEFkHgrxSjxH322V164P7LixDIqO/lAc8CQzKRGsK0kfmkotQj6q4zktYJUBL+1Llfu3bbIzAuEtNMqwo1UyUsgq8fE/X7AcupBRHqSnCpUz4La1ppW69sg8tKPPpN1mDaZ24ah4RERpH6ANkgMHlWN8+dSXErbPTk6+e4tJTuGsyOQZ1zK04lm78+O5rdykk4+YP5GWrbgn8gaO14nh/m7Vso/QG33skWAdfSXOVkfZ9gsQC24I1CYpveKIyZ+X9vmhI88dhOd0BxfHI6h/ojE+A9pbLS+eEbcpg/ExoSIK/gq8bQuIK79J4Tnro5KZjgkspxLENCXYaTld9SjzgsxWHgyD96Fdr8o5U4opaRifbu617fr20q0vHYNnw7I8UE90uDMKENDMXxRZPlXrySkWTd9DYYqjoRdSJVp0w9QqvCpLM7ojC+mGQyHrTnChFNW+gTQD8BJeuf9iTdBIcoTp/0KnW1YqwCagDQFRmtX8E/8fgOXbwo9Na3bdOhw9D6xBiCnQp5VBhoPj0oMzdNaD2ulwfz5tDby4CMj3E9OJJuUAgoHpk5GOuuY8HStoFy2frA2ECO9Vq7Vvo2w6dOW3rt4w1pm8qtPTcwKlLzdRuRXsUUCZiAqAtXUWR53Zvm4jZ+ImxFehjDw1BC74dvDQAkPGDEEiq4vMau+Cs3mRdfiPK2ZrIlSqLg5tgQpGMG9CwHy89ALEN5bXk5WaS2Z95CPB86ymOBrcysBPzcuV26cH6kt33fIbruhmF15DNaXeKXNj0vn2kaMu5A+xcAlOBuEh425ZJOWZDvlsz7Y47eST+5P8IuR4mMYyvQFMf0apmcVvJngYhl1gQjreRv4lUAAqBlCsC8R0mioFDxhVM357lBQkgZSwIgdQiGHXdZVRqUcpFmspoDHjkmgVLZ9TtoPdx1n9sqPvAb+oQ3SIW11YCYqaYPZNOl5Qh0WC7cqi8SDcPQaM45XJmmBGe+epmerFMC/EEV4T4T0vzrvQnHtK55ZI/0TjObYB5vYLKwYUhaPDE+tE2oERY9za51JJJ0PIAMLRvHurMDM/d370fUH4v8vIHcbJx67zrYcwIQfCDs/atTpYE6wDbNZ53JCmNJk+jSne2pMlVRy3WdXB1tIAzq3N/KSeoQVoFS6xZspFgP6EqALlGiR6Hn3Ufc8ZFT2qZ+yaEnHBoCBQ3H9SWi4iCketYgmV+gbCUe/Nh1tRIqrCenKcGDX760CAQi0CS8TqBEfSLS69qOPOo8a35ayT/28oinGfNpAY7CKePe0kWnTmnjs6+rZ/lIKrc27nnqkvdS1GpWce+1BeNGWp8eIV64dGi7KlPbCGgNowfX6oloEwHjsgitdIghCiPpooIIP35htniN8zPsqStUXI8rQ+vW4IS/ThW0HoCDAknfUCxyiW3KENuBT7yuyfcIKHxyHbHPpbw+XHEb6oEitnlIBQG0BKcYFy8Ua+CF53adaToE3rwjQH2B0LMUct681twwnOIgMQ/6G7gDPxt8Qg1JOqNIy+C9uMBo0jLeXtc15sUfb0jfVNfYiSfqjEEFlmfLEjL1+7OBQ3oqsHZQwlJ6vU59RMNTcoap9i8aDytjWgORoS9sLzjlIGrOwROHb/sFOtizZ/aCtUwUKGwoytWo/xTCICY4+VwE9firMLN3Caow0JOGQjnNO112Jgvg4dNX6OnHd6DF64SdCQyv2QKglJdXyuUxQW0uUHh55s3wsZ5G464w8ZpAyIyRccb4njDr5evhm+N75XrjgP2jTCrQ1oaxJQkRWR8v5HGG+0FrXxrAscO516LKQMosTP5HcGRrHtWs0XTvdW19rjynjWNX7TUHvBRkeIJG1DteoSxSX4FL0SqeCHcOqjDJRPhqBcE+onTP1BcC9aQhsjcLh3LWgGIJTX5qnhJ86XKzcQh/Nk2gPmH32hwIrtOm/MNCFk+OgCSizgdvLleJ9SvxY70Gn4BuaIXBUnt6qxO9XxZARC1Ty0oadcpmOKT9o9YzU5iyIEnjfQ8eAwLZ2sH2DkrsawhqRs/DyPXgUInNZuNkJHI1v/2+8ScI1ss+2gAD+MS1OYC0ViMcxUz8QE3r4Iojfh0JJ6OKrjS90g+9yUImWovH9uYB1x3C+u7AUE4Z0i3Ei1BgODlIKEwpLl0a6eFpSvD8s7sBD+23TYSanU14iEV21AleN/zW2p6FUpOXI4NANGWDUigqkB4OveteeGcmY+ozHlHb3rW6w6YkgbTcpzVf2JwkCV6thGveXeiPjCMKuqHH7DlIuhHJTSkl9V+Zh9Oyvk2Qqk4+lwwGjNRh56/mdkmBsDuxIxwvblpqpr24wMDndu4vlmbTDEmCkLHOjKHjp1czZLR4lH9NvD3Dh0iW/QFcDx5Vn0D1Gvo3GSkM4uwUfPxrV+jJR3cagu/N34XieI8rDGeAsIEd/Nfgj71M+pgI34Q0pM8Aey8wYftyFYjauCEfdeI54b3mP+nuyEz4Z5gCEcYdQl2hQUSrllYznmuNAziDMQE5kmu6zYi2/nVGJZLMian28G6A+H1Y12d4KUh6mPRNf0+t5ZL917zvTyG5CqY2ICNQaDtZ++IU3h8EKlrrzxzW3IzFCiCbBpjtBlOC2Tk41PcIqO0COvvUDp35XV8lyHy8sf31oREQHIlcr83sizvms6wzL5EzeSjDbf5QZsMVmROZBNMbuqhBraGukFwp1+snbRdq/saKyXAAOFegA9Ai5s3UY+Oy8ptzDMr9wYoGk8sqr8AYKou0j7vzGBpemqnv5g8cyVy38CrzbrRA8A5MdiTAmmiWiAsTaKNKWtTIvQqhvSjTesSXEzh3UAdOLm9iSKgb6isDddMQxVOIZ3+AnUAUXytWPObDR7/25cv07FM7Ad1gLgsQKcW+bRhK4jNDvDIcETX77ynVpf6ORutJZN6soHK91MExMCIEhdnLT50rU6ybV+oz+BAhtYAKNaaV/QMSy3bHh9LOQ2rbh1ZTSgkdP1+2swhBJrHoZFpiRwTYSRtKpUIzu2dNMOq+dhAVKFmIWzO4kXUe7/sPXXgV6JFaNC8lIvPPmBnaYM7GswqjBdTe9/DKnZXbNjAHARUFh7dbyM8wZAU0St04NN1Ok75lpWD268JOFxR2C+FN+Z6epgOXpiXDN928XSyIWoG0DWn6K2IVy2Sn4BKXgEo7jIH4EaB2HWpffQ51UESZUjlqQTf15zb1BAEDrpyVJK0LGi0smzIxKFl2lujttkwsW+KkTXW/WixdeLlUMlj93A4OHkutleXO6okfxnid91fKzstevaBn/2WqCCsIydx207wPO2/1dT8fdliGkc43SJI34hzrWkGjyd9bXpTOHVdriolsPwHjOYNb7hcgPYGYY3/rWM4xL0yOwYe/cnmZEgh1hrH+EaImPTNKU97aFrtAVn4k2MaYf7dTFkPefNTbcNRj6B4+1KkDhyc7PznBDIqSUx8KtLX+0DfQWGHUCjz8QCoDDMdFoplPRH5CVx6j8jRgnBGXNZBDBpROCCQGts4IzFPQI2+Wa2QrWbVxM50QLB/rZkQcua3aW9IdeWlQVzg6QdE+QGmvg5N52jQ3tKOXJ9TXEQxoYWAXh7LaTPb9AuoUXOIH305MOhUgIEyAPTP/1750iZ57yrcRQ3evCoaxw0UqIJ3wYha8yfAlwc074AKMVKYXZI9nhDEH3qNcMzXhyKhoGWh+mwZBHCXGnkO2UiilIyKohPSL0QoR6zf/j1mWlVeUYADf8DowNtKBACMD81dWpejx1r96ZFf+UuwMwJvGiK0hqqf/ptanW63HcBGJAgKYKewTSASuQkIlq7XHOpNt8EzOYHtSKAwbEeXU6bENLXED+j4/TuneIKhjcQQyxY+Ulk+WG7Ycx3G+PPP1HXrq4Su0c0VCfCbuEerdBWYfV9qBzEJEG1/3zX3CHVhC1N0HvwZfUtqmE3a67yBIbL9QYvRUPz4sH/8AeFkZ9l6IwnqjJpdl6mx+L8H3WApPIc9IQyQaL7YNf2kbVwWfkUNJQ9zpGGitmuUDZwiVmeuzIBdR7O38UlBPg5qRY2CAqSyHqUcKXWsUxW0bqm+CvUlNG3uPOjALVBSW3ICvnd0KkIIRrXID4jrUvhxSz6iA0HcJZCA7ZITr14h0elBdowXO4DjNzy9OU4Kvf9WnBIoLvj2na8wkkUHn+zEJA2xDZsbc1MzgWahIJz9R220MZamThxK8MTBZgi2tJYJjZ4Kg/qLZ3cc90qrv4ZfcYaEWMmblDqzSXjGYBHwBmId68GM6g9bZmDHUl2zaEUuHp3m4qdEmoDQBIKHOwrT4DcDQIDNjvBG27wAbhqOBZYVazZxt4g7aKL1j2ZAt4BbysZprkF/aPPk+CxN8samHzGL9K/PP/L9V9g0M+XuF1BKS3i/biKcpwbnHdwJToGlOkD/DyEuPGT7G9RizNgW0W0yXPerfdB+YVCK+lPNRnyTGEVQcZOg5ISPQOp5JWERhjzwixqRj5YURNTylcsizRmtsTJ6X1E09CmwFJu4Tei9IwoSDexy1t0qmyC6iQCTLq7jfHxvKpj6Z7HPhIo3FwKFm2JEYGqAd0FJCGHhgRrxqPpwOrYUiKPtMrjAZrRvIk4mwa13ovY7hIgnA3NA3C/WosbpUKKmNGM4+sUNPnrm8CARsh15796O1pZ8//wjLpbwjtSY7de5pQx2WFnUB4RRojHzR1gUAkQZ6bxlae9YQJOngFijc4nKsC0Ru2yUJ1wxbHAktg6cWN0eCqWQw01Qby0kyS4AdGypojntT7KUgzYoL1Y12ToiJtzp0HMdOCzgJUXY0utCJdUTTNlKF+RBQO9P+BOZeedS7r/elTItFpqtsITDA0z0CjEeNoU9g/mIxw6YqaIzCufD8SI8/cJkuvjSurpdjHNNmRuy1Y+0+t5tpD6Eh/lP6pZQHnXJ6j4IAGQqtBK2PVvALbUvM2PAgEeE8HgvmfS35qimy1rEUC+l0TfsnN0DbYD4AxkSGDiJf1pNeTQ0yZbikNqwgXa57vhSE0opabaKY49FbaMZjO3rmuGYQe3D4Ib+k+m0KkfLuRwKk4EZHrD/kyT2916BTYkbWKYEuBS69XwVCyTC/SyBw7iARxdWO6bc7OQUfm98lmCyCvoXVMnxv7T2j3nPI9WAhTO2HyEwQxzEPan7EJ6xqgSTptYvW2iyxfmd2L40aWETaTjB8bXEXkjiOeagDcGgJx9uusNgFn4JCIWc+gAzULQEOODsSHL3T4piiHFMTHE3uqOHQNquNp9AmCrNW7VDQYEzcZ/gAP7YF10dVE2gTbBkSEDEnHsbLOvxVbLQulfbSlyO57jYuOjQbGAuyYlbA1lYBNNRpgJ06VF8tdqvMt5rOz/P9c5MA+PpXLoU9A5n+8Lm3KoAMb/24Uj7QdSJqNGMbYUAuAJv4moif3OrwWOg+a4tQsi5g4xg5xRttgjlfGstWx1ImjZ2Iz/mRNgjqFuh0kC2Up4Gh78iduG7txvYNgPv6cpO0cWwjKACQqZz1r1XqTiSGHOzCgnVnm1NceClIsqVgtVM0mZwaUEAVfCSUyULABB2jpM/1AdGneqK2E+oUpYz+mj+gl0cqV7bLgWLCpFdHM1bM9YMkxQqwjUODv1C0KexcFHpymhKcf26XnMQ3hx5Dabz+mlUD8vYsP6WzDnFnpqVUVjPp+NJK/l68dBjBhYDT3+yc48q0jru4ENR8BtSd3CZYmFNfcWB29oRux48gIJjWhYa2CYXn0Fc/tT6YClBAkEyC+nKcr8PbtKE2WrV/mHPWRjIVD2eh0SokgLL1/X+jgJrGsIYV9xpotULKyhwEAXkd0NYg5KSN53AfhUggEmoD74dbIGTt757ddvzNb7BWR+26IkD01OGq9bf0gBGdKpT9AjjmyKzzPoGnH7qyTAl6y3SaP8/RidKyHnQZQz5JhEqQ15iP1plVkNipD4c7+Bpfpfr9WiJ9HCIGibLsb2M9E/rBOjQk6qMAhyEwfe4b40+KfYfWKvXaC/0zRLT7V4HSpjGJUrNro7iuWXc4weH4+cFaEpfK8rKFlhbyylFbozkdBl46A255++8QrPFRNtlMRoFsWsrzhnavwMvxWTZl7b8Jz5yO2oMX/x+bNbBsBFkOHWU4d5BJp0a00pYXJgHwxO9dWlYJUAisbfRp5vsc4UmHq3vdk81+zChprINgoUwDZMyuTIdmdckDdKIDQEaFKTAIPF+Gw7oQidbkVystbc0lwJPaNqgPA+RHSRtzWxqQlri9oMqORI/1NBK1TdsNsphGyyAEggWtbqEwvE4jpG5rlStXaOelC3T52Rem+53JCbVDOy9e6Na3dXibhmsO0eE33kDDdL9cp2ecj4EZ4pKe4+5FTm3UzhkGP2ijbMJxDNisEO/cInW5SyA9Zm2sKnBsglwxfHCKYigLdZcGN1ocQzkEQs3YmTuXcwak7Apbyo/zwa1j4CptqxLozPzzlODYW7fp6I1bEYd8lTYN25njNegbgOGbBUJBk2M/jWvwQCr0mMmQnAUjcAcKgcwXABKQKhWYoqJeXaD6mKJlomMnnheVTaPMALh+nMS+ZUjUfACnJ2S3FXfog5DZVwJaM3tpLIMrDgTIzOADw0sIprldIFx68lm6fPYFuvTUswvTX3np4roGphWrBHAfrtmmayZBcM1NN9LRm99AR6arG19Ux0kMCL4hmJfUBCwNndIIVsYts/W1w/6CToOQso0weppY+ozeTtf8ewpBwGhlkzSYP12+PIbXzoblQyoyitEAUWS6cZoSPPvwFbrugtDrb96u7XA8glJJggQQjM81z1gZXyh6sDODbxI2C45YRuIux+YsC0nIpzoVKlqPpW2VSsRVns7tkZYkKY3Q7MqHgq8+aq/XjGMuRN6/ao1CUX+LEsqItb1e3/7/qgY3g1SrI+yEQj7qBM8VEuYJBMuxNtnZoQuPPkUXnniWLj765ERA8eDKDj2vhj01XcV9FgY3vPttdPjmG+nQDUesEhs0KhowtotCPlu6HDqvB6f8CQOQ93vjfbV90JTPDMab4ZmpqPnHuld8/l/tYhUCAqoKHbNa53CI6XtuOzxZZuzxvTpX8K7odpcR87PKqdxeF9ac6hFyJY1MCRq7WyfbFKBnBSD+Kk8jLtR5aOuibnmwkr0J0RpAuHAfohI+GRX+3v+nSEPEnCS3Rg9RSATBUfdGMor6ep01/EsPfZ0uPFKYvtECqUM43W9ijP0IAg1H33YjXffum+n699zcZXRjVc7trkQN1kMpAzC4j0vYs7AXIRFoD6KN3HvVwiJ1OpqbpkHEmV/q+pcxfxUIVm9QXyVymGYC17/lEF37xq22eopaGse4l2ctNEKuQlGmx75eBMoaoVXCRYe12J84bgTpOj4qiBTxnom+ijsCJO+LoLGZwifMsP6ACyUBuUcHYrnx0k4UAFnzG/COgNCrTRGqphwGl74z07905lG6+OTZfTPpywmbBEovbN9wlI594FY68rY3TPdHqNt+IosPgrDm4dwX+f4bEFCyX2053iODErULATLm5yoc1CoQSSc3JUKdfQI3TL4B3uYo0GrQQy6UcRQ/tQBqUkijXpsqRxk+DBpb21LjjasaldlbZk79ljSrhjyHD2Wor4kJ4jJMVCBo0ls+aevAcqNsViwBzhSx89LlKgAAo6VRyOCalgmdoQsHRbiAOv+1x+j5Lz2wOPSuNvS06FoHr8LYR545zILg+vfcRNd//9sWQdBYPasCz0Mo06k0zL2lOheT+bwJ/01t2Wz9VItmY562YhG3BqRaAwQCQGDfrLGTxHbO8cM0FbjxlsO0fcjPJFDG770Dn9uEGrW2hCiZ5E2Lm3g/QSlr3Y3dsJJn0fpm6XUshB73Q9rAKQ9k601rvO0dRFYe45jEPJg2P1x+7lKaAhA182GpV+4IAHusz5eePkvPfemrk8l/ll5pCNKQ+gTDcLMm/fYTZkFw4796G13/r9xMtsGmwpdNQpA2CIsU9iOU1GGHimutLM4R9yVIQp4uWVkhrb9YAOTUKOojENJzwsMMWpzQtf7X3bRN137Pdhgf61tZQYBQeUfBIhQtBqG2vVko9WBYmdovGC/7ERLkBXq9meFmes55wyfGqdNHTM7U4v1AK7QSyicE9fbC4y+sWABEfQfXiiacnXvP/d4D9OJXH6L9hKs12QPm/DJgdUaoxzSzILjpgx+grWoNtEIOHILaT6rRs0DYJ/57BRzAq5lGGfFTf2lyc6XlMprmp8rcdVWAyKyB+TeQNBoWCXWeElz3pu3FQRidUrFD0LuObSiaN2rcSOhu7XT7gnxJV1/j9WlIu/wKCMa6EjNtEKOtEM8aWTaX69YbMjqejTDtMDwKBa3n+Qef6QsAQiFA+gwHd4AAuPT0s3T2N75IO+cv9OpuEEApRh0N10OWOm3rpgtobHpZ/LaEYz90K934r93Wt35qHEGa9lXvc+QN/rw+58xhL/z3Mu+9vI/KXmVCedjBM+LZVlUwjPVYIIGdNNni0O6YVwnmKcF8NcxEKPHUOlOlfmu0nMXzckBGz2IKDlgQUE27Mx7SWghoeTXDydSY240CosQTKS3n0zDm8VsTJCmNOxbGuS8+3gqAtWszx53un5+0/nNffmCVSKUt4p1I61J9U+gRysth8r3gH5qsgbf+qT9Ah1531BOhD1p/QVQNyGhrWngvf0cvbi8GxmlEEEorYU+fS5W26BewKzgJF2FA0nADerJnmEcnS+D6N2+baV7q6OxToJW+WGuKhEupjzdbBrmehmko0qttrNFEipp+n3J9tUzAnVr6HiU+r8gWE2xMfYU5X3d3R3rm1x+FA0FSw5mAgLHG+bJzhZ76X351lfnxDD5stDKMIYPML31GFmo7RiPyNwZejaDwdl64QF//xS/Qi196LJmk1IpouPG8mMW1b6iL+/U7Y3jcWpk8+HY8lBFov+69cFDYRYjUH5wxYGcQbsVjx5Z7nB9q2fp44aldeu7hy8smInyha1dschXwUKekgGzBq/2gLm0XvkORGxcYwgRc25+hzsoYSgJ4+Ef+RoLdA2z8PkKAXZ+HiKLRuojzR5f5hey0IdBBBccEk2rclecvLXQ5BGiIDcWWKDHMpv4Tn/8Xi8OvK30orr3G04Iio0dprXVEikQppvkoEbfFv8ywQiPLOulT/+Pv0LP/05eXezTVkGAkdbxRYxJPvCbhcpT4VtE2rY/r2rOsJIjEDJkYQ5GF+euV2QSBLfkO/mahnUM4cCB21Shzy668IHT2zBW6ct6lxHKIZjXTKTF8xjtoTu60iRKjYdxIwaoJOBIIHQKFVccdPrdAeVpAwIAKH48Na+rAeAFmreX14JJcVlI9hltuK7UWgLV1+nP57Hkqh4JKy4gEmVFKXjl/kZ765V+z5T09lY82/KQyw1o+e9Ov5tBTS4X6xLhqKWTGuAqBsMo0NTz/m1+jRydr4Mrz1c/BUUuhwrPIxlRIdXQIeCMSmv0qBR2nqwvSKJjxMfclCl/Lp2cP6rcI9LNF8K2CYYDaGZbkZv/BZAE8d+YynZ8sAtxzH+qV9hrw62ig8C1D4IZGmCBsEASm6aUvhCTfd5gcmQ7TmvZ08CCAgbijsNr0YRRERLAOifVdeuHScg0nAqFkRbNtvtm5UJh/9/ylmrt+kLLD1DleNgoIfJ6PqtJZSV9oIH6bggjtL3Ty2QCCsLny3AV6+DP/Mz1330PUO7AhjjivM7bm4LV47qKGBJTDmqbswu9Cj/nj9CUSY+VlmxKo3aqCYGuL7SvGVL9kLFDBcmgFwH/pqR06++Dl5fShTeZ+Ppi0YR7AURJDmyZMzCq1rYKqMgXB/pEIv1c/4h1MfhBezZQa8A7watn8ZaCegAl1B7XvdWj9s/aXy7tLTDwTUCg2uv7ZeWli/l/5dWd+dub1VyWdMkQZuZ5AoffsdmS8NtaAvpfeCgDmnuCInbBC+54HH9YYkaJm10F79n/6Cj31T79I48UrFo+aUZHYtwCKxXz6BARpgmhVaLRwWgHD3foQhqwIwyUvPrAzz2CHipSIsQqGcRlGP3WIwC+U+3a8JPT8Q1fo0nNjahdHywTxTkyIWpxidNGa4nVKKoMacvmNnTwJrjJT02fajxw/4hnam4QIrwgQy5/blBtXYQhlweSHlli+6XLp3EVDbDDpA4BhnJc/z/76bxXmR4YFZl8Oo6f6E2BepZp6SpCQPwfRW+GOgkw+tBZAjaeOYEAB4e8ntkGI9lLOIW+W7vPvxS99nR79L/8F7Tx/MRKjFkp1rGn1HNTqMq3FHo8w95ItnPAV8VLooMPpHj7nMKcP2TdTuzwKAjIfwaDfIjCH4QA04+UUnXlK8NJjV+jC07vAKEKwEbG0KzVeMA4FGq2MtXQ6iqIgaARFKr/gC30QVkgBF7NapBwpjgxLHaEisZqIu7RtwXJjrdxOJ6q8p3Ck/tu9vEMXn37JD4X53v+HxEVTpiABnvvd++nF0494GmHncoM4ZAtpXWaUeFAoYBvrkjyyElVCqCk+F1B7sUyvZOiGVQg3/vBtdOyHby35lCmAiJyJr/6loPahn5do/0Itq/q+tbB3sKGCoRD4hO9Cj7iNeDFvylhI5Qx8pwCHeOsQ0w3fd4gGfZegV794U8LKEiWhAEJV48NUF8uk9s1h2boMdcTGt8OD/UK0mXZyXZxxT+mUYPch+HNTbvq9ePpZuvTshfr9CC4HglAn43x96ZHHl5d5ehTSOx8AJRJDy5k6jSQiMub3g0QodbYeyaE2TtNJWE9FRM8iCEhZkHDXk6qc7g0XxK3en/3CA4tzcBYEh15/pNFCBjcwnTTpGHj1wfHSpP3wbpCriXqY1/Pbc43IesLLF2/yuExWoffmU4YWITB7+Zl8UwC3HEliwmS2Bs6dvkzXveUQXfO6oWtmBxqRRq55G4Taz3BJGtd0xTaGNIl9wlBR179AfcGS+UETJOXBQtlao65YwXcbyexg3RcyTvP+yxPz86C9kT4NRkDcs9Pvud99gPI8vAy1z8+5Y34zmPfqIwj5wnWoaET/gOcfKvGB6a/+BZySqN9AKo61fkn4xbZg1+WblrnQFEfGeeGLX6fH/v6v0cUnX2jLmXDyWJEIoGtqUhxiARiZ8fM0JQfU1PsJmt+eO1IS56oqprkOTRmi4gwe1NSEvQME3ytQzl1G0Id/sSbOT1OC80/sNlMhqx9wNGMDcNR8dkY+5NEfnl9oDE3eNvwir8ahmT/j1HwCnfp9HYQI9p+0Ql1CG2EuXzHHNmhJQcAGQwzq+a8/T9Ffl44FV8k4p817+2VnNzI16ZxisDgxYMBcOLcHRlSmNqZsBENn3m9Ch0IdYZWAHT/9atBMiaInFPPguCa4CM+qwEETSt3aCVOZnckK+Pr/5wv07K88GMo5HBiqxGG5ThNNQGycYDR5O7BkI9IKdSWFN+Tk9Xwhjqkyf42rzsD4sZJpnKYMYwVq2rMqo4vndujctEow7kjD5KF5ldFZojCQTr5eMIbjWKhhSMivR4bPAef7QdBIK8il0wCcu8cXl5DFGe444V6RB8FnVUx/Lp+7sJj+xit1bJopwFzg/CNP0MXHnyU7x5fJ54q62d40WwKAebUVKR9jZRzvJXU8WVVxQy12keereRJuAlXh6yZS6ytvYklTI8LosYrLVg/npinBxUeepTf9+HvLlAAzajmhjfNufOEIyyjqIZ5kFRbGD9zbjrynhIi5c78KuenN0HustEIV5/piklDt7DI14PnckLHCqKp4OYHIi5XrNCV4/sxluuaNfv5gFswdniq4IhqpHSFfbYeMnXYTWAfcwgs8ArCsSBACEYgL9dJ7I8UDc6XBJDcAfWheabCWpn8vPfIc+aoKV2sNlgGxphce+BqhViXTomB2N6Y6aNYNaaXV5YdThcUfsMRBPVVrM1gKaJFkk95xVWos0xWSqO0tj65OLDj0Vhe8X4MUByHVM78vPnKWHvuvpynBw2dz15ZyTMS0QQKkIORN6s7ZZe/ymfn3tg7avEGIazdXokK0ON9YPvbhqV8oWhaO6tRgOZ68rhaE/q4MdfGpnWlKsLO8d6CaTS9BqYR2k2tEiUohtBHOQA3xvfYkuLhDEDU8CgrrQ/yUt6DgwheVooZn0+wc6lmYX9yuVSuIan1Kt+cn5h+vjN7xMNcack+88NWv0e6Fy8TUztt1aQEZXVaYX4VGidP9AMigztyxrDcb4ZWq69y+CouigQocoXY6UTqZYx7tBIl4I149gRYw4833c73LlGASAmd/5QEbnCBUSDraCtMxvg0b5+gpXy95barTi2PuMIwR2h57HlK3cmV6Uv/AUDYPLV8uXoamTg3UmeBglj+XntulF792hWjeOJTwErwBpseAH9HQPNk3YHkBg5CeMjb9K7keqXVLsFylA6FYIXH9XgVGWC2r8YxtoobMFqffpWfc6+/CrAjdcAy57E4S9utPEZEzjDPwHGDOnLW8MiowljGoEUsrKLIQWN01yA7P48u+g6FKTCxb3UrG/FmYKVXa5qRFynJfMASYKnRapmiHc1olmHwCj/69eRvxRSuh7ciEk0kivxQU6sgMTP3n/TB6Lx/GoRa0KVGQiJtx9TyqgIaF4Wsj6zYSXnYNjnVchuoolDq25mjj8s3CeRvxpWd2DUGRtm5GfJJAYHI+ZmrjJD+jUCGKml6ZVH9ExJFl4RVlXZGvqQI9bAK3XbgOnxaHeCFqrBrNszt5/S98/QXgY7YvRLNZANBbFx4/S+Os/bllUhTjqFGFYrz/iikfHH7KdJmxBAXKEOpGZuequa0O64QoSLhXB0UhwUm4BOsk1OnkwSjYiKjDM91w6akX6LH/6teW1YIywESNQ6/DOHu9FIQEmLOs4raHQJB0XYMVLBDyHYxruGpGho7T9wmMLmbhUK0Bqh8s0Q+c6nsFTA7j4tkdujBNCWTHuVLST+tfE5BzCJ8nk/6PIV0AYNC8QJENk9Z0gcrN8qimjDOwWL32VeOEN141OwP8ecnvxa+enZR6PZ6fO4qWZyeg40wvPPiwaVoLOlj64iB7tIT0KDX9qqMenTtLmSS57BkIBiV2GQmO6als5a5CWEuvsjMcCg2hpiMDpVf1oVMOdC7GIM1Tj2HmKcGT//iLy/XGH7nN8wuZic0pLgNcc7r1HXz9kMFmhuXa6ZzwWLQwwQHSHPHhDdIwpvGiznRoB2zofG8vg0kREIniy9B6Wy+/sDstWY909C3btH3NsGcvNKQNxCrUoWHplUR45iqvMONYmJZHS3hut7Cl2WE7ArVUJAIOpeuMr0ZXr8UXUZ/H3ZFeOn3O5v2F+QsOOuhqBQza6stnn6fx4uUF3DBETYhOOaI4n16AoMXA6LDDeRzA62jjggZIKImmerkdKDr/hmDC20AYDu60DE5AcRzavQHYdt1bQLTp/QQMG/hgSTv7yw/S1/7OP6crz11UVMNV77nDUQz8gKlr5w2sxeXyMb+E+jQg82enYBTcuT9yTS7RWbOruU9kS4RDver0wJYNGaekFbfJAjj/6BW6cHY3CLj80+okRwriS2GqQKk1XqTNJGF+QBScFDaHILMiQt80A8XtnTiYsWMlLLhPGv/8g+do9+Ku0ZHRk1rOg/PKtuJ7/rGnSQka51suJdklEkUNJbWCZssukQkKEj+6mbK5KK55TJCkznXJyt5a63RGsD6ISHsMEZF7PIrdqwpNLnVDPSvKYFNCCLMVME8Jjv3IrfS6995MGVVRrWCNSc1e4d4sMzZp5rW0NY2OjJUttZg39kHveC4Eqv25aEXT+FWvsg9bWZ4rEePytaKhvjou9rbc5WlKIJfGZbmQtrkZ5jw6Qpnv4hmK7dRKOk9xWzcKgZ5VhhacVpCtUa0c628gpTJLWyaN/9KZc+W8f1WaQzmxUa0A9amQfhuSKi4Xl5N8ayFK82iO2jgv35lkZM9jGtXUlsIhQk2MMPRIYrMGTHv3d/Qtf2t9gsf3dnGIy3wCnyy3MkIxTwdPzmmqwsK1H5BRZiHw9P/wRXr65Je7+YDvu3JL+2lT4KRgkFgGNK8hTy6XQznGrV9HqE/j0nMfUSIOGz2LP8CE8tK1XIeivmgEZqxWPP/dOT8uOwjHi6PVW2VKAS8EOwOFoLgxv1MFAwylBQoOwd627mKO+xgWockmcJT3DXjCUQsNqR/FFCUrKnaVK9Oc/8GZ+XdLg8DrP4DljL+5TYsFcOns5CncGY3AdY5ug1a1PHaLvdAnmwfZCJip0cqMZbTlMw7iicyxA7QeTp1D3MOh5Cz1xsqNWNnn965x2EfZhCJA5DSIKyHuzO7nf/43vkbnv/oU3fRnPuAbh7BdBH3M8MyJ6CjhmOrh3O9Jve3XWshW3pofoKm/gao2nzQ46lSC69dKF2KtHLVVB34RYvPIjYXRWU8unv/MU4JJCFxzbJsOHduyekSUoX3yiecQZlsF03yzGNAfjAtan1Ye2h4sS0hnzEjx3L9RWh4bAQftq92XpunPQ8/Xl6xUKFa8lH5NeZeOXnLqMuDlcy+Qi1/Q/ApsiHNlnb1IXmOnmA+tBtubv7LM5jJcJQvC0k7xf5TwKc8w54ervl7s9VFzj1aNESBodFwWLdo04c/4nDcVbQ6zNfDo3/sVeu7XH+qmp24IjBKEYOe+F2StjpV8uT4Uyni/Cb50bFhJaUi4bhEwPHNdqWU/jGSoS734bkGlp0vn5mXtso240ImAUC5ONBfzDEKho2ygAZiO/TKHkfoe+/k3Bsuh3Of3CCyzxL6BqIp9+V156gKdP/OcCUpdWQn8zCgUSh59R2OxAK6ce7E0nRF8RMo6wsSYm+vEINWSJshEFPJUu6fo4ArfUOjoMagEzTMdIB96JS8GfFCbl5qCz6DeoEZD0kBtLmo1sGsCzO/lUiemgH01z9uePvWV5YyBeZVgOLIdSjLcz2Z4+HAkwkvt2FTnXoFTfpslAWIC8ShaG1hdXCTRhXTzugUwc4z6e6S8Ybh865xtnRzXy5fsl2Va3r6yWALb1w/WB9gS1anahkzLWXgFOkUcBbzy1GbCMUykYvUFPiPqWtgLptN8/+LXX5q0/w4Vp6jTN0rmzPilvIpALp8Hv/LiBbKNHLUsw6hyboRJ/Sz3XYjkzjTEyQfQOy7C4lpJGQA33WwwlBCZW6KDTtdPlgnlgRTCc6nEuoWtDCMn1TQcecFWcxUPLY8XKhRukaMOoU+/56YpwUt5SgBtQGEXy87aUfqwgcjWmL9x4m7AMTzIZribQhAsPcGEtFe5ggedrg3V/GdLNnwWdUukS3SyU7YRH7q4RYcnQbDsOgTbyWlI4tjT+i7H3L2qypcPjoAwsPR6w0BGAlperTxb5hMUSXHMrzxziXbOXlw8/myfYVKzHrBTQcCqtMgt+trx/Jb/7Lw882u/R5ubuBJMJUgnv8Q8jJLVOz/kTeVNAlsWFJtQlKkTJ22awphh4sfWq6rjes26IU7wxDWXDlIV0ypCfe1XAG8UGRJRXwlvvOM99Pof/L4QJ9AFL4vpaP97BtYCOgvzfbb+9oPiWr4QD11pGlzvpbwpyMBVovb2WOmtlpn3FW2/bnv6ta/BKFOERkIYEz5rbTFYspIN+0r8OcCRIpC0wEJVF3bp0hMXlk0+WhcjL1XFbYp20OfSLgaBoEuB2+Olyy4+JSIZVSeHQbbBYdOdtY/FpLWbISV3NJNTjzTdyI3JqcuJ0uCSYHKWONQE0/TQzE0DVprmeCnzR6dptRQS5aqV09zTuuadwzPTCsGlJ1+YpgS3TtbA0doHEScM+zHvXwnza7MYZDDWt5+pQC+4YkjwUibgF5KgCNicdPqyDelaN4tv9atpV87t0s6Lu8u0YOvaIdYjsKQX4uP3+2Y8wwnEFJl4rZdBBzksoaDggpNyuu5OjH/l7CUaz++U/MNglqD1ABJGFQQ6WMb4ijiXlYG54u3LZ180ZkXz3WGVNMURB9krjw8LmIEbTc/hxJi+KBDLL945DiLIJJ9KMJToQAWNKeJZGkKFfIaPOLzgI2Ex3BpxlpQIEoNA3cV3sJkh5+3D81uFvVUChYdjuxY2CQfssV4+jYsM6G3A9jZlaX+CwITwHoGTVFjGNG1cMYYapb5pSK6Ra/zuxEvj0zvLsWOHXj+tFFzDyxLDoMIdaBrbqs/Na8O1f+yswBVl4v3svi+kW3RSXpm8++NzO8umHj8+jxw4A10K234cJmV68oHTKUB9v6IUnwTJ9T97Wi4981wdvMjdyHulAFfkIxHETFESMrVxirTDiRswrD/6DxBXS4vXEyW4xPyGcBxZX6IRFxTWAdLiUesYWHwPvLVD8+lQCdRf4l1wxbyrofbtvHHoDT9628as+2W4lxP2Y2HsJ9+mdLWIUNOGskSuHes4GB3Nz2OqSIVszTPCx00X+OLvW8zWwDD9to4MlL+olIXcXBzX6ZFnmOKIKm5JbVJ4u6+2fd6/ME4Mv/v87nKSaPjIjsIxza/lOWozxqX6aAH4bsqSd3s53hoX/g1HDnMUFm+lSqieowkEUwgWBxSqc24VPGE/dGVUn1pQ07OFkZiKE64SBaoySpVmfKHPrI0DBWfh4mwSceuhSgiV1U4YEqcoABunKL1djl2kOtHnfuXBadnnBXrDiffYlKCZjzP2D+9pYWAVneEM8T1NHxhECA281RAtLOpYXCmOIn2XOLExc4uQl1UBFQhjpQ1dRRAdO9Rz9RyA5fXbaVrA82/eRXh0mh8fmSyDIyXzwvCVabTNKGv80A91CEvAP/YuYwLJtFIhl6b6XxqX/ThlpyOZ4w77RYlVDytdnvD8cbWCGOpRocAcB3P+f/h/9zsiu6PlE/vLDUG1ARmsPDNHBrIeS9KCswSs2fB0nvD2NDBfK2pjZ5sWNqEkyfQikNjSwHCWFa+XtAkxzkcxPmdrwOHpqEkoo/nz0ljbrklTve4o3XTn++jQ99wQ5Nqr4eDrhTh8HCylNt3xJaF1S4Cjp3x/dW/KGIcRPzG2VFfHGk8unhltq9LbOLqG1eO5qGrQ4TAvU4Rh+vFhTtqMqN/lcSxs6Xn+wtwVWV7UGS9Odc3Po4CwFrOA4vQGLF2lsZK9WCSkL4UR2asSMDe0W33nQgXAoT/9WxJMe+CvIEGklfrQOmAwMkmknR6FwkoACo8aFxOBEXGgGVMdQS8ljSSNZjhRECqJqUubCjXhQDlu5eoEjYztpKACgEEoiU0LJE0LVrvHnm/80WlK8CNxSrBqOu+XkfbIn/HIed3HEUbk5QunXoVE674KchykHtpngkFcARiTkcdbRngODFdhL18/2i5MJFu0+BGMYSUiPWv0JW13ZnwKCgjJL1prgItdouLxdw64ZfgSTbp0PRjT1z9VIHARAL8tjhB3mRUFhPawrd+vaAHsB6Z1wvFKiNalhI6opI5zMeVaKfsSpIEFw2NgorQWktT5sXQSFkhhAS48W/tQOEi3PNZvXW64xXDk7TfSm//Ye6dlrdZBeDVhlaFW4nLzN5n1RLTGx1cVfLNN7SFgumY6CrhJ/ROGElz4Al/hNAatNCF48idJEmvlXn0BiIejEzeRaRnuxSd+IRBK9kxrlaVVM42Dj7XoK/Fq2Sy3h3/qd1AOETWIeicv5W3jgV5KriEJjj7DizFoTyOg9M6MGxhBWquiaFCAQwkZklbKVpxKeWotAkwPrRV/CvgCc0vBSanQND7lqQEKC4G2+PNezDNPCb7njnfTde98c2g9WmVtf+m19RNEJs8kT+uMt0fayw3KuF0h0+mcTEJ6UvByX8fGrYWeJSBWhzKbal8mCh0p8Jjfr0L0crz7FGL/R0sWaE2cRhVf5SUhZ2hRILVT5n0P/j5AjR88jQ/91Bcbv40CJCKTuAHDEHomgHQyS0wiAkoh5ZM0srFTgmQkMkHiDEeGc2oNVhBiKcnzbF1QEhhKWUEQhDy5bpwaKNaw6qBMT5HpIywgAsWhE+YpwbE6JdgP7yHzvxyG7VmAjYVAe8Pu8HC3js3IbAJClEkivLabGF4FA+kVuVwAMS1PMa1pP0Ucm3iKFoHGD2ALFqEhJW6mP4WDc/YB+dTNfOzA8vl2jZ8tgD/zxdPT5Tgi6Ag55t39+qEBG3k7EEPD0UFcx3JL3RUY8K/h5eYJkZtP0WESCJUk1ImCwKORQb1S1AI+5YhzM7ckYLnPpi46/5NQBwqD4CiscYgDtLwRr/Pz4TfdQG/5ydu7ewZy3v0yV1NXIuT9hpmGeu8wtBnreG8SMCvCcJMcIEEy0+VGSWli3S7pHq0EJFmSjuKwNmdGj0JS4wx3oHUsy0mFqDY3vLhlfoOnPA0CoqyYLALgd09Pz8dxhxpWF5lHkXKUo6BYIag0Ku1gSr8MuVBwISsNbtJKBqu0Z9ajcDFA1IPfMp9NXCBNmvhcJ+TNQgDb7zYnCMVYvhcy0W9PU4Ibf/Q2uuEHboLY/Yru/QWs05hqhRn3YsoiTPYpHPbCS1oN3KtTwlVMAKBwd/IAhlfm1LQxTreQlrR8+VRdHyedCqAwQGpTIYftUm+/VmGwFXhwBrolMLdiwHcFhnIi0Ln4Is4QkMfTl/RdeTd9OdUXdzKVPFWDRzYxLVL6K8hAMgag3DPV5E80y+S9k0mZQYX4FmIVBHW4XYqY6EPBEk1lpnBgAehxNliU2uP3rJQkHGY62ga3kDK5uK2Qewtzzffztwqf+se/QzvPnV8EgeXuUGBcdty/MAh1cqT7nAe13lom12r6jExF+9b0nDqnK5w4l2VHUoiAwskpArIKKJCBE/NzYmaPmxlVfRGDMbW3BHvf+jRpbyYC5Dn6ckic3hkw54XcytF9jE1ZfHfDGYXCwYyoWBD8GIdUNxYw5NNKUaDEloRTSYgpn1LieMCWRqjTWlPLSu0tEbBE2GF4D3KK4zow2o4hUEkZnFpH/WCJdjintus/fSci1MXkfYX9yNoOMjwUz15fe8/CGHUCMsZ8JPl8/uDO8/49+BwC08n+mN/z9xlf8Virp4PF5pge3hvqxjLMK+WRGRiQrPGDnUFYtKgPXR3f6l23Mwgqv+h3DYykBv/+wQhDu2xHqGcc4IFSw8Bh6KXWZ3qSye3Ymk8gzsmqbg0eoL0EfVbZct439ZwXzoRK8UfQUQSdAQzREwr+bXgibwkE4Fw8yKNkhWO2mBt8MD8KDhM4RE0DfHskkU99oG1JXaBgLLN0GARgVsYRUVi1H6VhdhAgod8ptoGpFWahbW1AxpwPG3nk7/6KHUmu6doP8bkPay0u8FAqy7QHg0aI4S6X64LRbpd+Pm4ARARx9Ud/xsvs/b7EV0ZmY3ByZldGByBShYHUHxm8IX4XscJA+tWyShcqEBwvdvolsoM9cArAIBwI4oOCq10yN+WMai3zV3GrLYPWI/JKAaBpcIug4JnkemIPs9fhnU3hSgZPKFsHyPSOhAS8rLyVM8yoZwk4CzsinISB4zw0DOu9HwVRU5cKTC2nJyQJQ/1k7WNqce0FZBpEe46eDxt56h9/kZ6/79FTNE/5NK3OZ1clCYXmR/PUMrT1a17EYS+cERwnacIJRrjvCS3q1ranxYDCwODg+OuXj9kVCBayo7bZLYFyT3amIXPLR2ZpWD0171B5subXPtXv1+CuPmczbqZH3p8237TP8A7DsHXGiNK4MBZU8zbkA+KUwIzQGZWwuUNhdbplPS/IDMAs2BTFTygOkHdowX3gWBbbtbQlTEkMeMPUTi+OkwD+nkYuUpEiF8oFmMY50QowdEBwiP7wQwzYV5T7hmL/4r3IKZHxjqfuevsdu8Lvn3KfyS3bb1ANncssTROtD8/73xs+0oekv+6193QUCIHQ0zVbNrwHIkt9QHpmuAYzn9x0B6Yv+UBo1Lyo0QtQduYHxg+WMzsMPJGfgS9R0UlxXNQ3/fydBW10NnC1rUuZI3/2S8eJtk6HnsBc0PMu+esQiHYWMpVfmTgM6ObezwacUBtDHVUj5lGJSQIXCc3prQwkoBW0RGykkwZfYyxCLXr2uXqMwpKiuZsF6sdrXCbUOK8//nI/QSvOTBF303/745+FaDp+Uo5t0Xj3hNxH6RWE7NjrLdvtp5wGdLYGiaLlqBUmG3Eg7+Zenh4eTR0+vOHq40FhOXBuw2jORApOXRRcuayngSOvRcN5jvwqpqghL8NqAUObVAmCPKNr/tz9Z1nkWOwNZOYYrKJEbZBDSipPuMkEOl+xlGxobXlQukfG6obKWD1BYIOBMAl1eskgUIasjAo7j5/hjfruac0T8RMYXWdegTp944+XQcFRhAAsM2r++mWd0dLjltKp8DkZdz9F2xfvoc998BythNtO7nx4UhufnG6P9UcaQbK9pbYWugxKfbjOfNwR95vy7w27l+ZT2z4NGZ9SRwDMZcaOTELB7kMMtCZmcWqaBq6ZhIIOgwxGzq54E3LmwyEXnmjRWn4QGAock+nIn73/5HR3oiZVgD2J3nK8lKMZK3g/AE8XxrzV9okH6AxDwdI8i7hYEy0/csPbjLAcb2ca7exIZHF3HtlgLOVHAbRwMBU1apm9woySBsW8CifcCkzA5FgGqEkZXAmmwmLrJi1r+H2Gti58bBPjY5isgeMDy8mp7PGYgmPXBoFca5yoUwFc+p2dVmPue3JaQ1C9uG4dQ9zvsQkW3jMxbRQ8HSskDCkBCQqFvEGzg3VsJEJRYwc8yflHxb+hwi4wHE+HM2ww+QsNsR+QUm6X8HkVFdIAZkMKEmrMUC0JtAnqyQFh4jUkTl/mMJM1MIhqgRIGnd6yzYWW6GJM2DJb/dvSKIeOLx0XpSRZOlOaWJV84vfaJ9kp6nSh5T1fFVYVNMJmr5f8Wef0/rmrKLK1Q4pQ87IoP5deET41z/Ppv/tjH9kv88/hzB185sETwy2TWfYJxS+Pd8/oUkzqYFu+nBVF25ytx/wAIgwpI4eEvBzKjaNYNkmwaENdumN0NUhH9CjZ1Lm57atZyLwkomPbnHVcKvZlQg5kYOrPvlxf0nUJ0siNHC5x7hqOx5RxxHkZ3QFapOM8WQAnJqROtlo+d5xJJO+ZMu+pQs5eQvR80j0iYqF5lIYFPZN35HNuqvUJ+3bM5TwulpF0b09RhIznjUmn0molkGt1zy5eE+HLRi7yIbdfe3C4tsV8CDC1EDFcGGA17wGgNcGu6b1vNY+cmSyWj9A//DdO0SsMZUqw9fGp7cf32hOgBIDz9p6ZrnlpJe2VBrkKuMHH8DLqWf0Iq1DwEejel9JH0fx3Wu+QqLgg4wje+UStF2ZvOyeLgxxA5XtCy14D6lg6+ucfmL8NdoxyKBDadrMb+JWQWRHhgPhy6JLJKgabRABBaU0tobpdzqVL9R9wzOO+BQlorw62DQ4BU3magyaTustznRp4GyGvwUV4UkVlFQb1vplIIuNXwVEGFxjdcDWdOs3zx2meP0zz/Dv2rfH3CmVKQNOUQI6vMnSKD+Y1gdzaB2P2fAGZAWIIo9XCo9Z60eXkTTgQb6qzgwW3b/GNPT+B1QFCkmI+Y2xoQ1MfJUFAnZ6oETb9YUyg2MZkgEwC4Kv3TI8fTa0kavvUmLZF0RuLlVflXDV01eaGuXrIhFM7nIs0apEmEvLY+el2KH5ZFLE5ulCrzclzojXgDpv0PkBCKMz1srYm6HzQ6jZ3J6JNL/s0LxKRvjMgVWjO/ybGHybv/qvI+Dm88+Tu3ZNU/fimPEiI3URdnaH9MlefUa9Gy+8Ver6AFo0VLqZ94iIuVMxYa5omGzg55LIsppOSsG1QjzEtvkxJeU/hyJ87/WPM4yndfFBzKurqQDBlW0saXnVSUBl8rHCHyq32UbZYrahGLdodtWvJpXO08HUNBKLCZHnnwZhc1OqwSoGHcWRyPZAXGZ5wrhgFggsPFQZQzkwFZ17PJ4RTBcUNGT/ALX9PCe9Mc/w7ztA3IUxTgjunKcEnp5qPRxqC/pO+NWAmqSqfjvmN2n+VA6xG3od1EGEHjbgH4+6HsYtMc69+ZiKFoawRHJP2J8KzsqP01XwN2oZQhpQvo2BYc+TnjgtTgDkc/QsP3jtdbifIL3UpL0Eo8HVQdUPZUD2AyrQsHJRnFSLFmlc4DrtYCglZUflA2HOWC+f1S5KAJ1JFU50eGGMHpACoQLvV0mBkbKLs+c/TCQeShMGaJcAKw30CHQvhzMjjxPh/+BR9k8M8Jdhi+vSExwl6FcLVTA2INzM7DqW+O6/x1KlnX9r/1QodAYRJRDHN2ps4PKw6JfjBwQ1XlQoIagnwoG0fKGL9WZLypTUVzMzNbMEwEJjQ8NYiT2DjU/2C3sK91WKo5oPnUfuEdaOhf/RRw6DeBv2wMxURV1ug22VdbiCerK8PisJghhWEQAGw8MDadvW2Q0eDOPW92Q6jAWJszTAfZc8r1iAXZS7Kz033Hxv/wR+85VvB/HOYVwkeOMF36CpBLwTiFlqznldCnwt5L+aXqI66zjmKTMPcv89594u/yIb8Kmh8iH3YAQdNa8jG4rlu+XV6W+jFXlSiuCrAtSUMJA71GngJaJZw7MOnj12+Iqen2GMFGvRfXYFTSWOanJzp0CRxbb/0UIm1jCqpq+lfMVGvfk10n4FV6Ei3TsMy9YC10zozoGbKXm5GZNuKVqLkHF+BmZ5BDY/OQ4L4AAuchGbmR1gzwqOM09xePjXSkcnB9/5v2Dz/asM7T145MfLWpyeZfDyb46ZRAxFQMJuvNuzXLA9alv15/7Ac31cScn8skHkfhWildolwsyWBoXFKVs7MFnLgYeoI2Wv/4umPT6kfR1XazqGYdN5NZmuo1srLfvXInMDYLuyikw2wCh1TrXifLoir5YKYZPtPJYdUk8Mdj6WsUGRkhJyYF+VH+2wNiXEEy0DS7hIsaNe0GlfXyE/t0u5k7v/IGfo2DGVKIPPuwTsxHrvhG2paQx3BpKcOMV8t3C6MVjjsXRcIwIqjMuhq/1Sg0QcGdVWKXxNVDGAMg1q40XSdchZmK+DKLp+WZWuwZgiowOMacyODUnAYLjec+aayiggqD4Ik60/WlQAX+YXLRbcW1C3IajFIdSIMVWpZ70mALUkQoH3nRSSkexukg3TyDRhMsW6hKAROTTef2PncD52i74Bw67RKwGmVAHfWeVcykMD+gqxo8AWaq45Uz/7hXY2wULP3Ze8foMicvCE9RzrX+WlJRoL6J5i3inO+WcFNVrJc95dOf0hG/rTNUYiSLKiMx6tVFPEAUjpJpuogqG3AqUAVIiJkQiRL/LoFP/ZtQclgCMJLjkYKuDjjupc+pcF9ZmgVMu5cAmZnLOd5UQjwvJ7PfNfuf/P+z9J3WMA9A2t5VB6+XKvglWzeaXBZESyrG3wyLrS/fAab9i9o1uukfo0Qify1EZ9O+4dexpf+7i2fnTJ+ntR6QR2vNZYbd/AVB5vU5GIFmPnNgk6d0pEsaHZja9wBz0vqUB19ZjnoWefuGOSyK9lhuLOP/bdYECW+DLpuaeb6f5CwP8/LdXpT66lEStY5hkO5pA1T9Y8sR7HJJ64f+ZbvROafw+wgnFav7pi002d77hPwEa8SqJVb6efe0uEqjE58Ii18sjgBc30NpggF5s+we+VUV+LBK5sYNZRlZDgKhrYBr7+98HCYMe+qBTCHIx8+fXxrl++l4hAELerlVTBk00M3C5QeqGUDFyCUgGKsx5bwVt4ilAgma21Pg56XkNss+SDbBQjCBJdUDzdaEG0ZzZcqDJbB1JbPXNmdvOqfe/8Zeo2Ed57cvWsapNk3sGJyR12GL7okNqUeSRvp9Ghotc42baX4nmlroadVcxsyXKfVdf3Cpgg3iIwOwl2Y1XxGeo60vRKu+0sPfXTK+UkQPTaWVdfD7j5DwZ+5+x4ABVPKdwjSamMF3jIMWaIEQCIRFRIpu0DFGM3mGBSA5zpdcuXJxKc8XWAKQqFmOUW884mdv//+U/QaDMuUgOTkfBuYUTpv7FGfCTYxRQ5r04N9EferHHCq2xM8+4JBtD8fAW2uJws8opbp7fVh2iNc92+f+fSU68NaJ3o0LRgmzvhJ3hszoiEgusS3zB50U5EvLwahIBGOwhURUAwGrvgAXD0XuIP4C0jaeDH2rJ3nOxnFNhUlxrdykvBTSDH/1LQzNI4fu/zf/P7P0Ws81MNG7pka/aH5+WqZYD9Bu7pL9JW4AoPQyxMG6/4HcFj38BMtT/sOiv8r8Xls8lGs9UHXB4Dh0JZ8bCp5X5nuumNd5/2B+YtLAP171YGgh4NoZCmrbwQrJy55B4EXEqOQsfKkcMRrX3Abqk8C4lXs1N2ElUa0HeR7D7WC5YXpJSfbJqKSzlaxN24Y9KA4shGvHou5gnNTV33i2itX3v/dwPxzmPwC5x64Y+vDs2Nzemz2MIDIpKtmSx+phrkY6CLPbbsaVPpxEp6lnXtXRDYxt7qOypSRGpbUPohzfo1Tq3P/faNgRpx2SExbgXZmX7Us/gDikxOrHKcVo57MXPaluMKX4OFfC1HrC6X8xXHOdkLCsuVYQmeh6ifT+CzxleOURvpYNx3NEaPlsdodJ9X6DixNDXw6ML+pd93ulbvPfRtt5Plmh/XDRkrYt1cd5rC+2kJxZUj2r3F72rDFxWl6Lxj7qXtTnm+EldTUQe2UayL6+/Zd7SwEDk1CQOb5HbXmfVWe9sL+8lfgPYJqguN83kEkTBNsgyN6LoAPOiXmx7mH6E4gSVOQ5Acwsx+mMOHdAZ/DEzdSVgWBqFl6iicH38W///2n6CAs4baTu/OUoHv+YI/498eg+wu9uXmTJ9SzGY/91KcG4WqeTl1YvicM9iskeozeS68YnLqq9gUh0OkpEZj8g0bX8wDRKajOfYChGj4J3868n5IgsS3HFfAYNQUZSKFoEdSH0bcNGzKm7V3AqdXBKkWCHSlndnflIzsHjN8NeP7g/LyJQHHr8H4YGMNeggLn5728r0QbB6tA7403Nlsq/bn/ZitkLaz1gSTJM1H9p666qSgE6gxZutt/y4TbtO7CU/DezNIR6oEQv3CMaoNgg9LyYDLt7fwQtqW5asYvEcu2BSkeI7cI6nygoCLL+wlqxYhEJOqOxHOTxPnUxV98z910EDYGnRJQtSLnsC/GdnOProYpNgkZhFR8Cv1Vim90QI29viHJ23y1AjHUBcp1EYAiH9vTCZjDxc/ccuYKyR3D7Bh00LUXF2TV2efMT4x1l/uhYiSwIYhNsS7/DCSlxlo9xRJgzRjOJ8Vn3Y9T/7NOWQYUJ5pI5AYDUfV8qnWDBDVMjH/0wou3HDD//oKeP0jwZuFeRGyWWozZWAC1fFuqbi9TytR0keiUa8phrJahvVAJ1zpL7ELEDUnrkKBNUog644Pv2zV1KVtYsWH/PoBeuP7DD31yYqbZ26sHcohJUibe93oudYYVpwDosIvvGTTBrIIR9iJIWS7UFYJixrMdJlkLxnmDmAQoLxPYDGVJOEVy5SMXf/H7z9BBeFlhnhLIfP7ghm3EOexH6/XM8Dy0c3g5Zn7Wvhsde0R7+wGEVjcvvRpBrYrwHgFU8MCJ4ZX7Hm/4yEMfmqq4e2Kv46Hj9wFZO7OY69S+W9CJM8df2DGY42BPwSyT5k0oo4R8NTNLRyzrMc7B418efnOC87GLv/iuU3QQXnGYpwTbTL80de1yCM1e8+8eg7zaTPNqBBQUBAJH9snwvdUOD111uVp+Qzg1CYA7rnoKkMMLn37HZydDej4w4rNU8UsOQttxo6Y6L1xZuN520Q/aF24w8dD2TwEhuFVAzOdQ3z8gggxsDC3lk05iNmApxCCDiPClH/1Nf89NNz9/4f/7zvcfMP+rF+YpwVdP8PtFjyRPox2P/+6vjDcCoZLPRhaRmDeXfcWB/RKmjdzN1uAQ+oHzjTT5e6Z+ztPWI/8ggH81wg3/zukPT8P08Qnqca3H3sz1Q4ZIV/ZI3wosaEtdeivmNsMJOdKRe/7WoN2rWRYbum4toCmna4PqApDyFZxzu9M8/8iLwz3nPnfLd+16/jcjHD955cQWb3+aSJeZr17LbdKoVfE0+Va3ExMFJ6HGUZoGXG3QaSTC6uHLufL9Bm0rxw+w5Pp2hW+ZBfCrKgA03PDTD31ocpDdPU1A3rEw9bxxB87wX0JfoFWN7bxY7lnn8qXcSPDKMI6tnfnha/r4SjGBWQYSBYWIR/Bndrem9fzJ6UkH4ZsS6mEjsxA4oXGBAffBfOhN37T0JnswXy99TVh043WOSZHpo3H88jXwfvZFrLeR73vwjvkjsa+yBZDDbBFM0+/ZInjHNA9nePe+ne9TWtfHo8IkfhNgaXzuTwmXKFgk3YJwEDykdNL40+0928P4qXOfOdD436qw15HkmXH20uJdGGvMQZuZYr8bkvZi9lfC/D0YaycOdQUa84cf+DH+LNE3WABoOPbTp++cWOxDkyVwZ7EE6nSAXfu6gOiNivvsbBNQZ4dxe6YgcePgG7kuB9SEcdmh+Pkp8+cO0fjZA8b/9gjvOim377L80jSYx+fn/TKM5as3m8plZt6n88zq0ZOINwkTqvnUE/9qh6uxVGpfnJk/ET+/s0H0TRIAGo793OnjNJt3u/Qhmo+Z3jCHc5PdfIMlmWtG3evv6eSngAm8uTT/6b5OfGqKP7UzMf2Bmf/tGZYpwfIZ8+FDyk5X+7Zco3mFwLnYh3M1gkCh9A4+3Q+cvQUbzFVDmTY+19nzWcwO1wfv2LoboX9LwrG7Th+jF3ZP0PbWT05YzctAt9ucXuf3taVqLthcvToFbC6gHoPaH4ubQEC4L68k0ZlJBJyaEj6/RfS5A03/nRP285WivcLVOA1fLtzMfLySZw4vZ/pxtfk6Ydb+d8zOP434lgmAHBaBcJFup93hfSPvHB94uH3qreNThx2vjvlq4nN1B4gKCtDyi0R4aJJy52iL79u9wvcNND40MfypA4b/zg66jViPJNdwtcyQBcHqvnl6ecyR/Ms+R9+n70Dz2uYd6lkwbX2h7hUhM3/b4aug/Ym+jQTAplCFwzHaKfPBECbH3cUtOndkuj33Nw9M+ddymIXAvOls2OOwkR6TmN24kq/H8HZqzoZpx8sVQFlArOVbC2sCZYOgOfPAvA27yX8QDsJ3WFjOHxyGT9I+fAGZ0WTlvvf8csPV+hBedj2092qIO0X5gw/cwc2hNAcC4CB8R4a9DhuZg8BNjyGvxixfM7X32roc61uH9XLDJp+Cp8unJsffXb30V7wV+CAchG9FKEeS8/tlVz5l20v0WvOw/taYY5/Mr7D0zpfTFc56GfwpjgWnzWwv6bqKF+9hbTCdGWm4ez35IByE7/Dwrs/LRyen2d3T7bGeRt1Ly25KRy3P4JXbaylyP5q9a1XQ3vjrm6yNky/va5i/Kp28/jkcCICD8JoI9TPmJ2mfrxf3dsjt5ZjLYV/bcan1M9ArWArM24rXcJ7jR9mdmP/QKdoI7yAchNdQ2Hj+YL32iH51nz9d/dbf/I1Eot6eAGTfDrycj/X1VeniHO6X7TG7H3ngju3P0B7hwAdwEF5T4YHZ2SXjR2bzF+OVQXGdXOOX68rW2f2v3ffLlDrBg8C55r4YyPl64qL5dqU1ZvzEfphf4R6Eg/CaC7hKsN819znfwPvfarxxfwDAvFome0VlJuG3X+YnOhAAB+E1HubPmE+c+PEeoV/Nen1m9sXMNnMCTfFOPbR5AxLRq8KI85usH/zqHXzqagodCICD8JoPt53cuVN465N7fca8caSl3YPqwNvv58R7dVBH6Kxp/DW/Qic0e/z3Gw58AAfhNR8mk/hz82fMp9tTm9bs43P99DvBZhtSs76dv3f9CtTW0d+Q1C8XVw/i0gH720Wfqq/3nqGXEQ4sgIPwXRWmKcFdxMNH5+VCXlG9vfX5fL/fkK2IHqCNewBWpilT/DmmZb7/ir45eWABHITvqvDgHVv3zNaAzIfY1n0ArnGrdsUCoMZflmOOkwe/1oe7F93Mh7pM04fIWkY+NRLf8kqZP9d5EA7Cd1Wom4c+TfPhNDXYciF/a78URNTO+6fnU9PjJ67W0bcpHAiAg/BdH955Uk7IfHalCgLdIpjC8p4+yZ7LifZMrQMRdx/u52Wiagec4leZ8TUcCICDcBBqgPMGfnJivmP7nfvbHH4Phg5l0mpCx9dwbp6mDDR+7qt7bOd9JeFAAByEg5DCJAiObdHuncRbPzmx4530KgWxP6v7BSbHHt833Xx2l+hzenDnNzIcCICDcBA2hCIM6ITQeGLg4cemKcDtL2clYMWTP1sB940yfn7W9Du0fd83g+kxHAiAg3AQriLMAmGb6PZxoPfRON7CPLyDlteQ5+kDHVvuI8NPDM3ninanSbuPz81f5Z2W3+67QnTmm83wB+EgHISDcBAOwkE4CAfhIByE7+rwvwKUpZIfL/rKigAAAABJRU5ErkJggolQTkcNChoKAAAADUlIRFIAAABAAAAAQAgGAAAAqmlx3gAAAAlwSFlzAAALEwAACxMBAJqcGAAAAAFzUkdCAK7OHOkAAAAEZ0FNQQAAsY8L/GEFAAAScUlEQVR4Ad1bTYwcx3V+r7pndpfkkrOSufzTz5CSrEPskIRhBRaCaDdAgiA+mAqQOEBiiBIgI0aAmBQS5GJgl0AuucQ0kMRGLiKBnBI44MHxJYddIz8MHCGkLMexZZE7tLlcSaS4Q3K5v9P18qrqverqnhmSdpTAdBG13VNdXfXe936ruohwj/L6MrV6AEeaBg6DtROurQfUsZB1Xp3Aefg5KDio8cvLNNUAmsmY+QZCi69gpGdBDALXAqBTAM5vAZw6OYEdeEhLBYBZlvgOC6/nQMcyfuJqjggGiGso1lUHAggQBF3WilN/8mh2Gh7CEgFg5tsjFuZygHbGDAfmGQTp5DTAXSlI32uCXrf8Fc9sZHBq9iHTBg/A7BK1TQ5zGVLbMZyL9FX1/ZUryUtOC1IACtEIvnaKHKcfJhA8AF96vziTIb7E0oeo+lBlXjsrCI75CEQJQAAFcPbPduMp+H8orT9YmGIH/QJb6hECajOVLQQnAOoS2TeZ+Pnu156ZH/Y+/ilLP8towTGaqj0DApnYPt9GEBwMPJH3AwqAu4pj9FfvHwDPmAJO/fm+D18bWicWWrAKX+SZTzBtLfI0YrBPJo7QEwnSRHy9QmRmu39z8Gx9LPzjJZa+wZdU6gqCkXsPQFJdcQwTlA6xSK5bVDGPjjW9F09PNi/Ch1R2HF+YMhm8bgy00TB3lvk1gTQPhPRTTTXMPZF/4i4dbvjV7tcOdnQ8QwYP9zGSVh4yqHVZo+RrzBcUJk5qG21+4bX3aAb+l2X09xemtn9uYY4ZmQOLbWIiXAUsHXm4QYq/HY3WaYAHgXvSQSQ7x2bTjn1OvmtJpZ1B1fmp+mcQdCpFN9WAuilY7tkjin3lvXOW8OTpn9AkWscutDbGdswwISeQxW6YMPSVGTOON57IcYqe1DAnCftIiFUa1C46NHb7aPf00a6ByAwGRqCUZoz5PKKz661q/K9EAu1L/ncUQppoHGO65373n5en4EEKM57/1oWZu43GgrW9E+TEbYM2uz9kWSSFU2snXiOMo7N4zzU3RrPwTks0w7/LmmnWWl4r8bV3baTWDWNqGqBagAlDUcUp8QdqDs5kwiSlY6oXxNm/2HOPKHFsbiqD0dfRNNrGNFja7J24GtYApwWIWZC+1wSSIRkGY6NBiPNzOHhNEIIcfBg8Ajdt3prwJpCqiYKAEYzwVJ8B9Nl50B6eUf0BJUD1qSBEBzXPEnu5YhLH/mkKC5phBqcAm8ycqwwAOuZzvs/4mnnCHBiOIecA0Qhvjk7vramcCZOZSR56LfK9ZisaEAUEiQ/QqlpAMg5o1BG1F+ahxni9BIesntmtJ4qX//IL/3LR2N4MU3bCM+EmYACAAfAagEELGBgPQvAFxk+CmfG0+mENKb/B/lOn5ea05NGyXkqGSaBv5X0EylXtOxPGkfo72QQEm4CXjqPPq23RQbZ5hrnnjz3ZPf8P77RCY8gz2MB5zoKJZkYds1YkYnXuIF1WANcFg7mZYOP8yCkKWSjRCLYgbRIViNoVE4ABTKS2j3qTSF4To5TBoCWYMiqDSJtc4xj8Z/HtZZg/+19w54P1oJ9efA1vBoDBDKIGYNACJ3LjAn0IBy4yhGggolcXVLoi1DTJa4NvCSYQmEjtNC2DbDgMXDKSMlq5Jn2q/SVNk7ld2woz/29/9wO4cvG6vJ155tUMwDHugPDMZ16dvSN0zHv9D8yj2itiaYqeYBGOMOCihgeAEinXGa/8puGMDmxT9JN3XYNNIgMlPkV/X/jHy3DxG5dFW5T5XLQgFy0IMcqDkHnRixaI/NUbBoeiRMXZXILU2t/AfKCjSomDEp3IKCZqT/0goEQFVW+qDW5FpShRregc+d/hTx+Cxw7vhrmvvum1wos2SchDBkgRXO+wguiDhnvmnUZYMQeKDJCI3jVs39so1zgkhIUwhjG5UQ8ff2PZr7CSAHmGyzFcHmDDeiQ6ypgxQgjQFpJMkvSeYnvrwDj82mufgMeP7OYBer6SVuuuRa2ySG1aOUuSe8uEUlGw1H2bR5Cfw4FPjDNMKQGuIgoDEDNDZaRMeSnG+5Lhct0Q+lF1nZAwWyRAK4BF0q4RaHRiDH7584fh458+WDLvKgjTDIR1YNgi1AiC/LaB8fiMwr3l+1He6Gsd2gb4R0vBIus27MomA3/rLsDaBtfNoEXj25kwdszjY1W7DmP0m0X9Gn0DDPYdaVQBD1AIa3fZFOZPX4C7N7e4NfgB3a0I2aFkLWiEpBi3BhSCF770UQaY/csfLlkx1UCSm+xmF2FhkeCDW0EaYW0M3uNCFqgfGwXYtY3g4B70gJS+Ii4/g3cniPFT2606BhweSqsJU3juQPjvby5A5/x1HwpDJAibdg4A8k4R5bdeE18jyD/7mf3w5K98JJDwhWulT95iif/wMsCVq7ogoACobgv5zCuAIEBDM7dw4BGCxydDTqUS65dmMA1MgEkTkMoziPiABuc0Vn2fQfj+Nzs+IhCVITEQ6EZJ97CgogjPHjsAT7wwGUHGz1+zPjNYXQP49htB3f0Cwwizch9+l1cfXGTH1PYsTO4keHKvgZFmzEX9XysOWplGDYO6XQMDtICq2kQJFyQZyxprw79+5T9h9YOtGBIDcaghEJKtAhh7pAm/8HuHYOKp8WrEepUBWF0F+I9vI6x7O6eScVV7BSETE0vAUM2wW5bztgI+/nQOoyNYs23U3aqkLbSX5pBmjgpGGcLq/kLV+t3v3ICr55fg/bdulsQkALSe2QkHnpuEvc/trswdAXhl0dL3voOwuCTvJkyWIEAVAEwAkDYfERgEu1HAY3sMPLYvExbFkSVMp3atzLliJeLfz2mm0KQ+4+Y7XX9du7kB4wd2wNijI5CN5RWG/TyigO6aO9VfvFoy1leoJADVaOt5sXc27IIaYXPu6vsFbGwQ7GcQmk2AKvIp01W1BgmLkDBFWGU0tiucWP5uPd3y110JaTZhGhLw9Hd+6W2sPEjyplgwySTDSoIiKJEi0TxsGp/oXL9VwO2VHjz7TAMaTexTPb0PIaj/uYXScQ8Lq8pY5TdUgYIB40IyXr7SrY5INFgRouAjs9g/g7xoeFvZsI1sbhbw5nc3YR9rwt59wWP22TEMAEUaCigFMrAf1MLmgD6eaRo+Tn7nttg9lBIm0SmsMUcJEESy+RB1sRzUtzsQ3H4S/1h6t8dRhk3iQA55M4nNUJN0nfABACgNBOXDOhiQgNJnPrX7HHVAgkrYUFUv2wQUP2lJlgKG6smhXFa7aOK3sLjh9u0C1lY34YmDTRgZwwpD3iZrTOoMNmE4tffIIFXfgyHj1PuopvXtCMWncRJlSHUkKDKKCKiyZKSKD9FsNBsJ6r/FmdYPf7ABk3tz+AjXYdJRxvtS5jrzA94bdsWEaUrGzlOb9/fuqVGWsQShZhZ+UKo1hJcgapXeexCM39kF9gs33uvBGpvEbjYJ5yBtQqGqPUC/wxokYYB+ZoeuRSqCDRNFExA64xuU9K5EPZJwmEYCUs6TGbDmTB0IjZCpWQZhhU1ifc3CnicaMLrdVCSaqj0MYHiQeqdbu8MYjiak2aV1GgBB4BT9gA4N0dZTQVfCo86GiePUCAFqPiH1jebQQL+Ssxv89WirgMV3NqG1J/d1mE9IzSA+r0k5BUGddMlHYNjKACg7xK7k6oE1jgNh9Mqqx5i6adGxaC7yW51muFBCaEpiKIadIzq/4Abu9aDLJrG+YuGRx3mHpol9klSNsCkiCUklvcK47gzJ/MpKRQOkf546mhRuh1JvZQ02rt+ErVt3OM3thbDBGwGju8dhZP8ErzAaJZlRTcIAUWMQBhYXevNRA71NXtuzJqyvWnj/8iZMMAiNbaZf/RNmSxNNltgRfIj+qtyqly06EVhqStEHpCp+t3MN7l5ZZOaXBxLflX47nt0PreeegkZrrIwGREOZjgwlGpdx5mjZBi2D0OO1xI3LW7BtdwbjbBJRpVOiKV0dUnWRFb8DpBoRWvo0xVVexeJjf+2/r/vvi3Z9DW5e+C5s3FguiYT7lwkGofVLh+KBItTzNKigVpe6uplZcbpMfMHOEZgoy1tZjVGEnY83feCAhHBI7Dd5XbSimitUgQOoJwWbtzcYgL/iR0x4sb4O18+/AYVbHdWILqdJc4EqE6MHJmD3r3+MtWE0PU7S93ZlpIRgf2X+C7fTyppAvcI7zLHJDEbGs6oJyCD1BU4KVAQlnQuq2rHy4+UQ8Yu763Dj/AUo1rZkD77Bvi+P+/G+hlNDvmL8VwK6vrgMS19/A9Z4ULL9AOCAe40YajLeL3CoNE3+CDqSQ8E7VHcWOY2+XkQtccT73WiRuJV23aX2bbbs65+l71nyZuR8wmZ3w6/44c6lH7EG9Po+QICAEO/1Q6UDKBynAIRyHd27vQbX/v4NWP73SxXJDwgE5XPqV2d06wgHxCjPmRtYvVHA8pVN9hPkmVGGolPzMa7UCn2mzCrD6gjd+2tLK17j8mJ1A9aufRCYhP4QpDE12DUpS97AUGb1W87yJcDtC3TPX4b1q8sw+Rsfg3znaMXr3sunECRRw60j5DOXNTw+m8XK4hY0Jzh73GFK9U+dWhIZgmmV+UhKw9Yt5vm9VTYxFmDrtat0Z+GaMFsuUipkiUdRj4rCtILh7kNbUYqCa75zDB6d/ihsf3oyhRPuW2pIWd6atj2el3XY7T82d2XQmMgi93XnV7F9gEqk7jHzqyx9Dy5rF2575W3a7N5JCExdVUITEehqnvSsSkX/rIAiBhg/qXCUeJ43Iz/1FNyT50HRIaXEBiDIGbKrLJDRyYZ3T6oFTitMDYhwIU/S5vV16N1c85/bHfPGAdD87Fvk4iFIFlidOD0YRQnipZRDVmi96pMc3fLfiUQbEANYI5w8TX7mMDR2jcGDlGHm4oYNn7qCV0NeWmdc3U6UHpTQ973qr/N3pDX+GnR7i7WnCILMAgD+2vzttwgAE5uv+YEko6hYEiWqLy6aovQDACkQg02iPxTWmcdktzj2B9EGq2CEMGAkUPn3izB1maCFPn6F6j/wmJCSN3/ne+EsScUDQWnvcaEjW5dUakNgUNutmEYCAljxC0KNANj61CF45PnhJpGCEWkZlJRpWOPqAEG5V3r1GwSqYOXEV9jlDgDk/FGhw7XtkaP+JWy4kKx2SQ5dkaRZGKIByWYaiQ9BOVUYF1IgeXoAwUeJHy/P7/vsJ9vgz/dWE6t6Kl3/HbXVn55Bf2TOnxp1DwrduwiSz0SQJAiG7xx61tAftsovghy1Mv7ERTh+Eg4iZRTa5OOjXMvDCfJRIB7VCkdY9Jtd6Bt+yzFMh0mHgXhx7avPTbOwppnYs2mmVteEQaXiqklIYGlmLn/w1XgV93bu7vMsOj0w6QkSx4XBbxmDCmfJfBZOHgkQjjEK5/Sy8rhaOJoizMvJLRBA5PMRydcTwqzL/U6BWT0K3/jNc474zjR2Lk1nxxmEU+lGKQmb91tUpdqh+w0OCBQQvJfne9+WieRdfpGVIGDr+EJrc4sWuGVXOSeWdHiUbZmCqz/wpmZR441GBv9NnkrnJ9/lz1gYOQnnjnaHMdKeo7Y7SYpiEkpAikH6+15JFSUcxHzAlmHWFWMSTrd/buEEP/2yYBkO2GpMpGD5gUmoRgXPt3eG/jSGgBUiQkjC5zmFO9U798l5eIDiQOC9olmm5aW0PV2Y1aNCynDdecbn0j4oDYvdx4//aI4ZmZIJSbHQo6bhHC7EpWgSGZBkrylI33fqcNA9ufn1XzwHP0U5NFfM8uQzRrfWID0yMZhB/2yISgxKsrQtLlwzKF7kHxdNOHDlPow6D0DhCuEonqvenpxvw1AxHFv1nYzpGkOntm1tHP1pmXfl8nQ2yxnGQWa7k25/qJRTxpTxe/mL6CdqbSzZi32v7Xzlygw/mtEvzBTONMXIEuwJSXMLcQasBcVXRlbvzHbvYec/aRlmEmm5p2YA1BbtmtyB5BV4ZiBu7Bjb0MAZZm2KO7Rj/mf9WTx02ZfPDizvjiGdhR6cW/nbg/Pwf1SenitOUPRR/eWBHOKAglRM3zfQtF5dOMIjtPn2sHvH+TpenXZ4dXrx7pmDH9p/hblfqUeJYamzPnOl/jz1BXx38fIUHn2ASPuzUxiEFpvEaTWJYWGxbhbpb4ki3YLwqMtDHioAtNzPJLREyVevzHxvujMd/iPXQwmAK8EkaM75KPebEi4HmYbcz7PkX3aS13EeWgC0PDXXO877+l9kRo4M74XzzOmZSy/g2b4n8HNSQsgsjnBsD0AYs8zh6hZvrp9jiQ8Nzf8Dy865TjW/0qwAAAAASUVORK5CYIKJUE5HDQoaCgAAAA1JSERSAAAAMAAAADAIBgAAAFcC+YcAAAAJcEhZcwAACxMAAAsTAQCanBgAAAABc1JHQgCuzhzpAAAABGdBTUEAALGPC/xhBQAACgFJREFUeAHtWW2IXFcZft9z7szONslm9iObr9bM5osWKUml0goKO1JRqpYIEQR/JBUR6R/TCAr+yRZ/+EdI+qtCwUT0R/9Z6heoZDcIqVB1U2tNTNLdIUmTzabZmWx2d77uPa/v+bpz78xsZqtIA+bAu2fOueee8z7v97kL8KA9aP/fDXsteKVMhRxE40JgQSmACMS5bw7i63CftFUBHC/TfiQ4nkUaz/CqgOeIqcl/QoBSHfDU0UF8CT7i1hXAD2+GB4JAnuwDyhvmmaR7pviVJhE0GEiTgdQEFicGsQQfUesA8P0bbDIBTTPj+T4neQ1AuJVKa8ARA9AaKdUQJ340gj+D/7Dlj8zmoQb7efdxHu4QRHeUwlk+9Uzl1bFz8GEAfO9mdCqLeEhL3hKy9MkA0IvZDSBKgDCa0IR44sej+CJ8yDbwjdljQqojKCCvx+T+YMwZThHi85WfjJVgLQC+O6dmWeKFrAMgHQjkXT0ArYXIaSAJgp+XFGHxxNbeJpX72qXxTF9wkiVTEJL3lqo7Q7ZVSEXFyqt7O7Qh2ieYj0IETqqO6srafF215tiRY00oig8uCEHTR+eiI7BKCw68Nd731X9O8smTkaICKSBS/LZiVgiJKMkMeoXkQcjT+cPT+Z4AdPN23kzae0LizcQzDValJIB8CB4/Okcnj8xS68ADv8yL5yZPAdKkonCcwhAo0twzl7yBiph5HSGMrl1DiwDtvoOQzX9nTQB0a2kBjfQbTvqNdgDmBHuoJTICYNYOU46mP/eb+f3iuT8cQ7Vult84pFQTiEmpkJlmCiP+rZgIVST4mTDa4F5jA60dBmf7Jh5o5zPoxrxHrQwIa/vGifmBVrFn1kte692rns90EkQNorDnEyPT8888Au/88Yq2FZ5vcC8tk4hmDz0WUpKQgFoJiEYR6EwIvUb49X09AcQqa5uLCGLVklukknOePBBF8dxTB/dCfvt6+NuvZmDpdo2f8bFoAej1wghDi1sYSSEKQhO3Cf3mRkgKoCeAboC8JxnpUovRhKRbjBsbpnjeA9719DYY3TsEp195G8rXVsw6bRoorCaRtaCZRDYVDgQGDLlwSu7A9ZszuNLGn+jONBqJ+3AZuqgT9+Ad2GblyDmznSP3jptnXvz6/qF+ePYHT8Hjz+7gQxqGSJNiitg3otBQxA4eNpvGR/Rv4yvsMzs+PdBbA6ETt7fxag3g9iL3+jyGO7SBY9p6rwVq04b7TS0f8fpomRfCY1/cCUN7BuGtn1+E5YWGlrixdBOGtEqY0AUGY88GfACbn9zYAaAjb7xwQ5lYXK0hnDtPUL7LiwJLpiBi6s8BbN5IUNgiDHvtDBrmNTh3eGyG7rjI2ePS7Sr89RcX4PalJXOAYOKcz/wLs9aA4H36h7PwyRd2Q99QFn63A/GeAL51XdH8PMLf37UmoAshDMgw7oFgYOUqKYR9uyXkssIwbMOp8wcdYZLajH2kBdLTlT/fgIu/vQLVhaaTvnCsIXxsfAvs/Px2kP22nPx9oQeAr18mevMsh08+scUwk37faSHWhi722DYfHhGwaVjEDpyKRjFhepyIZOAALlyuwOL7y9BciaBvOAebHh+CTH+Qeuf0WBpAhw9cusjMN62U0emf3A6tgNyCH4oAZm5EsFSN4OHtVkqqTcqewSQAM6fSYXhgd95Qco0pVSB2hY7WAWDhA5+6fTDENMfORIQf6oIvJ+HmnQgWKk3YsycDQdZJm6ATRCJ/+GTpQVMXkMk91gSgXnXmAhgnAC95E6fJaibWigMRMIiogXD+QgNGN0sY3hTEecMzpaDFhVoFHDiJJzWzGvNdAfiXNNPoBkTJsefA+FvKiwQ7c8Rbzs1FUG+EMLJFmno8WYZjl2TYbmbJhNu+picAooS9mTqoFQvjZ455P042ySCEFFApN+Eum9W2XVljUnEkamca0uZECQ3F/HjQRL0BOIuIR176XitddZtEoccMTj6UgagWwVU2qY1bJWwYCVJMx1tQWgMIHoStavWZUQJETwDJiKPqTWgu3YXq9Xkue0PzvG90Azw0NgqZwVx8sk84XgLoeh27IzahylwIjRrButEAZAZTYdZqhDokDwlwxl+6FHJdAXi7r98qw8L0P6C5XI0FrDdbvsyR6uy/YN2j22Do6V0Q5HOJ+Nq2l3buPk5yIgMrd0KoLzUgX8iCyCSilOOcEiYTA6E0kKgW9gagFy/PXIXKuxetNFHGDzBhPysXrkP9ehm2HnzSaqNtD59uTMhlhlFmWKMRlw0NeGiEs/ewjH0oLsvbGKaUSfFNYrHezm5nNRqt1ODO+RI7aR8z4Qj6eCf9O8t9xqRiDSdcrMHVn/4JymdnoF3y7b+10+t8ITizVssKFq81OewShMoxrGxis0SJ3lKTpV+dX4GeGrj73nXDNPj7hLMp9GWmDYjaxXTRrSFD+c0ZaNxahOHioyAHci2T09IXaf/QUUqxX0R8R737fgg51obMiTjqtZyaWpUt351XSlwSk+gNIFxusLQyzu2TYnXlrgOBqEXH91kyNwH2jQ+gPv8X2PSFj0PukUEbzdDbeCubmyDFAIROfKGA2i3+2tqvIDMgTQKldjPiEqV6Y9lcQWWf7ADQUcxlDr5DGNuALx1au2rJg/0W4kIDF8dclQKT6fn54Kd2Mu1qKfBeTYdJ1gaxLWnr5BLXzmsTWuH5KLLnc4mNGQFXv9R/72IOZVBhl8snAaCPFuiM1fX8sQmsG5lrv0t6oTGp6rUybPnyExXsl/lV+I5LEcmRipi5qKnMZw9tMj5tYyYDUuobpg4EneLoMCq+VJwTki8XCUIpXa/HGRYG/0b72/TC9laE2vxkqXrldpFywRN87OvdEhDGf9xY2JCrzUTmeH8myEojdZA2uwuxBh9g3s7wG+NGzEiYLCvslwYy32iECapW+npsSguFFf7zMr3xzIR+pfRrs+VXdk5GPMZj0E0NCOlkLqzjm3s9pdd1s8cOSNkgOMGfNEr6G43ZiJFLLwEnBf6GY7ViFtnffIt6eQAyY+qNz0y07zlTlBN8uR9jiZSS8748wBRDLsmh1Yoh6fouALr6WO7wbIGNYpJfKsQxxBdiZGK1UYOK2DMoOsNB8fnaa4+VoEcrTFKBL5oTrK9DkHDwZOIDV5Zg+7xtlffGxSCkAHdptVNjJc6TRd7llECq8Hcm0CScJLTQWeJTINVn66/tLa6Fed1KRSzNFuVhdtnUZ/hk1k5VbB3i7fzXVs8op1v+27PjEEUFnbcivgxzsJjSIOG/aFobbKGTLO9CqvS4B1PaDLUQknNrAvC/agwiL9mkmPuOr86pClePiV68XJQnOtbBfdB2TfKXbIRjXhuQSoA4FVH4UqmYmer27n0BwLfdk81xJYJ9HCUGpRBlzpVvXy7iFDxoD9qDtmr7N2yzp9aSpw4VAAAAAElFTkSuQmCCiVBORw0KGgoAAAANSUhEUgAAACgAAAAoCAYAAACM/rhtAAAACXBIWXMAAAsTAAALEwEAmpwYAAAAAXNSR0IArs4c6QAAAARnQU1BAACxjwv8YQUAAAkuSURBVHgBxVhNbFxXFf7Ove+NZ5ImmTFx7YRETOK0gKqqjaiqthtsiUUXoKZSYYGQkiKE+FmQFAmWcZBYgCqabiiIRYPoig0RKrAB7AgBFT9p0gJpSBq7KdSpG9vjOPHY4/fu6bk/72fGk0btIr3y9bz73n33fvf7zjn33EfoKc8tcrOKdEyBmkbaKdSZrzToJD6kQtnFDxc791c4fqZCPBbL3UjusdRE/q0DM2ugE0816Bhuc3EAJ95ODgxE6vkKUK8oQizQtDxhAWekS0cu1gPQVUXjEw2awW0q9N1ZbtZivByB6xUBFRMJewzB6dAbzln0IBkzHaKJ72+nn+MDlvrh6TpWk/sBNSbNjynmJWP0tIx+qvWzu890AfzO2+mJCtHB2IHz0kby6wA6Bq0dSpXrDucgsU50/Ok76QjeZ9n65emjOuLDMnhdhGHhg0pwrGinQPRk6yd7Ztydb1/h6VhxM0YAKFXDA7RGaO3QgrQsWqCdjFF2I87ETOM/2HFryatfujAW6+h50tQkoYy0oQwZZ/BcQ2ghXmKTjls26cgVw9be4sCcDgA1eYQcWLR13YEk+WXHqOtBaMm6j/1oRB/vByw68PcxHW8+SlE8prSGjpR9kVUk5JFxgwQu/K8d1yNvce3aHnpKANqHOgB08sJ3UuFF5kLmJLCJ0qr94HTCtHHk+B5quQcHflVXpn6c9OaDSlehdAwVSVWalV29EpDKgmTLmJ1PrsiN7K4N7P3v5QBtUei2P78SWa5lLLCYcjdD2QLgn8+cO3318T/89OxjcuuwPKyT2gQHUFVAAlJHEUhJlBWplA6iqh65OSzdkJe4THHGigoNTznBLoNR2AsH+yzXbOw///ICzv7+Dd+iioCrCagBxyKpCFZqpZUHGibzXAQUHMaXEBLlUhHlVGQBOgNuOwaGCtb6AEOw1wc/fxfquzbj9IuXcH1+VYaVaVg0NeQAGLdAUVBZaZVILtC8QbO7CgClI0e5jweGMnYsukzOXjCG3wuoHZ+x96GdGLp7EH987gwW/te2crln+VwCWLFYvthhypZB5cAVPDG2DksAPHzFT5dJVp7YOJyFvF2gCjU8qJIJ9C7krDD56m8ui9QD8o6VWSppV6G81JmKlIU3Ge/eLwwj6mVpZY0wv8Rod5wqGNwiln5HWAD1LIQLxjKJ2UnIbmEpezu557Oj2C5s/u0X57Ey33Ed2QEUhylJ7+gLJNcaEUY+tQ30jVljwWJlFXjlHGFhWQYXkyEXFP11VRY+vI3RHFE5GEa3o/Sym7NYWoy1x3++cB7zF5btBA6gix2kPDj48FFrVPDAN/ehOiie/9W3DM/NEV75t3WMDBxcYCxfswvmCe4bjTBQ8ayZzMMz0CE8mBATTMnp/JWzf7z50izO/+6ysLluncSBzADu/vQwRh/9KKJa5Ef54kXDL/2VkBgusVaw54AGsHaB2qTYNUQYGlQuUOb2yRlbFABx7hQc7NFiKDvY/IUWrv3/BtZXUlQ/UsXQvYPQAVg2Jj34W+bZWQsiAIs8IERcsOjaQQ35SVZTkRzYtUsHGamvxL3Sl/f2rv5dNt3djhauoojcQRq7dhV+s95UWrmlf+5aioX/rGPfaIx4INhb2eF67DC7Rglgb7jqvWdLtLYS2HGDug3RhxbpGbw/uL1fgnM0K3VVIVkDXvtvB8PDEQaH9M2dBkUUyB6aHsb6vlNA863g7HlvDsx5XnOCXYyyRQ8oGNm6ZmdTtNcYQyPap0M3m9zcRPoyy1wsyJQB5hKEkanfcjImy/u0pE/RJoWlxXVcX0qxc7QCXaHuyfrUDYso2QBnD2x27yYpAbJthd6IjNxOg2Xmcnsq5W9TjHQtxeXXOmjs0NiyPdoAynBxjCiDzCZhLtrZdtclsemsY315Ge235mCSxN0eGNqCTXvvRFSvuqRBKZRz9LzYcBZVNRLJTBauJFhtM7aIbaqYuhyAcgm5i+UyGabUpl0/FtcQmJ3FRSyc/heSlfaGyW3fLZ/YifpDo4gFqA07uV329rUTSipkhE2lDLY1RfI47NVcpG65yaDbRrMxbEnXEtBuAbj8xmUsnbtQoM4dwdcMTLS1hh1PPODYpH7oykANnOTcSbFpu5ZArHvkK1hFz32Pn7E2vwIaebrN7/zpH11xKuvFWVjl7Gzne9Uf3ovBR0b7s1jYd2DTIJXAHtUkARgSySPaADTPyEOIs+QYWdjy6wugO77+Ordnr5ZcEwVzWdbIJqSZwgj75H/zviEMjn0c8baak42Z0QerL/JK2vHvWSZtDC3372XR2vqNSy0YSbWidKUjNlUJJypyWS7n1ut6w56+OLBIZEEmuH7xKtbmrmPo0XtQ291Av5Kza718QCROFdrvpLLfGlS2ap+EdMkqM7RTdGZvuL66IilZ5YlXPbFFxp/bIAeAGYv22jOYWO0cUPus8cheNB4eLZjrjZUlO3DDiOxGqtv/4+A0MiyvyvhJ6ueVcKFiibFiFC1FVHcxLhstBEcKjmIsi27k1KXuNlJy2Hcs0MW/XEL7zUWMfG5/S9V0vQxogzNJOHLMyKHJpGKfsgNJzu9kdUTFsRvWHarEXuWYGp2R6k9akf8l+Tah7EnGnsCk6vBLrsoA9tem7iF9lxdm2pfnx7ka7RcIJ7uZpA2yu4zbKmwZErCqKuMNyDxSKbbMabdD2aNAJEhP2Y84ZR/xmYtNxY0/fblcX3n2lGUyO9VTi1PzLP/6MxP2jZkX3RCP751MJwTY0SJcFVlCl+dTyDXhz8jM1BWDbPCn+qHpesfQy7IBNDNo9uxiwr7jqDfeHuV7SWGLSedZ+RQygZP7W+hTmpPcVMSTMmUTtyhdNovu0OWuq4emm/LZbVI6NfP1us8Q7E3PgnPYUjLGTNFa+uTqyU/O3GpiC1JcYEJs/OAGUGUAfYCG0sqbwmTTaCfLY9K14V/wQdX6hrA4lXJybPWFu6bwPotIflgkf6YfyPfekOhE3+f1r02PoZM2fUtDvH9q9YT/XvdBi5ccIjk30QOwDLR8LQf6PYTbWARkXYvkouO30AcQUCR0YlZHLo3r47cVYFZGJ5ND8knraOZAZdsTgFPigccujsdTvv0hln2TPGYU7pMDUEMC7aIyydkMWFbeBVqTJPIbhL9qAAAAAElFTkSuQmCCiVBORw0KGgoAAAANSUhEUgAAACEAAAAgCAYAAACcuBHKAAAACXBIWXMAAAsTAAALEwEAmpwYAAAAAXNSR0IArs4c6QAAAARnQU1BAACxjwv8YQUAAAZESURBVHgB7Vc9bBxFFP7e7O79JNg+xz9JwCFnlIAiEmRQ+BEF+JBoI4MipSOJREPluKMCu6VALtPFQhQUKQwVCIQdiYIikBCRKCJxfLFjJ/FP7PjOvp/dneHN7O7dnu8ISAQKxEjPsze7M+973/fmzRj4vwWNWg2eW1MZCQzZkFkpxFpZ4ssPOimPfwvEJ6tqOElqNEnIOPxWKqDMVlU0XhAYG+2kdTzm1gDio1X1cUKq0ZQAEvzG5jH2DxcaBFDykVc+5Ub3/jVWMmdmM1bZH/JBWUjmVmB6/ezB6UeC+PC+nGUAWQ1As2CF4z4DqKgAiGbFU2rk0z3W+B86PzWbkQLDZKlhgsqwc4o5yisSufWz/fkmEGfuqqxFalYDCEAQ+HcNhMd9RWpWiCXS4zTBUo2Nb2PFOXFt2LESo2RbGcshJSxJxOvwFMVTDRievQYSL0VARHwBvXQ1jLrMsyq1fAgBKA1Ime/47ylefIrBD5rJQ98OiqELs8otj/u+l1G+hPQVSZ+5kOyaoTAGBqMRUaesYjjy2wTC5IB2zk5LUjunGhAZ+04aQMh6UFNvnb9ziaSaUr6bVbIC39PmQro+JFPoe8yeKxT3ClKQ9IROkcHIrx0HEWkTOdMyKE09kelVDSgvCkOx+fbA608OZPa14buzv6C4WuHPeXN7AfGK0ZLFSSEsvQxJs6QiJy0yLZkwUarAojzwjETKsFOtWfg7ZE1be18b3h45imde62YZSmwVBlLlns3zmIkq+cyM73qkf7ftrcffAEI70Ntxiz3nl4Dr88AM98VKMO6qWK9Nxp7ZkrtSePm95zFwPMsMbDGAciCNW4bnalCBVIk2hYPHutEkRzkUe3aOcHNOM8A0Jhglb5Xr9xSe6pLY3ysgRJgTweehfIFcMmQyO7gPPS9044fxKyitlVhOm6WwTIKmdyVw5GQfHO5bgrh9g3ArH4yS3qc6D9j0vlrcEFh+6ONQViCh30V5EQOgx6KkTXSm8cbYq7h/ZQWFO5twOcs7D3ag40A77LRtGG0CodvCfBAJoR6m3lZmUOcHJ9el33z09QK9PZZhQCqEgOq7y+RV+LzrSDcyh7tDxoKmpZOqBYivJ7nQcIkkJ5gdxMg9z6RoRZbCTltYXJUoljz07LYNK1KhGQTVHckYqMhkKyZSbH7sxfaw4vVdJAQ2WOrNGRd79jtIpKkheqXqjiMG9G4TIbCg4LYA0ei4bgox6AK1Q0A4QtcdzM146OgidDAr8SijGkKxZz8MX0oF1YoJnZhO9Lz0AOV7S3A3S7Db00j3dWLns71GFhOECPKELIK908bGmo+tQhWZpx3weREAkYGkUPXaEwVqqq0rW8vh6ZPl4lVs3rnbMKtwdQ6Jn9qw+9gAnM4UKEa7ZsbeYcGvEB7kXaS7LCTbg/KjVKNFY7pVN6o1ELViVWYqCjfmUFpYY+3YERsoCVMseJ9XV4q4e/4iCr8uBqUcaDifrSSXZsdBcYmT9r4Plwuex0nmhb1vnhX3yvTFxUIzE7ptzT9gWOkauuC80LzqlPXgFzwsf3MN1eUCunLP1aKKwHA9grODawCffu68i1SPrfEHuyRkQ+dDeaHIc5xmEOsXLvMEG8LS1S3Idr0/yRQsvwaEDwE8/HkBmzeXsffEUTjtKTQ0zhcrocuqQHmFA7CVAacXlDoPtnwoz4KVTjTLgVSKASRg2UnTC1s/c2855jdZCSMNiaQxr+Bi4bMf16srm5MNIMLTVieOlkjocl3lWsJbWvdgyZwnUlxvki1y4otDeWE7l4Vmw9aOraC3E3w7MhaAESEQ2GO+97B//njbO1yZTrPXfIih8c6owTAzVsqumeCqKCxqnROCaEQJ8T0JrncquGGyhqSkYEV4iHR5pmlOttP46pV8NG8mRxPZKTXN86f4tpVtwBBcqnjxoFpFrlmk9WY5uBU/758WQr7LJOQF542wFEtChhW+M07zSZhzzx/OYfLFPLa1fI7ytwapn5N5TClsU0hh+xjn2u0YWa1b5v0bgxxC1nf1HcKaLk/Ub8d/1g5MuYOK7HPsOht3EK/WfP3s18AfCeLvNpYny+fsKAdychuCdd51IzM5eyL69h8DUQdTHRDCeZOTq5OFzfNGn2QGHvt/cf+N9ju+oV0cPp8FGAAAAABJRU5ErkJggolQTkcNChoKAAAADUlIRFIAAAAYAAAAGAgGAAAA4Hc9+AAAAAlwSFlzAAALEwAACxMBAJqcGAAAAAFzUkdCAK7OHOkAAAAEZ0FNQQAAsY8L/GEFAAADz0lEQVR4Ad1Uy28bRRj/zWMfjgmJbR6JEMImBRVxwDkgXpf4zIFI/AEEuCAOtIgbF2xxRapbLqgX4B9A5QBC4mBunFDLq6qEqN0gosRAvQ1+7Nq7M3wzu+umOAihnuhIn2Z25pvf73v8ZoH/+2BHP84M9GoR2PagqiPwS6+X2AXc5pgTNPvTelHIzhJnqy40phoYafTGnDWaJdb7N6DV17rV4INa7x8J3u6riwWGOhkkWUJ7oQLGRBQp/eZ7a6K9ALrTrWqhzjCBLfpcoWs3NHg7OF9rLRC8ta+0R18+BwTNmoBNFiFZrK3rR0qj1V6nbLY7q64sn5JesSlcCS4VONNzNLrbCs5vNM2a5wQGw4ANKeohhT9SbA5uyBT0Dlmn/v6VNldxN4knzXgWIZ7GUDGDUpwsmxPxRo4rjxKYMaPFzEahoRlDYmb6TpT1qT754qOnOEV98bNdchTpXeVASAHGuXXSSpVy3HkGKot2Qug3wjT6kDYjzciQGbNle/z5Dbzw7tNYWk2QzMZIpiFmUYRZaDKa4v4nCljowau7Sn9/meHgUIN5gLMEPHCPxoP3kkuWiXFXWTDGokmMy59fQ/erA3JxKAOB0om7UX+lhi9PSnYLwVNfaL3fp4VPabl0m0g4mVAJTtY4HJdZUI18hiUzahv/EWJ8PYJf9uCVfXveqTF2Sw/2fiE2AmZUBp3VzgSdUG1/7CqsVTRWyiIF1im4ynx4yUexlAJHKt1faPJ8V+usUURolEeBaMmx95vC4ShGZU1YHeel0plAzDrJ1HI8gT2khu4PEEdj+OvLcNeWrZqsGlyOEXV69PMMlYcccCclQS5jo7b5+hiCeBTi9843NE+Qi/aux9ZRfm4DcsVPFWFeIHfQ7yYorFC7TMky0CxxG34cxYsEwXdXkYT0Kvmy9dKIMbzSR/hrgErjERRP3Idcd7IgENE/ZDqO4VfSkplMbckSjfHe+JgM6PlKWUyjoAYoUg/TMZJhhINPf0Dp2SpKzzw8v8hIhUw7mFynynP6VRBSMlVI/pxRDDcrP39o3C0EZJCOT1Uo0Mss0KUCaXvJ2uDr3d7eJ9+eJuhelohVARecJoFkQlnMOLjvQRQLiwRSyJaQEsJ1IK25dNkzFnDmtTQvbU7ObZ6lCmxSPc7iyGDmB0kiEJ6ANObwm2dHHZdfvvYSY+o0SbOexGwQJ/E5f3jYDi5sBvjb2OjoHc30OwRQtVW1kk7PaNm7usVrCwT/dVQ7uiqY/pCWW/keEQUCceOnhnvptgnyQdlsk4bqJMGBUvi412AB7pjxF5QWzuk3BTYMAAAAAElFTkSuQmCCiVBORw0KGgoAAAANSUhEUgAAABQAAAAUCAYAAACNiR0NAAAACXBIWXMAAAsTAAALEwEAmpwYAAAAAXNSR0IArs4c6QAAAARnQU1BAACxjwv8YQUAAALTSURBVHgBzZRLaxNRFMf/5z4mk8Q2U5Ug+CBRETeC4sJl69qFfgP9BqYuXNeVG9HqSnxg/QCCICiIoC4EF4rgE5TaIPVRTWXaNDY1M/d4ZqaNTbPRXQ+5nLk35/zuuf97ZoD1brR6cqnBJwY8DC913NyiUuOjQ1THf1oXOPaDL2xQXMsrgmPGAqM+zzR2djPdXJsU1KYCtHAcFA1BmYnwcrXeBzw947ioAI+yxTYDrRiIFY2fL9NoGnTsRVDwCydN3qspyyUQk/xkez4VXtk13gM89c2xFm9VNo84G06exdVvnXs+8eXDQk3bjYH1i9DWsDZMAoWLKZy/Xh3qAY4KEFkyOAXJ0WWWrMbL68/ufMTLezMCG4TSHpQ1EqXY+qDwajVlmRVgRzIaIWFWxPMLwGBBfI4QCz2pMpb/9x7ZCbsxj7d3v6E91xEJLRQRbR8uI7y6RsPDj5knpxkqD6gCwfMd9mwF8r5KK02AnFYNLMy28enpDBZ/RthyqIxg9wAeVIh6gNuvMScwykuaj3Qk591cciiXTXbsZU1XKnZZSOqf7KTeI2fiJRHUzSRDaDQVwvkI5W1aNKMukFegSeXMXUwPMHw1iag5DxPkUTq4A3ZTHiR9GUPj67RDsSRtFWg4oTAv77vs+4Dh6ym06l8y8nSI5vuv2DSyB6V9W7MKtEIzZNh2BK+kIB0Idll1S41f/cD25ya0F6TbORdJE/5G4/4HLAk8ASvfyEtBiDoanRkH7UuV0oPxokM097dE1X3IFUOTK4pOBekz8WYDlBrAwrvZ+ve7b2qiaD29RZFYGbn5jkLckiojBVsq9gONsWPaaljfysjBeH5IJnfG0eCB1qUDFydHqCov2ZmV+BTsKRhfp5V317HKghNTFdh4JI41tMPtcKIaYo1VHnZGNJkbok0lSWekt3Lx42Fd6wP+q1UeckUpHBUJ9wvh0eRw/xdp/dof/tM4nmQtPzAAAAAASUVORK5CYIKJUE5HDQoaCgAAAA1JSERSAAAAEAAAABAIBgAAAB/z/2EAAAAJcEhZcwAACxMAAAsTAQCanBgAAAABc1JHQgCuzhzpAAAABGdBTUEAALGPC/xhBQAAAlJJREFUeAGlk79rFEEUx7/zY+/3mT0J6MWIe7EQsfBEO4UkWPgfWNgkVlaSgL2QSiyE2NmI+g9I7MWIEFREQiCVRlwxKUJibmO8n7szz7e7d14dM+wMMzvzPu/73rwBjthEPDxokFeydr6o5MUmYeluRTw+FOD+jl0tS9QzvApJ4Lchv2vE9MOq8AcH3dnvHrJ2TkDUBci3Qi4ET2q+jjfbVtSJCDHA8LpD8EJJq/e2af7RnaVXEmNzvTCa10q7UlHqlsjjcToBRGzM0tHmDctzw3P+3B7o+eStK8HHl74bdltsU4ByNAkpBFkxGdsmAMunuxGw3wKKBXag0n+WXZ25esqtnDuO14vr6OwbmDAnhJI4caEk/gxycP0d0cYWQRaBXBkYH7UYragEEodkEhiw8WYL2+v7KI+X4d0Yw/J5LRJA7QWRdVKAyHNnXZWiRbWqEmPTVzkA2T50ZUKINAc9QPKMeEfwBiSw15IIvkQ4eVpBcHb7eUlD6/d/OYiaHTTer4NMiNx4BZVrE1B5B6QVtn4aFI4JZF3JSUydJGpCOwTsff6K6MDEV4ODxjZa/i6qNy/DGcmxMoX2AaHbsdAljlilkN5uJwHIeKCuhsqMQGZcNnBhmw42n35A8MkPkmpTXDpWotfg29qxaG+GMF09BDjZ/FsnmyMnWyCdLTKkFEDmF36trNXY8jYr9gegWJEuZqALmWEpc5m61pEzHFzdGvqhg2AxWLoUDMrYWyaPbZ+x1qnhK4D/bUrWBA7Rzi5HsxByhst+zUIu+tPDt/Lf7S+piwqg1CTEnAAAAABJRU5ErkJggg==;" vertex="1" parent="1">
          <mxGeometry x="236" y="130" width="108" height="108" as="geometry" />
        </mxCell>
        <mxCell id="ZyMM9qRGssIg45qCTCB3-8" value="&lt;font face=&quot;Verdana&quot; style=&quot;font-size: 15px; color: light-dark(rgb(0, 0, 0), rgb(245, 245, 245));&quot;&gt;&lt;b style=&quot;&quot;&gt;Microsoft Intune&lt;/b&gt;&lt;/font&gt;" style="text;html=1;align=center;verticalAlign=middle;whiteSpace=wrap;rounded=0;" vertex="1" parent="1">
          <mxGeometry x="210" y="240" width="160" height="30" as="geometry" />
        </mxCell>
        <mxCell id="ZyMM9qRGssIg45qCTCB3-9" value="" style="shape=image;verticalLabelPosition=bottom;labelBackgroundColor=default;verticalAlign=top;aspect=fixed;imageAspect=0;image=data:image/webp,UklGRsYhAABXRUJQVlA4WAoAAAAYAAAA/wEAxgEAQUxQSMoOAAAB8Ef+3zfF///dHQ6ncRoZY4xkJEmSJElWspIkWUnWysrKStLzV1ZWVpZkrbXWylpZKysrK2slSZKsJElWkiRJMjIyMsYYp9PpcH++Xq/90c6c53Hc717/RMQEgKkLGapqH3g8OT09/Ph+W2VICmB0WdIy8fXYw9/2jr9OtEUki1mJoeUbvOXM6r8rLe6K3l/O4V91Nx7GBF+JxPgpFuDldIVgqvhUCgs087qco8KDZ1jAV2MRbhINawoLe+euYCX7nyks+MzzCCMl5j0sQrVaw0YNewqL86RN8FDHGRZtql8wkOi6xCJOD0n+6UxiUeceC+7pSGKR3/QL3mk6x6JPdbBO5SH64FkD48S30RcPKtgmvIw+uRVlGmtW+QUu2SwjnqOPzloMI0aUn+BzyS99DvqqGhLc0naDPuv0MEvdJfruTSurJI7Qh5N1jBLdRl8+SrBJ+Bv69FaUSULvlV/hos0iclKhb6t3IQYRIw76uDcp+aMvg76eHxbc0ZZCn8/0MUf9Gfr+VRtrVPzAADytY4z4pgoC/FHOFuFFhYGoNqJMYb3zMCDVlzBLyEkXA1PNWAwhhvMYoN6E4IeeDAZq/jE7tFxjwGZ6mKHmHAM31cIKiR8YwGc1jBDdwED+kWCD8AIG9EaUCay3GNjzYRaQEyq48LXFAY8cDHA1LuivO4uB7j4iv+ZrDPhsF/FVn2Hgp5pIr2wfNfC0mvAi66iFe2VkZ39WeqDWIkRnvfFQE9Vnm+TEUwe10XstKW4whxrpjAt6675BrcwOkFtTEjUz3UVsVaeonVeNpBbfQw09rSS0yBpq6X4pmdnzqKkrJURmvVa6gnM2iYknLmqremkRmBjIoca6Y4K+utKotbkBQV1Nl6i56U7iqj5G7b1oJK3SHdTgoyrCiiyhFm+XklXoI2rycoSoxAulS/gxRFP/9lCb1QtBUf151Gh3lKDablCrcw/IqT6Jmn3TRkwVx6jdyXpSiu2ghh9XEFJ4GbV8O0pGoTmlZ7hsE5F44aGmq48WDf3TQW33XkgKepBDjXdGBf20pVHrsw8E9TRcoOan24in6hC1/7yedEo30QAPKgknsohGuFFKNqH3ygxwMUI0cspDQ1TvQyQjRvNojN6kJBjRl0WDzA8LermbQqPM9pJL3Tka5nUrsZQfonFe1JJKbAsN9LCcUEJf0Uj3omQiZpWZ4FqISp55aKhqXtLIYxeN1XtFIt15NFh3jECab9BonfvkUXOJhptpJ46yAzTey0bSiG6iAR9WEUb4izIh3Coji9CMh2b8LUIU8pmDhqze2yQhhnJozN6URRE9N2jQzoikh9YkGnXuvqCG+hM07HQ7MVTsonGfN5BCbA0N/KCSEOwFZWL4PU4G8o2HRq6+hYlAjLto6OqDRQMDDhq7NyUooDOLBu8NE0BjGo0+32N8iUs0/Eyz4UUP0PivqowuvIEEeFJqcNZnRQG4EzE2+VohDX61DU088ZAI1TvLyMTDPJKhNylNrPMGCdEZFubVnERSzPQZV80REuPVXcNK7CA5ntQbVXQFCXK30qDsOUURuBY3JuulizS5UGJIYsxBolRvQmY0kEWydJ9aJtSVRsLMDwrzabpA0sx0G0/VERJnqtlw4ltInufVRhNeRgI9jBuMnEMS3bSNRUwjkS5KUxlGMn0rzKTHoxMcFybSkkNC9R4ZSN0Vkmq2yzgqjpFYk82GEd9Gcj2pNoqSb4pecDdhEKFZDyl2NWoMcspFklWfwoYgRvNItN7LkBGIBxkkW3dMmkD7FRJubkDoX8Mpkm66W/sqfyDxXt7RvNgmku9xjdaFvyr6wZ1SjbPeK6Tg5RJtk888JGE1Z+vakINErF5YenYvh2TsjQoda0kjIbv3Naz2Ekk5c1e7EodIzKk6zYp8R3I+Ldeq0CIS9F5Uo6wZJOlVW5vkUyTqD5YmiUGXqtSU1KN7WSRr959Ch+6kkLCz/RpUe4aknerQnsQ+Evd5g+ZE1xV14UGl1oQXFNL3ZqnGyLceErj6GtEWMeEgiav3tq48ziGRe8+lnvSkkcydEaEjd5JI6NleDak+RVK/btWO0l0k9stazShZQ3I/TmiFPY8EvxXVCOsVkvxiWBvkE0VzOBPSBDHgINGrZ1IPOjJI9s6Q0IHGFBJ+rkcDqk6R9NN3Ai++h8R/URNwJatI/geJQAt9QgbciAaYfKk4QH0JB5YYc5EF1YwVVA9zyITupAimzjSyYf5xIDUlkRFvegKo4hhZ8aolcGI7yIxntQETXlHcgPuJQLHmFPLjWjRAxEuFHPk5HBxjLrKkem0FxYMcMqU3LoOhI41s6TwSQdB4joyZ7RL+V3WIrHnV7HulW8icJ9U+F/mG7LlX5mv2O2TQ1aiPyUnFIThv+5YYcZFF1SvpV315ZFJ33Kdab5BN8w99qSaJjJrp9KHEEbLqVZPvRLeQWU+qfcZeUtyCu6W+Ij8o5NflEh8RUy4yrJoL+cdIHlnWeyn8oieLTOuO+URLGtk23+8LtZfIuJl2Hyg/RNZNNhRdbBOZ97iqyEoWkH23yooq9FbxDy5Fi0g+85CB1axdNGIojyzsTllFInozyMTOqCyO1itk49wDUQy1J8jI6fYiKN9DVr5oKLjoOjLzUUWBhReQnbdiBSXfKn7CJbuQJjxkaPVRFM6AiyztTRdMZw6Z2h0tkMY0snW+pyAqL5Cxb1oKIH6ArH1Z+9fsTWTuo/K/ZH1B9v4e+yvyrcdf+DX8F8RTFxlcvQvdmhjMIYt7k/K2um+QyZ1heTt3LpHNs73iNqqPkNGvWm4huo6sflj5R9YrxWu4GP6Tvjwyuzcmfq/iBNk93fBb8h0y/Gr4d1pzHOf1/0ZoBVn+KParNo/ncPQXoRVk+uOSnzV5XKf6fyJmke03rP8TTfOdW/t/+pDxJwFALHLevgVgpzjPKwdoRtZ/BPCE9+ZALPDevpRHvJcPWXnew6oEMn/HHe571MF9o/e5b/rx//vr5r7JDu4bruO+/hj3tcg085XKHd5LS/jAexsCBnnvFUAl73UBhE44Lx8FgBnOW5EA0KEYbxgAwD7hu2zp/4HnfLcgf1KV4TqvDX4q57huy/4Z1Gd5TvXBL+VHnlu3fwXVKY7Lt8FvinHFcLPW70B0m99OyuH3m9Pclu+FPxQjHq+pV9afQGiW19ai8OfRdU47rITbLN/hs8sGuN3qEy67aoXbrtrnsWQL3H7ZFocd18DfjMx73KXWyuDvin9nect5Y8NfbzlQjHXWC4VY8jLLVbkPCSjQpu8eR6m9NihcazTJT+mJMBR05ec8LzlLdVDosvdAMdLpgAVFGH9xw0XZmQQUp7iz7nGQ2u6QULThkQv+SU3EoKirPzm84y41CChy694PzjkdsMEH49MZrsm/qwB/FE3rimPUbrsFvmkPJ/kl/TQCvlr+SfGKWq4V4LOy44RTLvst8OHwtMsl3mwMfLpui0cOWgT4thxK8UfmaQh8vWze5Q1vpQb8XnQdKb5Q5w8lBGDkRYYrcrOlEJBN6y5HeLvtAgLTHr7gh9REBAK18lOOF5yleghaee+H4gN1OmBBAMem01yQfZ+AgG5a9ThAbbcLCGx76JL+rscjEOgVnxza877VQtDL7h+Ud/owBBoYe56huvxMAvRQNK4qktu+K0Ebw4OX9JZ+EgGdFOUfHVrzvtYK0EzZdUBpZw9CoKGR5zkqc2ZKQU9F3YYisb0WAdoqB1P0lXlig9bGP7m05S1VgvZ2HirCOn8gQIPDU1mqyr+LgybXbXgU5e21gj7LoUt6un5qg1aXz+VpyflWA7otuvcVHanjhxZoePT5NRVl3iZAz0XTiktB3la7AG23h87oJzkeAa2vnM3RjvOlDnTf6tpThHPcb4MBxibTVJN9kwAzFI3LHsWorbsSjNEevKCX67ESMMrErEsrarEaTFO2HVLKea8FBhqezFGJ+zYKZipq12hkt1mAsVoDKfrIjIXAaGMfPdpQ38rBdEXboSKM814JBmxP3lBF7m0UDLl+1aUIb7tVgDFbgxeKHK6ehMGoEx9ytOAs1oBpi849RQfq+IEFBh6ZTFNB5k0pGHrjqksB6vtdAcYeenxufsmxEjD68o95s3O+1IDpi649kzu6bwEBxibTppZ5VQY0KBpXPBNTm60SyDA8eG5eyX9GgBJFxaxjVu5CjQBitDr2Teq4LwQEGX2WMaXcqzjQpKhbVSaktpsFkGXoUdJ80v8MAWmWfvTMxvtaAeTZdqgM5rwHKNSezJqK8zoMRFqz5pmI2m0EOpWDF+aR+rcEUk18yJmF86USqFV07nvmoI77JBBsZPLaFDKv40C0DcuuCXibrQLI1h481b/Lf4aBdCtms3qX/1wL1Cu7dpW+qYO+EBBw9Nm1rt28LAMaFg1Lno6pjRYJZGwPnOtXcrQESDnx3tErb75aADHLtn2dOrpnAUGXTGR1KfcyBjQtapb16HuTALIO9Sf153rEBtKOz7p6oxbKgbrF3R86c9ItgMDtiYyuZF9FgMhrVjwd8b43AZ1bA+dKO65GQ0DqpbM5vcgvVAK1i45dTx/UYa8Ago9MpHTh5mUMiL5+ydEBb/MO0L01cBp8ydEQkH7Z+1ywOZ8rgfpFx44KsIMeCQwYfZoKqpsXceBBUf/NDSJv/Y4ANrQHToLnYqQEWLF8JhcszqcqAcxote+oADm4ZwFDRsavgyI7FQeeFLXfvCBQ600S2NLqP/e/q2EbWDP+zvU3b74cuFO0HPjZSacABpVPsn7lTIeBSStWlB+p73XAqP2X/nM1LIFVY+/y/uLMlwO3irt7nn+ow3sCGDb8NOUXNy+iwLR1Xx0/cNeagW9DD09U0Z2P2MC6iZlMceXmqoB7ZfuWVzxqv0cCA0fGk8WSno4DD4v6RbcYvNVmAWxs9x8X3sVQGFg58TZXWM7HCuBm2bKmCmirQwJD210bqkB2H4SBqe2upfzf89Z7S4CxreqpQ/VXTl81hIC77abJLed2nN0XrWEBLG5F2598+XHzO+m9LxPdMQtYXUgrUtXS0dHR0VAVllKAsQNWUDggFBIAABCDAJ0BKgACxwE+dTqYSSSjIiEk8miokA6JZW7hcn52/if4AfX4fk/mJI7H8l/atcJ7d/e/25/qnkMZdevfj7+vc87h/mI+F/tvOB/gn+09gD+Afxb9jusT5hPPO9H/+p9QD+yf93rDvQA83r/vfvV8FP9Q/7X7cf//5DP2P/+3/19wD/7eoB/yP////+1f6o/1D8Qf1w//P4Y8dvx3oXXfiLrgnYfvAP4B/ht/8LkyaP5mjqyBP/+xF/dt8wLsNELfJrTLVzSI+0Gxbva2m+3RG61FufUEPqCH1BDkea7teyH10acHpcmtRbn1BD6gh9M4zAaR64OxqIwyo7eCH1BD6gh9QQ+mcZgNI9c6qvy9yUkZR6dDLz/ydELfJq+RrAaR658rtHRgqa8TjTAt0MvP/J0Qt7suQ/Ejx5REVN+O75jA0LvIYuk2w3geiMEY2Mt8mtRbn1AEQ3FHThl2aqTDHp5+2UoPEoS8j+j97smTzzXn/k6IW+RvLRQ8mtMdIkThu6JsmJ7g5wfXRpwelya1FufKGBTcRsGqYe6tmRgoZW4qAFJ4glRZ6Z/6NOD0uTWotwJWj7VFudZ8ChYd07eaRBzkiL6SIJQ+3gF9fTuXJrUW3jvpKLb5K0BYG9TOA0k7sG8Ui/OiBI+vVC3PpnGYDSPXPqAOcyCLB47erf4ca0FXyJxQQ/AWBW9dmm6kogjMBpHrn1AHRfwxz9DkNXJ4Yy+KI5TmlBtl/mS8TkQYQhyJOydI9c+oAk0gKX6e0WiDdNy3lC1TZpvm61dACLgRa08GWdqAfOGiFbdKkV8EBizhISL85T8VtU0cOTvk10TigeeW3naTtTp7Lz8rT8H6INj/yYyZ3zNxbfaGRzCO0tVLkz7bv0xa0DhohbjKDlOPuylhn1AUG6kmMCcf6Xh2pC6cINNhb5NdKwW8sofYygyNz3J5DhM/GUQj/7CwbZefnD8nRC3M35xlDNdJmkvI9hAenKN+7+tSFcXWotzqJKayGr4fMNELfXNd/ixajKVCNuoJweOb+Xn8dv/50Qt7sT/V3zlsrr/Zn0z5/5OiKPBNDzEP+uZXUn00CB3UqMDGDbLz8AXs/rRsO4ghw4KunSQzydEK9v5QBXU8rYPBSSi3PlT8Z/tsE6IGR1HZ6tUy2G1wbVSny6EZvdUiRqCH1AEQ7P60aTmsvP+WQKEAUlyI1r2JnYNFZDLQcn2F3a1OTAw0zz/yX1frWAsJOGiFvkz+b/aite641Bgt/+OF31C3OQfe02nqSi3PqCHVxWSz9ip3Q03fnSVsujDghfMed2qcNELfJrUW4QTVHGmHFugYiV0b5fm0Btl5/5OiFvk1qIMl4nJK4L66RadYYCfunVXGiFvk1qLc+oIfTaXug/5nLgFsSiCVvPqCH1BDkAAA/q2UDdef1ImcnRxOp34MsVGvvGjbePMkwN92UDyigBWBUvMWiGUG/VS3Fvh6mw21Wozda8xjYvudDXGLdBhqcb8YADTAD8mZqAny6TUHtOBHlKzlvZLtHkLloH1Qkk43sfXljdqhZKBBgJ+MhnZQrA3S7dEkwil33DyTsBNE3v/sz9rVfYQACAz9gaiWNvvLSITHflxDot9eQaOwO0hODMAf7DIG14//HzQC6U1vIA6684YftLOl04kH8FuQijHHmNa0EXyDMmHJAO448xrWfQWNAbPYrBfzd/0AALEh6EM9UreOnPFytIJDfw1Yq2k5LaN/DViraTktouQC9keYuX2GiHAtXa12WHvR2zJv8T38xTxL94/DUHGWWA9dS/fgARKaxTSdBV17z8qoTdGrqn+yI4aSbuf5OW9mKL4mTPiADCMDxIwu1z0i+Yucqu2/64kocRbXKiyvGrog7tJ3KaYokl8kMAAHxjWMZGYFeRQygAheHpTK7HrzSu2ZVOm9YvT+lh6uU/RoOxkk+AoXMcQJC/H8Mt6e4IsOjrk6nYNTmhYcCMS3Rf2TaogfLI9Vt1JkFd5cYAXYpfFGXB608C98vjLJDpbYRUF9qzyDTQutc+CFzpQh98nTj3av8buwusqlAR0jMfWo93h9/8anHoKcrd1lrLsAZTJfvaniNPRZe2+mqWerbW+91yGpKwdjBRIKPFxcdxEgTtVqAxTYngh6g3Obad+pR4yKA8jjWvTuXX4R6w2pHSNKYaCsEWlBh9oISKDsJ5jBQnV2Y0+5XuHHtStgzw7vKcVRg7LZsAFcQ2jouHmq/DViraTktk9myDD/ZagHgvy2CAVovcsgIoFbMUXbWkJFovgSe2SMcbUSiP21TLyL0HMddWrb2Dyh5dgW27nipS/R3KdmSBy/ybbpgL3kind7eoCssARlygEy+M4N7yeXcwIG4C+cvmX36VczcmqwDPhu8B7mV0DF3fAfEhfHKZrrChK/+pavwTP4bOAoK6WwBghFXXJr+enUHsBb/91R/BMvmfqeWETA34V2/9F0UMr1dXaKNN1BWd2BYnTrEJuXbSvGM6W0wg+nSOvFU4UKISSd6xSRhEuFN/wg3XoBQZTBlzzQwshWmpuwjiBHHoCtGfF39gCI4aSbAn7ggoPdWZTIFUXthVuNtpRGDsxPnAvKbFJITl9ek/W8Fq3LlZqDOoQXmB/aZMSrb5wsLWjImJ6WDFY0StTv0DQDJykt01wtRJRHbFL2QXwKGMl1xU+CjqJUPfjzgV0qmr9MG5r0gJadpr6+3fSDKLDRbkzcxlW+nske8L6qkHwfghiuo7DREPsQSnsw/tSzaFJKeIOIT5zbAI3vTOYA281BaE29dpzvLtXdM7dYZ12stDX9l8lL73CXnELXHpgRd5+xVuidvummBUrCZFqceImpgeC2L4wVUUFHvXDS9sdOoe0h6uWRc7Cf+ehX/qvOouITP2M7FpupxvZv2r7QjAjtWeQaaF1rnwcfbKvbhgqG7igmAbCuAO1SXGzhao6lzpLa8Py5NrgkIb1Dms+dgUnQ0621pJN+59i65l2P2zOEsuESObj6f8kBnA3TQ+ID4vwZ/HOqOM0KeYTt21sH85sAzwOtAU7x0dGnu035MsegzWwRKrpXfhqxVtJyW0b98ARjvNlXdwGzHxatUGl1mPkgEEpO3FNnAPAci71yqhNnyws0ru7Ct/QyDrpyr6AdWWUEmdX+AzNXUvg8XCGzABrLYZaBFcuEygBb79eplt//iKKUrkBwxZrxlLdVHQuxS+KNwB3t4jn35EJS0VlFkF07QQ21A/KXSyHOCq+vzoMjRgjNSenHAk/Qe2o9YG+MwK6s5cBiliwIrITO/YQh8n8+lUDNLCOfedfljEAcDgncyy9itLYsFmnAY05nwo3cMDhA7qzAKFQGVWo++FGMWIwnzU/+PgUvijUr2xinivbGKSgUe3Zosj3huFq1xNGTidr8reefrbCPteOV67yMBTdtMQ0Xj5kN5AD5hHCTODFOnuRinjTO7u6UsNfa2TW2ykwzaUH02dJBrKNex7FlsjNu20GvFKca0pQPmPdyae8S2aBkAoSp8FHZw94uM1/6RWWReCTFXAb3FOAuC8UQXhy7BOxdJGbpLXGpnbzJXa6vMldrovw5dRlDnv7uv4pdM5NBYyQMdykLjP6DwqVPcHXfTyx5usDYpJ/Vdh15eMeGRaTaCFcbgCfWJJpyqeE9nKyZDiArpIORvoPcz3UyEYjLsLLTKrkgwAhouKlIskOBjKrnNOOVTjtH4yyxab1m3I437ZjjUAtnjmreWnNC8t8ff8NWKtpOS2QDtCkp6b2Zn5fp05kF8lGAUWhi49cF/PHxtL01jrXVfDhdFw+IZhemQ4bfK5KZLu7nd2BlwxU5/Ewm8vE7jpof+kbE/hwmdd1g0P3ND+73BJ3Er7xFsyvIFdSgyss1ZwQh83LLl7p2wvx8Wyf8f0XDyCxkDSuRnPIOEbO85kpgbTyUqcKtZB2Ug/2MsgMoM+YSFgvxYYV+Hanv2d/3+xSE01Di3Jc81gt0my4UMNkxHPlxe7CXyfyJjkHE61jgZuTve07+FF3NXqNndl+fiyAkAnEKiQ5O+AmNDryjY2cJURDBEg8epDgy7uan5CzhbYcqBfs/oNhHB0FxmnMaxLDvWXp6HQWytr1URNov9JKaZoni7imVQ3x1qZFcy/SmUf6d/qO9kuTBnpqSCRflSrQJJicc0GmYzysw70T6F140zkWNwiufbtFzQo1VwRJco091TXxkKJ6ChBZ+rn0dn/Zegw+0EJOv4iwFJpi+AcAQ4Yr1YhHJxld21OTRG7mM2jOh1UqiV724hlni+Qyr9ceWeTo6LqDJwsykGD0xVfAokCHwDOreJO7izSlrK68fS8Z5Uv5o/GLPetb7LC3Yly9H0sM70EfVeuNn0gVSn6vYAdpKOStmKQg8IhE7VnkGUakFuzma0MvgIEaHoW1sD0AHZygthW4hUiCZqM8DZEHMDNK0m9N82WydOXYab/rSpqjHDHxDIxPfUOeyQ+VoLO/qyyMJ75RuEE/gqDqb992nL9clNQ6hEfrudaBmosnyCq1T4AE1WVjSJIQ3nvfxyO3R2YVdlbvFSPzjK1i8b3aGeg5tsOC+f+oCvxPQAN0VRHqNSKgElG/R+mHWuDoCh0vOAvnFkKH6KbPs47bbmMbsoENus7nPjvQQTb4vVcLLU65zGQe/3vodbNMPnwRnKCLsf5VdZlwBw4WiwnnonsRoGVOAwM02snNuxbE4tf9a7vthM4ntIaHg77R9pSU7dSIX4n8VClIOrBFfCyX1QHBnH0qbHzul12QC6r8ouaner2w1TzoVEdwVMl6ebUfbeCOmmgn1nobjY3gIERmenlvbrpUHufUng4l14HiroD/mnd3OFJk2pD064bkR4woTa9yZqd9ImfXsZIxuZl50U3zN1rYAxFl3GHkUXxIOg13ZGA1oDS3q09jA+NBNDHFHfl3RwVAjVfuFn8eV1Ge/2VuAMqI6HRINdLq+0rPm9QQD+JYlyhBibh2Bs9IHUHVXiurZIzsc7JKVu1GNbnDZdQT1amPKV132QFfd5ZAXEdb6cgcoNMw7U18Ca4Btk4e6pxKLIZUCIuijmFde29q17LGKsl1WVwEolj9+9BINu9STkv0wb8mslED9FxXd0bK/2Zk1wxGL3fYyt/pThDdQ1B+6uhLeoz32HMHYRx3njDPjJlDhl6Q9WDodPRkXXbQCd6D0v5VdZlu+rggsqImDoOw0Dnni7ljRQkUx5Suu+yAr7p9BjFpA6eG+G+kfnw0vwtVVUMMS9ml2mDf467wpAn9ZT3miW3Nq7TqlSy0k1Ba+pnJfqv7SHdDbnPXL0WgHpDjDCFKwS+tjvHmn9NUF7gCExsUnFTVG768xZylXOLq/sgBCHuv4my4leEL5OwS4EasGTyD6DMuR7WgU9RSVIeOVQguHdbCKmfs+iJwXJ9UIO8E+ODTObyNwWIlQdOa4kOxmZRaG7RbQbR1f2SBEewMBhXirszg/K84nztnMp3wzo7vaEy6erESYdmVWoiX7IIWNuHS0Y7REl77/FxQv0DhbrRxXPm5qJ9e6RvCeRE0gVN2t5OKHbiKtGw5O997LaOKciqpkVRaBJpY/Mlh/PQOx0mcAd7ogjN9AvW20D+KOkFUYAOv9GHRq1v0z7srFp8+PZiEWQAAIB43skN0qM+Bqg7MNqvORic9JZ4V5UYRBw7ty6sh1z62Hv4zupuhCSUsLgh85BeD3ueXE2U4hExpecBfOLIUP0U2fZx223MSWPzJGkX1jrXFiTsrE3MjN5sGljdCc9vx1zQu24iLrTAAM8+X+fvKTwewrEqNVfZFPoT8SlVh6QCLTxBALNQnPkBJpbYT+0z6B1/yJcugWlAhvmVA79uOY4M1wsvg5v8BQVAuGC0Dc2eVgWaXCD9xfp2W00uAAAU94mOc1DaSWJGF5F+G6tuVTbLwjSxig6Ar7u4gEKooc06GG310DrL6ml4uk9I+F5nh2VYibXDmjAGNP5QZwYopKMuMQ1GixyAAAHs2qVBLQc4B4snVdi1WLvLsNJka0Rh1SYXKQ4GDNGhDDvq1nUO0zUlFGh9/gs6HsrK00y8bRGx3kfqySVi6dUoLLwq740AXdNGe4pv+AXb1wAAANU5b1oQw76dyLvQBEHqcU4M52vapn8T/IyilpCgfh/gWgihkThcPlEGqglT1CcefL+oAAAAAARVhJRroAAABFeGlmAABJSSoACAAAAAYAEgEDAAEAAAABAAAAGgEFAAEAAABWAAAAGwEFAAEAAABeAAAAKAEDAAEAAAACAAAAEwIDAAEAAAABAAAAaYcEAAEAAABmAAAAAAAAAEgAAAABAAAASAAAAAEAAAAGAACQBwAEAAAAMDIxMAGRBwAEAAAAAQIDAACgBwAEAAAAMDEwMAGgAwABAAAA//8AAAKgBAABAAAAAAIAAAOgBAABAAAAxwEAAAAAAAA=;" vertex="1" parent="1">
          <mxGeometry x="233.74" y="334" width="112.53" height="100" as="geometry" />
        </mxCell>
        <mxCell id="ZyMM9qRGssIg45qCTCB3-74" style="edgeStyle=orthogonalEdgeStyle;rounded=0;orthogonalLoop=1;jettySize=auto;html=1;exitX=1;exitY=0.5;exitDx=0;exitDy=0;entryX=0;entryY=0.5;entryDx=0;entryDy=0;" edge="1" parent="1" source="ZyMM9qRGssIg45qCTCB3-10" target="ZyMM9qRGssIg45qCTCB3-30">
          <mxGeometry relative="1" as="geometry" />
        </mxCell>
        <mxCell id="ZyMM9qRGssIg45qCTCB3-10" value="" style="whiteSpace=wrap;html=1;aspect=fixed;fillColor=#fad7ac;strokeColor=#b46504;" vertex="1" parent="1">
          <mxGeometry x="210.01" y="520" width="160" height="160" as="geometry" />
        </mxCell>
        <mxCell id="ZyMM9qRGssIg45qCTCB3-11" value="&lt;font face=&quot;Verdana&quot; color=&quot;#000000&quot;&gt;&lt;span style=&quot;font-size: 15px;&quot;&gt;&lt;b&gt;Authentik&lt;/b&gt;&lt;/span&gt;&lt;/font&gt;" style="text;html=1;align=center;verticalAlign=middle;whiteSpace=wrap;rounded=0;" vertex="1" parent="1">
          <mxGeometry x="210.01" y="640" width="160" height="30" as="geometry" />
        </mxCell>
        <mxCell id="ZyMM9qRGssIg45qCTCB3-13" value="" style="shape=image;verticalLabelPosition=bottom;labelBackgroundColor=default;verticalAlign=top;aspect=fixed;imageAspect=0;image=data:image/webp,UklGRo4NAABXRUJQVlA4WAoAAAAYAAAA/wAA/wAAQUxQSLsDAAABX6A0kiQ1eeokPjOpj4gA8S2/jT8LgbYAsInkRp7Z3cCTk3KfpsxtmJk5E2bmlJmZtp1iOJmnMOzbwd7M6PPkHd9ZUhki+j8B8L///03ZTtr8Lseljxgh7KZ2hTw77akybCyRb+dxw89+hbx3ROyuIfcPDbODFTucwWtjifw70zjZLkqYRYy+QBln85lQCYENNqdRyh1sCjE6DSafo5xP8bCFIJ2IxWsoaYvFKVFmsyhEySIGE1DW0Qx+EeYpBgPC7ArPFsLkcXATKmGwGVyK0j4Y3Ofi7AquX5wXgxsSJwsO5TWBWYHiwCYI1AwsFagV2H71XvtHs12TaYn44mT6JiLOmuw8rcRsAABbIO4CmiLiWHD+8he9ixcvjlbNPvzww5Fqtf9UgyVLljyq2/DysouWLJkS6WUXlYiI2aNa2a9KdF56TKfkHPbO79HIfo11X2wodBDr79InKT3wXm3sWfTNImX2o/8MZa4OQ2ZUWVD2uNRuly68X5U+dG83ABNuufJIk8K1wgAATCwc2FQkrRwrDDg3VI6dr+txBWkWQ89BB76lR9dxP/SeUDoyNSZUpBPVgGuOkZUlRToT6m6oHNu3jOBjoux3tGrBoOMpYPkZg9MkN/U+c+zSYojsgvq2JJ2GEgV50gNOERytREVaPmlFZuuQIG342IJkOqQO4wMDBCMV9pMcvBc4Wnp86GdL8qAeL/rBIHlGs64yH/olSMeosIDkfgccDRUSgsZr0GFUgIo0fGxBXgQdCtL0SZE+qMQQedLnlGOUEtfILg9bkjxS4nOSmXop0l2gREqwWcsOOO7VYoLjqVpp5TBa2C7J4zrXka4GLeAqwZk1DlSO0XoccGRxj2QQaR7rYUuCO2NH8jU6ZySTeZ7mAIMOPGkAwN5Ad/wayjt8n7nwu61LjpxH9y6jSdJ11W+BJvDFMJw0ukwovTpN0AW+8NpltElueOR3gzawoKw3A/SBL6s6JyKN7KGy14kYNAJ7qHJlMegEsPDILcRsawRqAYAdBzV1qv/fRVaOG/lT0sHIS7FfvVS9CQI1A7MCxYGBQCa0rjgZhD4gzovB/SrOruBScR4MboI4reBsIUweBwcDwrwI4V8W5mkGC4S5nwEUouQxh6uirAaOr4kymoUtJIlZwClBngKeSSVGp8EErolxErguEOMeNnBaiF3ANylFyGNGcKiSYAWw/kqAHYaX7bLLI2CeXGf2YgTs7SFWKyIQMDl8gc332yOQMVl8pN3zyQBeb/d8Z2oE//v/X44BAFZQOCDqCAAAEDgAnQEqAAEAAT51OphJJKMioSNViiiQDolN3GgDjHgR2tOC/aPy82a7sH9S/ZP8meqA5n8I9DIbbqY/Uf3b8m/nz/R/89/O/c990nuAfpL+w3WO/oXoA/l39e/5n+j93f+0f7r/Qe4b9jfYA/pX+q9Hf2F/QF/ZH0wf2m+Cz9yf3I9oH/+dYB1F/V3/E9u9qgOQTmBwjJfZJO1D7w3548Tyk2Btvp/17UpNgbb6f9c/lQPqfTvcxNjuAhP2ZTRrZULC92k4+EqnWniOXJeqylut77mshEu0JpMr4CT4h65/KSChS5hRdQW4Pw3lUU8SZYGShrxurFnj/d+EyON4p0fYz0B66UJxSlRIK8cd6FiUQOONU5LBwPrdXUuVdIYK4IcSUEeaBgcBCJIhddyaude2TeSoPIJOHsb2e0Y9X0AcVvSI0M6E8+fsWIfpgeeWX6geaiuPHILlOTiIOOBnLQM42JsXSYXQdeUf1GJswjxpEMNr9AI6g/i7C/7W4Eg0DsTcP7GgbCO8Qarbi6geXX1bXFWOeLB+m+FRWHRe37RouEu0kOe4O1rjSb6r3sCNyoB22Pf3VDHULhQ2uNlJsDbfT/rn8qFvgAD++IZ2AgUdM1N4CS1zTANN9IABaTBkYOCrpq40JRG6Ioqs7kiAyqU7Vf3AZzELr98WHBCQTzGfyFLo21FY0nx+JPtJ/NeCEgnmOI4im/HEJUpHGcvC2vwZPuH1UUQkWZbeHtSARW/gEeLa2BqUNcBsQKXqAjrtQsRCLRAdLrNaoBBzcyJs1pSuW7kbujovEhqRHqPof1QNDWaFIc/IVj71FkfzA6HdqXGX6N3o5uravSV4v/5Gk8L5G6rY554KOe1gQfn5qZTL4hbxp8qJXoQoAfjbZcIwzwOhbiJ38zamutw38QPUH0piC92OedhqWsUfe0fvtjFdi0nshg7zJwm8r+kOHlFo6MW5maXhVAukKbwsUY6DBuhbPZtvwx0IYHKGoPucgd/i5EZ86TI/G4Gg3GbOG+HVzhVAtFY4FiyBPjdQQ5vL6hSks9h4MEe86Y0NO03VPsWa4rUtBFT5rwN3ujEOCLH7lAioUqvgb+fvCxQ7fkcJNljlhH314BLUUQy7ONjoyKpASN2ivYppt7K73Cuaw1gG4G+cHV5XE3ToN6dUY0k2nsVgwQp0n3weNef4NZ39R1j+bGnQ02qieexOcJO1sqDB07cJ6y+u0eV+uoMd3iqJvXXdhrvOvd23tzfwo2206mxLhZV/eQffpUKO9YXiDQYQAnZcG5ahtNdVSqmKcMFkpiCx7yaeHCGqRxDCr5lmBLe936dzEK1Xzp9q+R//97Ob6B8po9/pnTAuizCYnh2jYaTl1/HxJHrtSi7QyKHGYijx3IRAgQyQdHVKzpXxYOFbvNbcG1vgm408kVaXNJcfD0TtxgIgZMCFEJECe8bIPZrxWTr+Ajv/mTu5UYDUZrDv85bOG0nL2aIxu92CCffNMP+GqGDLN268uLidNJ4o33zxn5oqrmAZfSiZJLPQmojLp0Afi76MmEmSA4D125w03RGwfxRQEzI7ICdWJehzFxnVSGsE42EiR0PI1IXpaSzbRN5tNvNvyMSPDnnc60ZNbcx16T4g6Yz6Oll4OqSh5CNqygADHgeILJJgnF7xL1H4lKyFNs9ctDP2034I49nLChHNXW3jPbzmfFigIbScYPaPAmWY78akj4ptjiMHNXeArgMwnMNToy+kPf4aAOioB1BI/ZuWNLm2fM0TLBdcM6u0mfff+TA/+YBsEAOen8PZgG+ivwZrDweQPShIwNIZ44tgWhN81Morz675ZbawuEBccUjlTTVUFCFTACoICAFoUajtNG8avuB6NSpOQMZFWU4tdbTAJAqRFFkMbuBdFJhNaEy0U83h87gm3ZndjlPM+IRRMG+eFfrLiE73HU1uzOccR7fK5QP0Gph+jT+pH/ae6P//MdvvsP2MvPdPx/oAsnc6uZ9WjUhiv737UPQu0S6gRYfvdurPdhWQkEzGOafIoygAY/h26xy8Ud/uh6mYkya+5ExYMfIlrlxhqyhQHgeJqkNrSDC/OjOjByS2ap4RWTSkch0HPSilx9g1g/0rHmRbm6qdyEz/4SgK+UTuE8kMoo72PtIQgxe7jue16Hr0vSUtpb1vyxG1tETNYOsPQRsDgyNONmlL06yWV+gqVuhQk68Jxw7iZaJeh4POQp7GN6bPzpTPP0Dw+Bf9zapEp/ncUGw88Jk4VVaHQbyytcVLA0/QlANrRFJ+wLJkViLlZS1qTsmOAAYc8PUBawchV/nuJG8Nr5ufGsC7OesdOkWLarVP7jtOdv/IUfgTGxU6aWC0X8ZN+A5Ycmb6ojHWSJrhFcn3Ei0weV3itq2Q38fjYOn0CAmG7Kl//2DFwfaxhWaV+YDMZtWCm7NqSLbpE1sIrn72GZAABKm7gzyTKkSxdSqPMW83bKgAC39zA5rEg799GT2vz4UfR3CmZjUuMOJgCM0fWJz3SjZ/XsOZpfmI+DPDNmnqliogK8pd0VNjJWYcCSFIqFKr4C/oLj9BX/DbRidnptY1xjxmVQEgLfwMo/yoXGn6Zc+yu9MYjMQuTmNJ2aMWWlxkAcupgeugbfHXSqSmK7LQjwGyhvoMYSA5mN26pqbJtyLWtFnK/yBy+x+OqBeXZn8/a/pXpjsodAQSZFJJ2wnyxl0P2OwsE+6eXAPY9eKo3LRTigk0AqoOC4WzmxjER1yVkq6t6Z0C5VaJEURWAR3mRyjFNdxHuZOIALYJ+cAtI/UB7BFIjbcmXNM4rTbRV2xMy3TlhHkUQaNjEdr43rpZgFFCUtm8IebDYkQtdIhsJW669UrIKADIXNzxg86IQsgxlUPqPAv5bhCrSiCLR6CVrrwcHOT4xfhaU72UoTL8UVW/3jWWOgztriaELmA46TmBuYXVaRvTXvdFdxoK8JmzO1HGgjvw8yvXHpY++6cP+wj//+AOgJ1mCvS3K97gvj/tAA+n8gseRRkQLzPW7ZIdYfBU1H/oAwUZc2TIAAAAAABFWElGugAAAEV4aWYAAElJKgAIAAAABgASAQMAAQAAAAEAAAAaAQUAAQAAAFYAAAAbAQUAAQAAAF4AAAAoAQMAAQAAAAIAAAATAgMAAQAAAAEAAABphwQAAQAAAGYAAAAAAAAASAAAAAEAAABIAAAAAQAAAAYAAJAHAAQAAAAwMjEwAZEHAAQAAAABAgMAAKAHAAQAAAAwMTAwAaADAAEAAAD//wAAAqAEAAEAAAAAAQAAA6AEAAEAAAAAAQAAAAAAAA==;" vertex="1" parent="1">
          <mxGeometry x="227.01" y="520" width="126" height="126" as="geometry" />
        </mxCell>
        <mxCell id="ZyMM9qRGssIg45qCTCB3-24" style="edgeStyle=orthogonalEdgeStyle;rounded=0;orthogonalLoop=1;jettySize=auto;html=1;exitX=0.5;exitY=1;exitDx=0;exitDy=0;entryX=0.5;entryY=0;entryDx=0;entryDy=0;" edge="1" parent="1" source="ZyMM9qRGssIg45qCTCB3-14" target="ZyMM9qRGssIg45qCTCB3-13">
          <mxGeometry relative="1" as="geometry" />
        </mxCell>
        <mxCell id="ZyMM9qRGssIg45qCTCB3-42" style="edgeStyle=orthogonalEdgeStyle;rounded=0;orthogonalLoop=1;jettySize=auto;html=1;exitX=0.75;exitY=0;exitDx=0;exitDy=0;entryX=0.75;entryY=1;entryDx=0;entryDy=0;" edge="1" parent="1" source="ZyMM9qRGssIg45qCTCB3-14" target="ZyMM9qRGssIg45qCTCB3-6">
          <mxGeometry relative="1" as="geometry" />
        </mxCell>
        <mxCell id="ZyMM9qRGssIg45qCTCB3-50" style="edgeStyle=orthogonalEdgeStyle;rounded=0;orthogonalLoop=1;jettySize=auto;html=1;exitX=0;exitY=0.5;exitDx=0;exitDy=0;entryX=1;entryY=0.75;entryDx=0;entryDy=0;" edge="1" parent="1" source="ZyMM9qRGssIg45qCTCB3-14" target="ZyMM9qRGssIg45qCTCB3-37">
          <mxGeometry relative="1" as="geometry" />
        </mxCell>
        <mxCell id="ZyMM9qRGssIg45qCTCB3-52" style="edgeStyle=orthogonalEdgeStyle;rounded=0;orthogonalLoop=1;jettySize=auto;html=1;exitX=0;exitY=0.25;exitDx=0;exitDy=0;entryX=0;entryY=0.75;entryDx=0;entryDy=0;" edge="1" parent="1" source="ZyMM9qRGssIg45qCTCB3-14" target="ZyMM9qRGssIg45qCTCB3-17">
          <mxGeometry relative="1" as="geometry" />
        </mxCell>
        <mxCell id="ZyMM9qRGssIg45qCTCB3-63" style="edgeStyle=orthogonalEdgeStyle;rounded=0;orthogonalLoop=1;jettySize=auto;html=1;exitX=0;exitY=0.75;exitDx=0;exitDy=0;entryX=0;entryY=0.5;entryDx=0;entryDy=0;" edge="1" parent="1" source="ZyMM9qRGssIg45qCTCB3-14" target="ZyMM9qRGssIg45qCTCB3-59">
          <mxGeometry relative="1" as="geometry">
            <Array as="points">
              <mxPoint x="160" y="440" />
              <mxPoint x="160" y="788" />
            </Array>
          </mxGeometry>
        </mxCell>
        <mxCell id="ZyMM9qRGssIg45qCTCB3-73" style="edgeStyle=orthogonalEdgeStyle;rounded=0;orthogonalLoop=1;jettySize=auto;html=1;exitX=1;exitY=0.5;exitDx=0;exitDy=0;entryX=0;entryY=0.5;entryDx=0;entryDy=0;" edge="1" parent="1" source="ZyMM9qRGssIg45qCTCB3-14" target="ZyMM9qRGssIg45qCTCB3-32">
          <mxGeometry relative="1" as="geometry" />
        </mxCell>
        <mxCell id="ZyMM9qRGssIg45qCTCB3-14" value="" style="whiteSpace=wrap;html=1;aspect=fixed;fillColor=#b0e3e6;strokeColor=#0e8088;" vertex="1" parent="1">
          <mxGeometry x="210" y="320" width="160" height="160" as="geometry" />
        </mxCell>
        <mxCell id="ZyMM9qRGssIg45qCTCB3-15" value="&lt;font face=&quot;Verdana&quot; color=&quot;#000000&quot;&gt;&lt;span style=&quot;font-size: 15px;&quot;&gt;&lt;b&gt;Entra ID&lt;/b&gt;&lt;/span&gt;&lt;/font&gt;" style="text;html=1;align=center;verticalAlign=middle;whiteSpace=wrap;rounded=0;" vertex="1" parent="1">
          <mxGeometry x="210" y="440" width="160" height="30" as="geometry" />
        </mxCell>
        <mxCell id="ZyMM9qRGssIg45qCTCB3-16" value="" style="shape=image;verticalLabelPosition=bottom;labelBackgroundColor=default;verticalAlign=top;aspect=fixed;imageAspect=0;image=data:image/webp,UklGRsYhAABXRUJQVlA4WAoAAAAYAAAA/wEAxgEAQUxQSMoOAAAB8Ef+3zfF///dHQ6ncRoZY4xkJEmSJElWspIkWUnWysrKStLzV1ZWVpZkrbXWylpZKysrK2slSZKsJElWkiRJMjIyMsYYp9PpcH++Xq/90c6c53Hc717/RMQEgKkLGapqH3g8OT09/Ph+W2VICmB0WdIy8fXYw9/2jr9OtEUki1mJoeUbvOXM6r8rLe6K3l/O4V91Nx7GBF+JxPgpFuDldIVgqvhUCgs087qco8KDZ1jAV2MRbhINawoLe+euYCX7nyks+MzzCCMl5j0sQrVaw0YNewqL86RN8FDHGRZtql8wkOi6xCJOD0n+6UxiUeceC+7pSGKR3/QL3mk6x6JPdbBO5SH64FkD48S30RcPKtgmvIw+uRVlGmtW+QUu2SwjnqOPzloMI0aUn+BzyS99DvqqGhLc0naDPuv0MEvdJfruTSurJI7Qh5N1jBLdRl8+SrBJ+Bv69FaUSULvlV/hos0iclKhb6t3IQYRIw76uDcp+aMvg76eHxbc0ZZCn8/0MUf9Gfr+VRtrVPzAADytY4z4pgoC/FHOFuFFhYGoNqJMYb3zMCDVlzBLyEkXA1PNWAwhhvMYoN6E4IeeDAZq/jE7tFxjwGZ6mKHmHAM31cIKiR8YwGc1jBDdwED+kWCD8AIG9EaUCay3GNjzYRaQEyq48LXFAY8cDHA1LuivO4uB7j4iv+ZrDPhsF/FVn2Hgp5pIr2wfNfC0mvAi66iFe2VkZ39WeqDWIkRnvfFQE9Vnm+TEUwe10XstKW4whxrpjAt6675BrcwOkFtTEjUz3UVsVaeonVeNpBbfQw09rSS0yBpq6X4pmdnzqKkrJURmvVa6gnM2iYknLmqremkRmBjIoca6Y4K+utKotbkBQV1Nl6i56U7iqj5G7b1oJK3SHdTgoyrCiiyhFm+XklXoI2rycoSoxAulS/gxRFP/9lCb1QtBUf151Gh3lKDablCrcw/IqT6Jmn3TRkwVx6jdyXpSiu2ghh9XEFJ4GbV8O0pGoTmlZ7hsE5F44aGmq48WDf3TQW33XkgKepBDjXdGBf20pVHrsw8E9TRcoOan24in6hC1/7yedEo30QAPKgknsohGuFFKNqH3ygxwMUI0cspDQ1TvQyQjRvNojN6kJBjRl0WDzA8LermbQqPM9pJL3Tka5nUrsZQfonFe1JJKbAsN9LCcUEJf0Uj3omQiZpWZ4FqISp55aKhqXtLIYxeN1XtFIt15NFh3jECab9BonfvkUXOJhptpJ46yAzTey0bSiG6iAR9WEUb4izIh3Coji9CMh2b8LUIU8pmDhqze2yQhhnJozN6URRE9N2jQzoikh9YkGnXuvqCG+hM07HQ7MVTsonGfN5BCbA0N/KCSEOwFZWL4PU4G8o2HRq6+hYlAjLto6OqDRQMDDhq7NyUooDOLBu8NE0BjGo0+32N8iUs0/Eyz4UUP0PivqowuvIEEeFJqcNZnRQG4EzE2+VohDX61DU088ZAI1TvLyMTDPJKhNylNrPMGCdEZFubVnERSzPQZV80REuPVXcNK7CA5ntQbVXQFCXK30qDsOUURuBY3JuulizS5UGJIYsxBolRvQmY0kEWydJ9aJtSVRsLMDwrzabpA0sx0G0/VERJnqtlw4ltInufVRhNeRgI9jBuMnEMS3bSNRUwjkS5KUxlGMn0rzKTHoxMcFybSkkNC9R4ZSN0Vkmq2yzgqjpFYk82GEd9Gcj2pNoqSb4pecDdhEKFZDyl2NWoMcspFklWfwoYgRvNItN7LkBGIBxkkW3dMmkD7FRJubkDoX8Mpkm66W/sqfyDxXt7RvNgmku9xjdaFvyr6wZ1SjbPeK6Tg5RJtk888JGE1Z+vakINErF5YenYvh2TsjQoda0kjIbv3Naz2Ekk5c1e7EodIzKk6zYp8R3I+Ldeq0CIS9F5Uo6wZJOlVW5vkUyTqD5YmiUGXqtSU1KN7WSRr959Ch+6kkLCz/RpUe4aknerQnsQ+Evd5g+ZE1xV14UGl1oQXFNL3ZqnGyLceErj6GtEWMeEgiav3tq48ziGRe8+lnvSkkcydEaEjd5JI6NleDak+RVK/btWO0l0k9stazShZQ3I/TmiFPY8EvxXVCOsVkvxiWBvkE0VzOBPSBDHgINGrZ1IPOjJI9s6Q0IHGFBJ+rkcDqk6R9NN3Ai++h8R/URNwJatI/geJQAt9QgbciAaYfKk4QH0JB5YYc5EF1YwVVA9zyITupAimzjSyYf5xIDUlkRFvegKo4hhZ8aolcGI7yIxntQETXlHcgPuJQLHmFPLjWjRAxEuFHPk5HBxjLrKkem0FxYMcMqU3LoOhI41s6TwSQdB4joyZ7RL+V3WIrHnV7HulW8icJ9U+F/mG7LlX5mv2O2TQ1aiPyUnFIThv+5YYcZFF1SvpV315ZFJ33Kdab5BN8w99qSaJjJrp9KHEEbLqVZPvRLeQWU+qfcZeUtyCu6W+Ij8o5NflEh8RUy4yrJoL+cdIHlnWeyn8oieLTOuO+URLGtk23+8LtZfIuJl2Hyg/RNZNNhRdbBOZ97iqyEoWkH23yooq9FbxDy5Fi0g+85CB1axdNGIojyzsTllFInozyMTOqCyO1itk49wDUQy1J8jI6fYiKN9DVr5oKLjoOjLzUUWBhReQnbdiBSXfKn7CJbuQJjxkaPVRFM6AiyztTRdMZw6Z2h0tkMY0snW+pyAqL5Cxb1oKIH6ArH1Z+9fsTWTuo/K/ZH1B9v4e+yvyrcdf+DX8F8RTFxlcvQvdmhjMIYt7k/K2um+QyZ1heTt3LpHNs73iNqqPkNGvWm4huo6sflj5R9YrxWu4GP6Tvjwyuzcmfq/iBNk93fBb8h0y/Gr4d1pzHOf1/0ZoBVn+KParNo/ncPQXoRVk+uOSnzV5XKf6fyJmke03rP8TTfOdW/t/+pDxJwFALHLevgVgpzjPKwdoRtZ/BPCE9+ZALPDevpRHvJcPWXnew6oEMn/HHe571MF9o/e5b/rx//vr5r7JDu4bruO+/hj3tcg085XKHd5LS/jAexsCBnnvFUAl73UBhE44Lx8FgBnOW5EA0KEYbxgAwD7hu2zp/4HnfLcgf1KV4TqvDX4q57huy/4Z1Gd5TvXBL+VHnlu3fwXVKY7Lt8FvinHFcLPW70B0m99OyuH3m9Pclu+FPxQjHq+pV9afQGiW19ai8OfRdU47rITbLN/hs8sGuN3qEy67aoXbrtrnsWQL3H7ZFocd18DfjMx73KXWyuDvin9nect5Y8NfbzlQjHXWC4VY8jLLVbkPCSjQpu8eR6m9NihcazTJT+mJMBR05ec8LzlLdVDosvdAMdLpgAVFGH9xw0XZmQQUp7iz7nGQ2u6QULThkQv+SU3EoKirPzm84y41CChy694PzjkdsMEH49MZrsm/qwB/FE3rimPUbrsFvmkPJ/kl/TQCvlr+SfGKWq4V4LOy44RTLvst8OHwtMsl3mwMfLpui0cOWgT4thxK8UfmaQh8vWze5Q1vpQb8XnQdKb5Q5w8lBGDkRYYrcrOlEJBN6y5HeLvtAgLTHr7gh9REBAK18lOOF5yleghaee+H4gN1OmBBAMem01yQfZ+AgG5a9ThAbbcLCGx76JL+rscjEOgVnxza877VQtDL7h+Ud/owBBoYe56huvxMAvRQNK4qktu+K0Ebw4OX9JZ+EgGdFOUfHVrzvtYK0EzZdUBpZw9CoKGR5zkqc2ZKQU9F3YYisb0WAdoqB1P0lXlig9bGP7m05S1VgvZ2HirCOn8gQIPDU1mqyr+LgybXbXgU5e21gj7LoUt6un5qg1aXz+VpyflWA7otuvcVHanjhxZoePT5NRVl3iZAz0XTiktB3la7AG23h87oJzkeAa2vnM3RjvOlDnTf6tpThHPcb4MBxibTVJN9kwAzFI3LHsWorbsSjNEevKCX67ESMMrErEsrarEaTFO2HVLKea8FBhqezFGJ+zYKZipq12hkt1mAsVoDKfrIjIXAaGMfPdpQ38rBdEXboSKM814JBmxP3lBF7m0UDLl+1aUIb7tVgDFbgxeKHK6ehMGoEx9ytOAs1oBpi849RQfq+IEFBh6ZTFNB5k0pGHrjqksB6vtdAcYeenxufsmxEjD68o95s3O+1IDpi649kzu6bwEBxibTppZ5VQY0KBpXPBNTm60SyDA8eG5eyX9GgBJFxaxjVu5CjQBitDr2Teq4LwQEGX2WMaXcqzjQpKhbVSaktpsFkGXoUdJ80v8MAWmWfvTMxvtaAeTZdqgM5rwHKNSezJqK8zoMRFqz5pmI2m0EOpWDF+aR+rcEUk18yJmF86USqFV07nvmoI77JBBsZPLaFDKv40C0DcuuCXibrQLI1h481b/Lf4aBdCtms3qX/1wL1Cu7dpW+qYO+EBBw9Nm1rt28LAMaFg1Lno6pjRYJZGwPnOtXcrQESDnx3tErb75aADHLtn2dOrpnAUGXTGR1KfcyBjQtapb16HuTALIO9Sf153rEBtKOz7p6oxbKgbrF3R86c9ItgMDtiYyuZF9FgMhrVjwd8b43AZ1bA+dKO65GQ0DqpbM5vcgvVAK1i45dTx/UYa8Ago9MpHTh5mUMiL5+ydEBb/MO0L01cBp8ydEQkH7Z+1ywOZ8rgfpFx44KsIMeCQwYfZoKqpsXceBBUf/NDSJv/Y4ANrQHToLnYqQEWLF8JhcszqcqAcxote+oADm4ZwFDRsavgyI7FQeeFLXfvCBQ600S2NLqP/e/q2EbWDP+zvU3b74cuFO0HPjZSacABpVPsn7lTIeBSStWlB+p73XAqP2X/nM1LIFVY+/y/uLMlwO3irt7nn+ow3sCGDb8NOUXNy+iwLR1Xx0/cNeagW9DD09U0Z2P2MC6iZlMceXmqoB7ZfuWVzxqv0cCA0fGk8WSno4DD4v6RbcYvNVmAWxs9x8X3sVQGFg58TZXWM7HCuBm2bKmCmirQwJD210bqkB2H4SBqe2upfzf89Z7S4CxreqpQ/VXTl81hIC77abJLed2nN0XrWEBLG5F2598+XHzO+m9LxPdMQtYXUgrUtXS0dHR0VAVllKAsQNWUDggFBIAABCDAJ0BKgACxwE+dTqYSSSjIiEk8miokA6JZW7hcn52/if4AfX4fk/mJI7H8l/atcJ7d/e/25/qnkMZdevfj7+vc87h/mI+F/tvOB/gn+09gD+Afxb9jusT5hPPO9H/+p9QD+yf93rDvQA83r/vfvV8FP9Q/7X7cf//5DP2P/+3/19wD/7eoB/yP////+1f6o/1D8Qf1w//P4Y8dvx3oXXfiLrgnYfvAP4B/ht/8LkyaP5mjqyBP/+xF/dt8wLsNELfJrTLVzSI+0Gxbva2m+3RG61FufUEPqCH1BDkea7teyH10acHpcmtRbn1BD6gh9M4zAaR64OxqIwyo7eCH1BD6gh9QQ+mcZgNI9c6qvy9yUkZR6dDLz/ydELfJq+RrAaR658rtHRgqa8TjTAt0MvP/J0Qt7suQ/Ejx5REVN+O75jA0LvIYuk2w3geiMEY2Mt8mtRbn1AEQ3FHThl2aqTDHp5+2UoPEoS8j+j97smTzzXn/k6IW+RvLRQ8mtMdIkThu6JsmJ7g5wfXRpwelya1FufKGBTcRsGqYe6tmRgoZW4qAFJ4glRZ6Z/6NOD0uTWotwJWj7VFudZ8ChYd07eaRBzkiL6SIJQ+3gF9fTuXJrUW3jvpKLb5K0BYG9TOA0k7sG8Ui/OiBI+vVC3PpnGYDSPXPqAOcyCLB47erf4ca0FXyJxQQ/AWBW9dmm6kogjMBpHrn1AHRfwxz9DkNXJ4Yy+KI5TmlBtl/mS8TkQYQhyJOydI9c+oAk0gKX6e0WiDdNy3lC1TZpvm61dACLgRa08GWdqAfOGiFbdKkV8EBizhISL85T8VtU0cOTvk10TigeeW3naTtTp7Lz8rT8H6INj/yYyZ3zNxbfaGRzCO0tVLkz7bv0xa0DhohbjKDlOPuylhn1AUG6kmMCcf6Xh2pC6cINNhb5NdKwW8sofYygyNz3J5DhM/GUQj/7CwbZefnD8nRC3M35xlDNdJmkvI9hAenKN+7+tSFcXWotzqJKayGr4fMNELfXNd/ixajKVCNuoJweOb+Xn8dv/50Qt7sT/V3zlsrr/Zn0z5/5OiKPBNDzEP+uZXUn00CB3UqMDGDbLz8AXs/rRsO4ghw4KunSQzydEK9v5QBXU8rYPBSSi3PlT8Z/tsE6IGR1HZ6tUy2G1wbVSny6EZvdUiRqCH1AEQ7P60aTmsvP+WQKEAUlyI1r2JnYNFZDLQcn2F3a1OTAw0zz/yX1frWAsJOGiFvkz+b/aite641Bgt/+OF31C3OQfe02nqSi3PqCHVxWSz9ip3Q03fnSVsujDghfMed2qcNELfJrUW4QTVHGmHFugYiV0b5fm0Btl5/5OiFvk1qIMl4nJK4L66RadYYCfunVXGiFvk1qLc+oIfTaXug/5nLgFsSiCVvPqCH1BDkAAA/q2UDdef1ImcnRxOp34MsVGvvGjbePMkwN92UDyigBWBUvMWiGUG/VS3Fvh6mw21Wozda8xjYvudDXGLdBhqcb8YADTAD8mZqAny6TUHtOBHlKzlvZLtHkLloH1Qkk43sfXljdqhZKBBgJ+MhnZQrA3S7dEkwil33DyTsBNE3v/sz9rVfYQACAz9gaiWNvvLSITHflxDot9eQaOwO0hODMAf7DIG14//HzQC6U1vIA6684YftLOl04kH8FuQijHHmNa0EXyDMmHJAO448xrWfQWNAbPYrBfzd/0AALEh6EM9UreOnPFytIJDfw1Yq2k5LaN/DViraTktouQC9keYuX2GiHAtXa12WHvR2zJv8T38xTxL94/DUHGWWA9dS/fgARKaxTSdBV17z8qoTdGrqn+yI4aSbuf5OW9mKL4mTPiADCMDxIwu1z0i+Yucqu2/64kocRbXKiyvGrog7tJ3KaYokl8kMAAHxjWMZGYFeRQygAheHpTK7HrzSu2ZVOm9YvT+lh6uU/RoOxkk+AoXMcQJC/H8Mt6e4IsOjrk6nYNTmhYcCMS3Rf2TaogfLI9Vt1JkFd5cYAXYpfFGXB608C98vjLJDpbYRUF9qzyDTQutc+CFzpQh98nTj3av8buwusqlAR0jMfWo93h9/8anHoKcrd1lrLsAZTJfvaniNPRZe2+mqWerbW+91yGpKwdjBRIKPFxcdxEgTtVqAxTYngh6g3Obad+pR4yKA8jjWvTuXX4R6w2pHSNKYaCsEWlBh9oISKDsJ5jBQnV2Y0+5XuHHtStgzw7vKcVRg7LZsAFcQ2jouHmq/DViraTktk9myDD/ZagHgvy2CAVovcsgIoFbMUXbWkJFovgSe2SMcbUSiP21TLyL0HMddWrb2Dyh5dgW27nipS/R3KdmSBy/ybbpgL3kind7eoCssARlygEy+M4N7yeXcwIG4C+cvmX36VczcmqwDPhu8B7mV0DF3fAfEhfHKZrrChK/+pavwTP4bOAoK6WwBghFXXJr+enUHsBb/91R/BMvmfqeWETA34V2/9F0UMr1dXaKNN1BWd2BYnTrEJuXbSvGM6W0wg+nSOvFU4UKISSd6xSRhEuFN/wg3XoBQZTBlzzQwshWmpuwjiBHHoCtGfF39gCI4aSbAn7ggoPdWZTIFUXthVuNtpRGDsxPnAvKbFJITl9ek/W8Fq3LlZqDOoQXmB/aZMSrb5wsLWjImJ6WDFY0StTv0DQDJykt01wtRJRHbFL2QXwKGMl1xU+CjqJUPfjzgV0qmr9MG5r0gJadpr6+3fSDKLDRbkzcxlW+nske8L6qkHwfghiuo7DREPsQSnsw/tSzaFJKeIOIT5zbAI3vTOYA281BaE29dpzvLtXdM7dYZ12stDX9l8lL73CXnELXHpgRd5+xVuidvummBUrCZFqceImpgeC2L4wVUUFHvXDS9sdOoe0h6uWRc7Cf+ehX/qvOouITP2M7FpupxvZv2r7QjAjtWeQaaF1rnwcfbKvbhgqG7igmAbCuAO1SXGzhao6lzpLa8Py5NrgkIb1Dms+dgUnQ0621pJN+59i65l2P2zOEsuESObj6f8kBnA3TQ+ID4vwZ/HOqOM0KeYTt21sH85sAzwOtAU7x0dGnu035MsegzWwRKrpXfhqxVtJyW0b98ARjvNlXdwGzHxatUGl1mPkgEEpO3FNnAPAci71yqhNnyws0ru7Ct/QyDrpyr6AdWWUEmdX+AzNXUvg8XCGzABrLYZaBFcuEygBb79eplt//iKKUrkBwxZrxlLdVHQuxS+KNwB3t4jn35EJS0VlFkF07QQ21A/KXSyHOCq+vzoMjRgjNSenHAk/Qe2o9YG+MwK6s5cBiliwIrITO/YQh8n8+lUDNLCOfedfljEAcDgncyy9itLYsFmnAY05nwo3cMDhA7qzAKFQGVWo++FGMWIwnzU/+PgUvijUr2xinivbGKSgUe3Zosj3huFq1xNGTidr8reefrbCPteOV67yMBTdtMQ0Xj5kN5AD5hHCTODFOnuRinjTO7u6UsNfa2TW2ykwzaUH02dJBrKNex7FlsjNu20GvFKca0pQPmPdyae8S2aBkAoSp8FHZw94uM1/6RWWReCTFXAb3FOAuC8UQXhy7BOxdJGbpLXGpnbzJXa6vMldrovw5dRlDnv7uv4pdM5NBYyQMdykLjP6DwqVPcHXfTyx5usDYpJ/Vdh15eMeGRaTaCFcbgCfWJJpyqeE9nKyZDiArpIORvoPcz3UyEYjLsLLTKrkgwAhouKlIskOBjKrnNOOVTjtH4yyxab1m3I437ZjjUAtnjmreWnNC8t8ff8NWKtpOS2QDtCkp6b2Zn5fp05kF8lGAUWhi49cF/PHxtL01jrXVfDhdFw+IZhemQ4bfK5KZLu7nd2BlwxU5/Ewm8vE7jpof+kbE/hwmdd1g0P3ND+73BJ3Er7xFsyvIFdSgyss1ZwQh83LLl7p2wvx8Wyf8f0XDyCxkDSuRnPIOEbO85kpgbTyUqcKtZB2Ug/2MsgMoM+YSFgvxYYV+Hanv2d/3+xSE01Di3Jc81gt0my4UMNkxHPlxe7CXyfyJjkHE61jgZuTve07+FF3NXqNndl+fiyAkAnEKiQ5O+AmNDryjY2cJURDBEg8epDgy7uan5CzhbYcqBfs/oNhHB0FxmnMaxLDvWXp6HQWytr1URNov9JKaZoni7imVQ3x1qZFcy/SmUf6d/qO9kuTBnpqSCRflSrQJJicc0GmYzysw70T6F140zkWNwiufbtFzQo1VwRJco091TXxkKJ6ChBZ+rn0dn/Zegw+0EJOv4iwFJpi+AcAQ4Yr1YhHJxld21OTRG7mM2jOh1UqiV724hlni+Qyr9ceWeTo6LqDJwsykGD0xVfAokCHwDOreJO7izSlrK68fS8Z5Uv5o/GLPetb7LC3Yly9H0sM70EfVeuNn0gVSn6vYAdpKOStmKQg8IhE7VnkGUakFuzma0MvgIEaHoW1sD0AHZygthW4hUiCZqM8DZEHMDNK0m9N82WydOXYab/rSpqjHDHxDIxPfUOeyQ+VoLO/qyyMJ75RuEE/gqDqb992nL9clNQ6hEfrudaBmosnyCq1T4AE1WVjSJIQ3nvfxyO3R2YVdlbvFSPzjK1i8b3aGeg5tsOC+f+oCvxPQAN0VRHqNSKgElG/R+mHWuDoCh0vOAvnFkKH6KbPs47bbmMbsoENus7nPjvQQTb4vVcLLU65zGQe/3vodbNMPnwRnKCLsf5VdZlwBw4WiwnnonsRoGVOAwM02snNuxbE4tf9a7vthM4ntIaHg77R9pSU7dSIX4n8VClIOrBFfCyX1QHBnH0qbHzul12QC6r8ouaner2w1TzoVEdwVMl6ebUfbeCOmmgn1nobjY3gIERmenlvbrpUHufUng4l14HiroD/mnd3OFJk2pD064bkR4woTa9yZqd9ImfXsZIxuZl50U3zN1rYAxFl3GHkUXxIOg13ZGA1oDS3q09jA+NBNDHFHfl3RwVAjVfuFn8eV1Ge/2VuAMqI6HRINdLq+0rPm9QQD+JYlyhBibh2Bs9IHUHVXiurZIzsc7JKVu1GNbnDZdQT1amPKV132QFfd5ZAXEdb6cgcoNMw7U18Ca4Btk4e6pxKLIZUCIuijmFde29q17LGKsl1WVwEolj9+9BINu9STkv0wb8mslED9FxXd0bK/2Zk1wxGL3fYyt/pThDdQ1B+6uhLeoz32HMHYRx3njDPjJlDhl6Q9WDodPRkXXbQCd6D0v5VdZlu+rggsqImDoOw0Dnni7ljRQkUx5Suu+yAr7p9BjFpA6eG+G+kfnw0vwtVVUMMS9ml2mDf467wpAn9ZT3miW3Nq7TqlSy0k1Ba+pnJfqv7SHdDbnPXL0WgHpDjDCFKwS+tjvHmn9NUF7gCExsUnFTVG768xZylXOLq/sgBCHuv4my4leEL5OwS4EasGTyD6DMuR7WgU9RSVIeOVQguHdbCKmfs+iJwXJ9UIO8E+ODTObyNwWIlQdOa4kOxmZRaG7RbQbR1f2SBEewMBhXirszg/K84nztnMp3wzo7vaEy6erESYdmVWoiX7IIWNuHS0Y7REl77/FxQv0DhbrRxXPm5qJ9e6RvCeRE0gVN2t5OKHbiKtGw5O997LaOKciqpkVRaBJpY/Mlh/PQOx0mcAd7ogjN9AvW20D+KOkFUYAOv9GHRq1v0z7srFp8+PZiEWQAAIB43skN0qM+Bqg7MNqvORic9JZ4V5UYRBw7ty6sh1z62Hv4zupuhCSUsLgh85BeD3ueXE2U4hExpecBfOLIUP0U2fZx223MSWPzJGkX1jrXFiTsrE3MjN5sGljdCc9vx1zQu24iLrTAAM8+X+fvKTwewrEqNVfZFPoT8SlVh6QCLTxBALNQnPkBJpbYT+0z6B1/yJcugWlAhvmVA79uOY4M1wsvg5v8BQVAuGC0Dc2eVgWaXCD9xfp2W00uAAAU94mOc1DaSWJGF5F+G6tuVTbLwjSxig6Ar7u4gEKooc06GG310DrL6ml4uk9I+F5nh2VYibXDmjAGNP5QZwYopKMuMQ1GixyAAAHs2qVBLQc4B4snVdi1WLvLsNJka0Rh1SYXKQ4GDNGhDDvq1nUO0zUlFGh9/gs6HsrK00y8bRGx3kfqySVi6dUoLLwq740AXdNGe4pv+AXb1wAAANU5b1oQw76dyLvQBEHqcU4M52vapn8T/IyilpCgfh/gWgihkThcPlEGqglT1CcefL+oAAAAAARVhJRroAAABFeGlmAABJSSoACAAAAAYAEgEDAAEAAAABAAAAGgEFAAEAAABWAAAAGwEFAAEAAABeAAAAKAEDAAEAAAACAAAAEwIDAAEAAAABAAAAaYcEAAEAAABmAAAAAAAAAEgAAAABAAAASAAAAAEAAAAGAACQBwAEAAAAMDIxMAGRBwAEAAAAAQIDAACgBwAEAAAAMDEwMAGgAwABAAAA//8AAAKgBAABAAAAAAIAAAOgBAABAAAAxwEAAAAAAAA=;" vertex="1" parent="1">
          <mxGeometry x="233.74" y="334" width="112.53" height="100" as="geometry" />
        </mxCell>
        <mxCell id="ZyMM9qRGssIg45qCTCB3-51" style="edgeStyle=orthogonalEdgeStyle;rounded=0;orthogonalLoop=1;jettySize=auto;html=1;exitX=0;exitY=0.5;exitDx=0;exitDy=0;entryX=1;entryY=0.25;entryDx=0;entryDy=0;" edge="1" parent="1" source="ZyMM9qRGssIg45qCTCB3-17" target="ZyMM9qRGssIg45qCTCB3-37">
          <mxGeometry relative="1" as="geometry" />
        </mxCell>
        <mxCell id="ZyMM9qRGssIg45qCTCB3-65" style="edgeStyle=orthogonalEdgeStyle;rounded=0;orthogonalLoop=1;jettySize=auto;html=1;exitX=1;exitY=0.5;exitDx=0;exitDy=0;entryX=0.25;entryY=0;entryDx=0;entryDy=0;" edge="1" parent="1" source="ZyMM9qRGssIg45qCTCB3-17" target="ZyMM9qRGssIg45qCTCB3-32">
          <mxGeometry relative="1" as="geometry" />
        </mxCell>
        <mxCell id="ZyMM9qRGssIg45qCTCB3-68" style="edgeStyle=orthogonalEdgeStyle;rounded=0;orthogonalLoop=1;jettySize=auto;html=1;exitX=1;exitY=0.25;exitDx=0;exitDy=0;entryX=1;entryY=0.5;entryDx=0;entryDy=0;" edge="1" parent="1" source="ZyMM9qRGssIg45qCTCB3-17" target="ZyMM9qRGssIg45qCTCB3-30">
          <mxGeometry relative="1" as="geometry">
            <mxPoint x="580" y="570" as="targetPoint" />
            <Array as="points">
              <mxPoint x="630" y="-70" />
              <mxPoint x="630" y="600" />
            </Array>
          </mxGeometry>
        </mxCell>
        <mxCell id="ZyMM9qRGssIg45qCTCB3-17" value="" style="whiteSpace=wrap;html=1;aspect=fixed;fillColor=#fad9d5;strokeColor=#ae4132;" vertex="1" parent="1">
          <mxGeometry x="210.01" y="-80" width="160" height="160" as="geometry" />
        </mxCell>
        <mxCell id="ZyMM9qRGssIg45qCTCB3-18" value="&lt;font style=&quot;color: light-dark(rgb(237, 237, 237), rgb(232, 232, 232));&quot; face=&quot;Verdana&quot;&gt;&lt;span style=&quot;font-size: 15px;&quot;&gt;&lt;b style=&quot;&quot;&gt;Microsoft Defender&lt;/b&gt;&lt;/span&gt;&lt;/font&gt;" style="text;html=1;align=center;verticalAlign=middle;whiteSpace=wrap;rounded=0;" vertex="1" parent="1">
          <mxGeometry x="210.01" y="40" width="160" height="30" as="geometry" />
        </mxCell>
        <mxCell id="ZyMM9qRGssIg45qCTCB3-20" value="" style="shape=image;verticalLabelPosition=bottom;labelBackgroundColor=default;verticalAlign=top;aspect=fixed;imageAspect=0;image=data:image/webp,UklGRoYcAABXRUJQVlA4WAoAAAAYAAAA/wEA/wEAQUxQSOMOAAABDn/Y/6tyWv/f3jszzAQmARImkOCSU6GpBKcXnBTact5YvcCRuhyruzfHre7uLXauuk/Lqbs7UKHI4JqSsJPZ+78ae6/1Wm+b12vNkoiYACz6v+j/ov+L/v+/eJPlld2zPfuY+nFN33H8zn1Mz6yqLEdx5XUbMnyfg05ovmH2gle/Wrps1ervaJarr15dQDc0n1DaZ/gQ6QmlUnn3PiN+1XzXU29/saEQ/ghxgyJ7V/OvRpju5Z4AKtWNnfWnuZ+s3NhaCH/UaKT+ZO6fZlHvpMDxMnV7nX7Xi8v8cDv2zUv3nq7qMp6AcSv3mHHFq6tbCuF2j7TaXjFDVrpCpVPN2OZHF7WFEWoXPYqkpCBxq8af+tSK1qAUsWRW2FPHV7nCw+u2x7lPrCiEEY2kzpXdPJFR6n/oHYu/CcIIJ4n60P6eoHArR//htZYwBum1P2jrigfqPvn6r1pLMWns9ao7iYVE3TGPrg/CGCX76DF1SXHgDTzqiU0UxiypJ4+3nhhI2DNeaQtj2Wo10MCf2+uIF1uCUkxTCx7Ry4U9r8cvn24JY52elj08wCvfe/baIIx5WjtbWqjr1HDFiiBkQFpxRYMEuV7HvtMWMqJ9hxDeMns/tCVkSCv3VrDm9r74844SUxp5sSZAK5/6eFuJOa2cWg5mA85d0lFiUENKw1hmUq41ZFSTswq+3N4Xf1EImRWV0QRc5VNlW4lprZxaDloDzl3SUWJcQ+cNhqvK/Re0lhjYPL+/hSmv/u/LCyETo9XGgye36qjX2kNmVnSUcYEpMfKWdUGJoUlbaSCpbOBZCwslxkZtB5aBUcX+T28uMbgmUwFDnUfctqbE6PI27Aw/nj3nIz9kdl9L68FOWc9jX2oLmd5KMhpu3O4H/HtTUGJ8UtJ2d2GGKifdtz4ocSBZnFTpAkyXiTctbw85UdmbUAILVU66Ix+EHEl5bStdOCE78ablKuRMZW/CSoKRRM9D5+WDkEMpb7BnAj7Khhz1xPqOkFONVUcN0aDhdRv9rzfbQq61RupuHlQk1KF3ft0Wcq+Vd6IyAJHqOemfb7eEnExv/9OaFCxk9zzziZVtIUdbrc6UWSBwy0vjL8otL4TcjTanxmfLifeS9ZMvfia/NQi5nFT+GTO5HrmtLFM7+rR73tkUcr565x7UlCnjrmTfsUde+cqKlkIIgEgrtJJjByR5qSyTHfJfF977yrL2EBSVef3eC6fXZzNlfJPqt/vUY6/Kfbl2ayEESFTrvswZsrvLFHd46YqquobpJ1x9/6sLvwlC4CSp7f1opjfUVVWkPfZzK/oN3XPyYedf/+D7y9dtaQ/BVFm9HB805x82WQ7t181jqrJUuqKyOlvbZ7efzvxN85XzHn/1o+UtIeCS1a8+NV81/2Zm0/A+tdnqyop0KsEYyR7ZUk3/objLqKbSzw4+9LhzLrz25ocXvP/1itUbNrf6IRD7RuPqvHx/gbr52gvP+d2Mg6c0lUbtMhT712RLPdKx5HUdPOOcq2fP1Vrf/+wC/M9rH+mPl6zGzUEI5PQN4hLzkX7tPwvw2Yfmaq1nX33hzMFdvdionnLrwvXftIdCUW3doG+dUh0PqbHz1oaCcq2hVAx0OeKD9lBYKkIZeZWnrisJTW0rIy55bD4UnHnCSPPGLQ5EB6HxoqzH7EIoPJF6RJj787WhAF1rKLrs/IIIwfk2uoZ/URKiykaWN3ObGKGZXlSV/zEUpBemo6ryRlFyg42sm0WJLvqv6L+i/4r+K/qv6L+i/4r+K/qv6L+i/4r+K4ohc5UoMSqq0ueLEqujKnWOKJGp/66SPFmUnIBR5c4UJYdgZBvhN61VjBiKrr3WiBGpomtcXozkTXQ1fCJGsCG6dvpAjJCKrt4viRGpo6v6GTGibHR588UIetGFdxRECGonwv/eJkKsjrLTW0QIySg7bKMIkTrK9l4jQuTeUbbzchFiTZT1XihCdO8oy+ZESC4bZV1vFyGKoqzzX0QIdo6ysuNEyHE6ynC/NvFhFUb62GXiw1C07fCe+DAUbdkF4gOz0ebdG4gOMl604d+s6LAKI/6wjaJD6qgbu0p0GIq6fgtFh5ZRV/2I6NA26jJXig6VibqyYwOxQcfqqMNJG8WGtBj5u34qNqSOvqqc2MiZ6PNu6RAZxnrRh2e0iAxSGIP7rBEZcp846PepyJD94qD7HJExR8VB6hyRIVNx4E7fKi6UpDjA3ReKC41OLHZ/UlwYFQ90+TZRQZe78YCzNogK1E5MDv1KVFiMi6r7RYU2cZE6R1TIVFzQpPViwk6iuMAhb4sJUhibybsLIgJlMj7wxC0iYvPvnBhtXCoi1G5x0uNREWEpTjqdWhAPaGWc4ITV4gGNE6u1z4mH5yhevEu2iQZSXrzgPqtEg9kHY7b2JdEgKW7SFwRigS7QcePuu04s6H0pbrD2ObHwHGHsemqbSCDlxQ825UVCvgljuOYpkWBVHCV/3yEOjMY4wuGfiwNpMZbL7yuIArzPxhMesVEUSHRiesCbosDouLLNBTGAzTau3HHLxIAZR3GFXR8oiAC05MT3kRtEAEonxge9IQIUxVnqzA74MzoVZzhsEfxZjbGeuqUd+pRNxRtOXgV9RmHM95gHfYbiLvHLFtgjaeIOez8XQB49pzH2vTNaII+UF384+E3Ie2UQMmD6/Ha4U+dpFsChH8AdocOEib+0Qp3BBBvg7guh7sOdHUbMXFKAOfxrZ1ZwRy6GOZTECpi+ZhvE0TUa2XHERxCn0WHIzhe0w5siZAkc+gG8ETpMmfhLK7QZTLAF7vgKtOkdkTE7ndAGa9ZI1sDeCwJII9QOc7rHrIc0ewyxB/acG8AZaYMMWjZtNZzlJ2sWwS43+lDmyy7IpmMXQpkmZNT02a0wZkizCg55OYAwemkwMqt3+FoIW3sYMmz2PgjDLMu4e34OX4vHuiyD6T9thS7VnHTYdsCzAWzRMxoZNzFjLWytPbCMdTBzbRtk2WsVsm/ju5ClGpGBk0dshiuNSRbCHnPaoUrNIWTjUR9AFSlk5PRvt8CUJc1KWH1fO0QptA4zu2M/gihNLjthp+M3w5NWElk6e58PTT5mHbbe7Y0AlkgZZGx52FpYWqsla2Hm6lZIMqgc9v7Jc5D0nEUGL9v3C4IiUrqMxTB57iYoUueiw+a9bu2AIYO9HEZ3G98NIIhUo8tq6B28HIKs8pDdKy5ogZ+tF2lk+exdbdBj76lBpncbX4aelxuJ7TAxdUkAObTEGmR9edYmyFFWIvtXX+HDjX+FRQ50Bz3WDjWKBrk8gDjmzQBmyFjkRHlwHmbySvICpk5fBzFappAfe1zpw4uvCHmy7t/boIVkHXKl2/gCtJhG4gssa/oogBTSTWXIm4nDl0GKsQnkz/Tv18GJPiGNPNr1X1ugxF5WhXza66ZtMEI3ocOp7sCH2yFEPWyJVxD3eKoAH2ilw7FlTR8UoAOpSfMMevt+FsAGfaY95NvUrK8JMkjqFPJu8rcrIUMTOvzb9dR1cKEtIQ93ad4AFdgsHT6uuaQFJkjVIC+by7ZAhL20Cvm5/z0+PPh31yFHu33v3QoNyiDxFNJg48OCbyQhX1Nf0wYJ1iA5vE0/ebIAB2gsOfzt7ZLzocDPkYc8XhqWK8AA5rTn8HmJcj4E+DnykNdLOlfgP8xpz+H3EuV83vNz5CHPlxof8vnOl40e8r3b917Fc8ogObxPg43Pb76RhPxPfY3iNWWQHAgkeXsLn229U7oIg5S9ZCOPyctqCMGw5yUt/EXKICRWXbiKt8yFVQiL3U5dx1faSoTGLsd9EfATqeMkwmPnWV8SL5GehQ5EJie/VeAjtCrpwGRywqvtPKSsQQcs93jM5x+fJAKmt+O8bbxDZkcPMhD7/Wsz32yR/RA43eyf1vDM2r9nCToQM79ZEvAKLUHlQGjqsPd55aPDUg6MJppe9nnEf3micaDUDH/I5w9fWoNw6va9cSNvyBuRHEilns3r+EKjIQdYuxy5qMAPaGUXB17TU97q4AVjdRoh1hv+YBsfWBzuOTBbGnLDFh6wqDwHbKvPzAesR3ltEXLLD3+f9dCWO7CbGPV0G8tZUgah16u/tYXdCI3nAHDV2csDNiN7tkEYzsz4uMBiaEg5UOyNerCNvSwqz4Hj0sBr1rGWJushKFcdv7DAUrhIGQeaUz97vp2d1AvTUg48e/U3r2elDdp4DkS72dPzAQtR/pwaF4E6Nf1Fn318lCkHrssa7vuGdSQ2aAe01WlLCiyDdJpyoDs9/YV2dlFGaoRvr/7mdQGbkL7ZeAjhbvbkxQUWwcUnZ8kB8uTEh9vYwypMOnBeNvDK1ayBymoH1CtmveezhG90BUJ7csTsFnag2Zh04N3NnrqowAa4+NQsOSBfvlfOZwE/t29nB+wH/nlFEHe0wg5EwHe7zHq1Pd6U1ZIgD9Hb8do1QXyRvHZHD6HfrTrqg464MqSqXBSA3rA7NwZxRNJqD8WgW3PKR4X4QX2KIkcYJkbcI+Nm01w0jkikXmd/WYgT1FTrOoIxOW5+SxAX1IIm6YhHr+7cRXFhVZ2HQjJp7pdBDGzSBh1R6dWd9kkh6nDhmXWeIzATo+6SQZSRvEsZFJtuzSkfFaIL9SmKHOFpGm9ZG0QTrbWNBkWoW33Uu+1RpN49yhIKUq/hspWFqAlW2QbPEadu1xnP+9Hiv/DLri4KVW9A8xeF6MAv/zLAc4RrZtJjW6NCka1AIVv7uw/9KPA//B2hqO005tb1wfZGFsdIR+BW/vzFtu3Loql0xG5iyCVfbU9WDTEofNNN92+g7YNQN6UdEezV/v7d9u1BvavJQ0Fcarh0ZcePzehLGzwUx27moMe3/riUPChDKJSp9sT3t/14CE+sdR3hnNr9xvyPJS8x5QhpNfnxTcEPR0pOzqCo9nqf8m77D6XeO6235wjsUsO/lnX8EGaZ3DWBYtvNTL1/y/dn9VRFKLyp+uiXWr8fI7UlFOLJ+r8uKnw3tNIkHWGeHnP7qsK3Q6OsdkQ6VR/4gPk2xlK1i6K9ap8/PrNk1Wo0pEr7VDki3i3P1o9rKpn6rCUs+r/o/6L/i/7/P34BAFZQOCC6DAAAMG0AnQEqAAIAAj51OphJpKMiISLxGKCQDolnbuFdLwDUK7P/sDSjoAaN7wS6RVqfPqBNi38TrcvXf7h+zf98+RvgHqq8deIcp38X/Rv+16Iv677A/4B/nP9l7gH6Wfr91l/6N6AP6b/of3M943/IfpL7gP6r6gH9U/5H//9qP1AP3U9gD+Qf4D00f3a+B39z/3D/93vU////x+4B/7/UA/+vXv9F/4B+DP1g95gfubXcB6l8gqc2u4D1L5BU5tdwHqXyCpza7gPUvkFTm13AeoxsWAs1oyvtSdvmxloqFRJGlNruA9S+QVObWv67Ad4vhbKbt+9ek2QzMVyByCR1JEvkFTmZE5TNaNUwY1S65cSUcm1k2vTH6tswqc2u4A/swqwT27pQYoPBSdAhCJBLBEFgn+4p9w6sPeF12zPf/8p7ZDjbdG30sx+B+Tc9HHy91K0kTUGUi5WD4qEOE1i9L+H7O7PgAoK/kRYQ94/DzXZwfG5xFc93ZEQsEmm65NLjtHbwI3S8JBF+KwBak61cqfPUs5w13OqeZerhtewEfXDaHb/U5tt4PWXYGfXo32o506D6k0/cXtrH6m9kH5B0LDjbXe/05YhsyXHNMWbU1xDiy7N6wm5lT61abYZ2jux+hDF+ninvNhovUrH97KhUfkBhBWZYmGazeyoU3gL6OxsbwqNlQqWiZjhVV3sqFDvrrUvvEOvfUhI8q4aZvUv8TIgJqSJcP3Z1Uq+J8Vq0SVvUnrgKAcAxZyNU6ZirIVA7NGnDPr89i3JTaTNTXHULgl+qalNdvJl84SNS/7iCim3lmkhLmYeSOpICiRhryZ1AdgMbeP8iwW5KlIY4tVu1Nqq7zz2K9PJtu/l8ErVnHUZvBLVBU4Zu7l8iTBCsGq1SbsKNMN+pfIKGbKSM5lgNTbqRbdBZcOrPfViSaAD1L5BUld3ickk51EMuSrXu/O6ZX1cQFq4tVw0zegokYr1xZiW1NIMTc6HTK+riA8kXFquGmb1HXz+aNOGJ/DLhjR3wFcEeFbyRL5BU5tdvKG1VdfZPX4H1cMFc/Mf4ZfIKnNruA9S9ubKSM5pdZ01eOMJXkM1o1WXZcWq4aZvUvkFTmboZtS/vBoSQk9y4NhDL5BU5tdwHqXyCpwyHHhfUvkFTm13AepfIKnNruA9S+QVObWoAAP789kAAAAAAAAAAAAAC05SSueGxoGFK2+e+JIKdy0VNkLXT7qi2Mcfei7nV0S+SaTfZWqPZUIQQBvPkQT/Hyakv2g1IE5Pd++rvNnaab8fh+wzwcPYpkjvX+GX7vcVuItNHslJCJn3Q6P/nDS5ZEUbZEdkYrwk+wBRvZ1tQSYzh1SHdaCOYgkh9gtcGTNW6df88MXbj5DH6ZMuKRaCHL5IyMnHziBBOztx/rJfaf1lm9r4opb0gPYFbcZLk8RF2dMCQAAAF92271l2CBGc5oinzj7Bjmx/eeJdBgpGDRJcp8lFrq48Jyw03ebACmRL+Zc9T4admDuAEx+ga3DfM8IferC4Qs/kqvjisvSzDW5CcIWXwa3AXA0+1GeplP91eiX7fFSv+vuws59xms7ceLaVI1BrD5pKQ9W9rRgAAvu8tGJ3FlHPYwO8wyOLlZ69AYdsC4DeocHT/VtahKI3uY5zVTvnyp410SBXBF34v/+nkHULsd0g+riThEN58vMcnB8sDZGYSMI8OTeOqlHAw+7YittnVzYQqHejvnBDBr4zIEOKDCOc3gnnt95aYpuZHKofrg+5HHHLH4z65v8gAgPvcU//9YEM4nkX1C8N1vPPkdqLk/vzNdGIeABKNnLsRCX/vdL+OPdc08YW2tVjOYJjRJ0rjPvGSUo+xUfks/6xjHv/os13a1vH+JObMeOfqePfAQcuIlQl52aMG+BKeS7zECD6Pzt8dm7FRIZ+/499jwCKlz1wWV5NMCScvRQFvl8TVvgmdO8EEEv/0EQ7e0vPNkUxP6ctz7//7gYqrYaGtTpNYM/7mIW+NQCj34IG+MA3b8f7C0TzJd1DpvkgHu8zHyn0U5xNaUZ9uEAIglT5x5RmLwMcqieLkfk2rF/chv/+r/GQG8N+D0AadW1+K8FX6Xbel2kZZuz/z4888JthafsvGfhdJehZqAAd6sBv6ilnR9ZfRxnIiLnR/wJkvVOk/P2Efefjj3LHnvXEE8ikvoobll5PBnRLAATPuAha2YWLCSP9NsZoCPpj2YjzGYAtc4pmYORXEfDQqSk5lvgWb+ZdXWMTlgUmovKTxRwGh2v9WfEbynaf/01qucwyND31ttprKVxiHvcO/RPjbtGSZX6PJaca0ijIqqgBbzByjOn/zYoqwR8+GjAR1RknDtnWADKmFw1rIWd0eWvPLLRhUkrEiLkWgVil15TSr0ijeAwRk81bolvLUIdjw9lQE4gpAjymveVfsW7ioZGudIDfofcoasZfDUCppBICTCFKOc8lckuRmksQt7UD4k3w1PuYr03iiUuBdA/MXo6XDBL2tdyE+baRdmkMt8T1EmjXBryx/F7/a0DdVqVpLt21rjZ2o9/RbS08rObenXpuo/m4n8yi9aU4ADAumMyAsbAikIN+MiR+FbJ1u2mcfAf9s4u8ehnjeg303HBxpj+67SKnOO/srnsRFR8jEqhtV5zRu6rQyfSHqqNl04wZ0NGRIZW7qSS8LJ3mH7kdYb/B3nCIQtRK/V6GXJ5BUIJadz1RA/PeoReBw3d1EHp5xdtZ+gcEv13ojlZEc7G4DLYCmynubt80xtLBRLhFkM6JVxPuFvHYPgt2UZuV6dUfmGn8eTk0LQuOBIJVOXRXQASt6f8+xWHrEVY1HQS/NXfrgb67N5e5caGbmucOyccz2yFitYcAJBeRlMD6DQzmB04/z605HoGkqimldjVI/0pvkEOLcchoUGV3uTe5mugqsw1IEkwNPNfTS8OF6N8vlGQsq8XIAVz/uQAnmN9B0dmAEi/YKP95QEQ+SHGn5vQM75WTaNmBaDRDL1sGo3XUkdDExoK/d9WgP+HErTGDsMgseMnP3EOccqnj4xaQM/tIHEwqzOgUhoT7SAa/JrfU8wCa9JqgyvB63NDEnX+rQPTZFvR927V/xf/vjKnoK3y5fDar2xToezUwOSOsd3XEe8Y7iTOwtX6XbF28V1U/ZOegakmLm8i+CTqyf6+qL//whjj5gZkYT66o8giK0E+cRQ+vypENNMAEn+QYtpnP3n75ngwucDivEhF/XZYL4uXIrD6eXP38IUHPgvc/28vTOtAzv036y81qf5jKGXMalwDgcjATeApm17xDAAXSedhZuwH/AKQlrIADvC4IoFyUDFmsDGc/GluyjOOaFxkpsvChHemAJHPopL+CWF4cdIoeq97vlO87fvqIj3p56AiUaRx2J0Cnb6uPxp9VgWWWrTc7H134h/2ApWuBY7jeP4Afz+cbRPeOr41GTwVPMSnhrVPkJXFiQNCSoUU8DYMFfbXzEUDeQcZ7zi7JJdJU0Pxe/0zfjo7/80dTwMFy6cSHr8OS1tSgg+9crl8N+8MWpsajJUTdXXguZ+ZvnTJfPkuDHLAA6MU5ISrgZYrC1ja15/5WnC+ntbrRdTzEp93HMmsskr41GX345k0wVHaayvt1g0LJprsj8noEEr7Gvg0ur9KCtpYmkzQA7M4s696VXx407N57LECroAr/jqHp8eMdTlTO9xAABac/fkoswxIrKibRuMFnGXp0HejbCUAZOHr+QyunXrl2DZcGHU3pGWRYb1Hau2hL/yLNoy4XBWt2Zj858xYS3MOBBNV0JHUeXgN2OqT9TQnbs3nssQKugCv+Ooenx4x1OVd4AAAN/6Pu1tURv6+1ZCbrPx7Y/0EzlkhevIHAklPUT3PuILm0o+1VhEctINpnobqSrRbIfC2Gxr8iZdoytuPT2aDmH3BAKQ9ZNm54Xolxjr5iOuiiPr/HhSPKR1ygAAAHzE22QhS1bzPe9WPbFdYweV9E3hOySp2dcsr5lp3KkdE4sqZ6G9/u34Lagnt12XVPkdlvoKMYdH0vfDOjdDaWHv68iyx/auCuRxcGBb9v6ZfzhMAAAB/P5xtE946vjUZT4J42vXmGvaQexG3hErbuWDBFvrG9QUWoWLdGS5tKW5E/L5eQl/XO3l1O8rgNlt8vNt72ygEEDGqAMOpGv8ZwWoUy3oHyMLmg2yXSqBf2zCMwAYAAAALzPdKNL7PvlK/jBEZD3DWpxZHLQRjgBTW/WSrJ8tv0/cxFj7LwAs8KaODYNHv3whe52mYQwMvrFSR58CODyNN6Qv+m9yxb7TDQswhIFVfGEIiaftYp5xtxG8/lj8l1AAAAAAAAAAAAAAAAAAAAARVhJRroAAABFeGlmAABJSSoACAAAAAYAEgEDAAEAAAABAAAAGgEFAAEAAABWAAAAGwEFAAEAAABeAAAAKAEDAAEAAAACAAAAEwIDAAEAAAABAAAAaYcEAAEAAABmAAAAAAAAAEgAAAABAAAASAAAAAEAAAAGAACQBwAEAAAAMDIxMAGRBwAEAAAAAQIDAACgBwAEAAAAMDEwMAGgAwABAAAA//8AAAKgBAABAAAAAAIAAAOgBAABAAAAAAIAAAAAAAA=;" vertex="1" parent="1">
          <mxGeometry x="230.43999999999994" y="-80" width="119.14" height="119.14" as="geometry" />
        </mxCell>
        <mxCell id="ZyMM9qRGssIg45qCTCB3-67" style="edgeStyle=orthogonalEdgeStyle;rounded=0;orthogonalLoop=1;jettySize=auto;html=1;exitX=1;exitY=0.5;exitDx=0;exitDy=0;entryX=0.5;entryY=0;entryDx=0;entryDy=0;" edge="1" parent="1" source="ZyMM9qRGssIg45qCTCB3-21" target="ZyMM9qRGssIg45qCTCB3-33">
          <mxGeometry relative="1" as="geometry" />
        </mxCell>
        <mxCell id="ZyMM9qRGssIg45qCTCB3-69" style="edgeStyle=orthogonalEdgeStyle;rounded=0;orthogonalLoop=1;jettySize=auto;html=1;exitX=1;exitY=0.25;exitDx=0;exitDy=0;entryX=1;entryY=0.25;entryDx=0;entryDy=0;" edge="1" parent="1" source="ZyMM9qRGssIg45qCTCB3-21" target="ZyMM9qRGssIg45qCTCB3-30">
          <mxGeometry relative="1" as="geometry">
            <Array as="points">
              <mxPoint x="600" y="-270" />
              <mxPoint x="600" y="560" />
            </Array>
          </mxGeometry>
        </mxCell>
        <mxCell id="ZyMM9qRGssIg45qCTCB3-21" value="" style="whiteSpace=wrap;html=1;aspect=fixed;fillColor=#fad9d5;strokeColor=#ae4132;" vertex="1" parent="1">
          <mxGeometry x="210.01999999999998" y="-280" width="160" height="160" as="geometry" />
        </mxCell>
        <mxCell id="ZyMM9qRGssIg45qCTCB3-22" value="&lt;font style=&quot;color: light-dark(rgb(232, 232, 232), rgb(255, 255, 255));&quot; face=&quot;Verdana&quot;&gt;&lt;span style=&quot;font-size: 15px;&quot;&gt;&lt;b style=&quot;&quot;&gt;Azure Server Drift teneseter&lt;/b&gt;&lt;/span&gt;&lt;/font&gt;" style="text;html=1;align=center;verticalAlign=middle;whiteSpace=wrap;rounded=0;" vertex="1" parent="1">
          <mxGeometry x="220.01999999999998" y="-160" width="140" height="30" as="geometry" />
        </mxCell>
        <mxCell id="ZyMM9qRGssIg45qCTCB3-28" value="" style="shape=image;verticalLabelPosition=bottom;labelBackgroundColor=default;verticalAlign=top;aspect=fixed;imageAspect=0;image=data:image/webp,UklGRpA7AABXRUJQVlA4WAoAAAAYAAAAWwMAWwMAQUxQSCQaAAAB8ID///sX0vZ9fkmkR496CmMxxbKszsayOhtH7ycnU9STgzHKcLLayXLqnKxel9XrwcEULcPGGmGMiRkZpzIm0SIxaST5vbfO+cH3+/28Xp+zJCJ8QZJkSZIkW0j10nr1OzrSTUxN7Vf9j1aF/iv0X6H/Cv1X6L9C/xX6r9B/hf4r9F+h/wr99/+/8tXoNHzO0vU79u0/dOT4J+evJN/7h77/+1JSUlKNUsqJXS/U1tWLZg5pX91nhQT98rdnMgSRMk7+e2yQ3RHQZmu6IFP65lYB1kbR8XcEn26Pi7IyImemC0Y9mR5pXz42eS9FcOr7d3x2RdVPBavia9gUb2cKWmW+bU2ELBPE2hJuR5Q8J5gVX8KGqHBFUOvLf7IgP38ruJVc3nYofU2Q62opuyH4M8Guz4KthjWCXv9pMwwW/OpvL1TJAFB6jLWYXTwlCHbcVugvGNbDTgi7DaI74VbCJEGx922E0BQYpYRaCKMEx4ZYCNeAdMU+aCRIVtc6WAWlZdZha9H7UEoNtAzaCZa1tAzWg2mVXVDkMZgeBlkFHQXNWlsFm+C0xipsIZAGp7RgiyBO8Ky9RbAVUOstwubY6YB6Yg+WXQTROlkD2yG12RrcjZkBqYxQS6CHYFpnS2AnqLbZAeGZoHoaZgX0FlTragXshdUOK3B+jWxYZUVYAP0E13pYAAeAtYt/UTnAyoqk3wBBtj70OwytvewrngutnKLkGyTY1p98R8F1kHslnoErtxj13hV0G0i94/A6Qv2pofLg9bwk8YYKvg0m3icAO8a76DyA5UXTboQg3Lu0OwWxE6wrlw+x/DK0nxIF44aR7izIPuFc+QKQFVSg3BhBuZGUOwez04yr5IdZQUXCfSA4N5pwCUCL59trfqD5Y+g2UZBuLN0+h9p5tlUVqPmrkG0y1uQDsl0G2wWu1RC0q0a1qXCbRLWrcPucaW8I3lUn2nTATWH6vTQAd4VntQTx3qTZLMhNo1kS5JJYVkcwrybJ5oBuBslugO46x+oL6tWm2DzYzaZYMuySGdZIcK8uwRYCby6/fLeAd9NHr6aCfPXptQR689kV8B307rC7jBXsa0yu5eBbSO76HvjuBlCrhaBfM2qthN9SZgWmwi8lkFitBf+aE2s1AVbwKug+AVJ5XbYTBmpJq/UUWMWqIo8p8DCIVB2Fg1qTahMJ1nAqOI0EacGUihMWak+prTRYz6iQdBo8YXTZRXioE6G2E2Ezn0IziJARSqcewkSd6bSTCtvYFJ5JhadhZOotXNSVTHvJsINLkdlkyIqgUj9hox5UOkCHXUyKyqFDViSRBggf9SHSYULs5VHxXELkFKXRIGGk/jQ6SomDLCrxjBK5xUj0rnDSQBIdJ8URDpXOI8XzkhQaKqw0mEKf0OIYg6LzaJEXTaARwkvvEugUMU7wp1w+MfLL0GeUMNMw+pylxifsKV9AjYIK5Bkj3DSSPOfIcZo7lfzkKKhInQ+EnUZTJ4Ee8cx5zU8PfwxxJgo/jSXO5wQ5z5uqQhB/FdpMZoh8QJvLFLnAmhrCUdVIM5Ukk0hzlSSfc+YNYanqlJlOkymUuUaTK4ypJTz1JmFmEWUaYZKIksSXOsJUNekyhyoz6HKDKtfZUl+4qjZZ5pFlNlmSyZLMlUbCVnWpsoAuc5niu0WXmz6iNBW+qk+UJYSZz5OA7whzh6dlrDBWY5osp8xCmtb3KHM3gCQthLOakWQlaZZyJDCVNCmBFGklrNWcIqtps4IhQfdpk8rQsp3wVkuCrCPOKn4UeUSch0H06CjM1Zoem6izhh3BadRJCyZHnHBXe3JsJc96boSkk+cJN8suwl6dqLGdPpuZEZpBn4xQYnQX/upMjJ0E2saL8EwCPQ2jRW9hsK602EOhHayIzKZQVgQp+gmH9SDFARLt4kRUDomyIikxQFisDyUO02gfI4rn0iinKCEGCY/1J8RRIh3kQ4lnRMotRod3hMkG0uE4lY6woXQelZ6XJMNQ4bLBZPiYTMe4EJ1HprxoKowQNnuPCqfodIIJ5fLplF+GCKOEz4YR4SyhPuVB+QJCFVSgwRhhtJE0OEep0yyo5KdUQUUSjBNOG02CBFLFc+A1P6n8MRSYKKw2lgIXaXWeAVX9tPJXIcBk4bXxBLhMrAv4qyHMVg1+U6k1CX5XqXUJfW8It1UH33RyTQHfNXJdwV4tYbc3oTeLXtOgl0SvJOTVEX6rCbw5BJsBvBsEu467esJwtWE3j2KzYZdMsWTUNRKOqwu6BSSbiznfLZLd9EGuqbBcA8gtodl8xAV8R7M7iC9jhecaA2450RYBvr5HtLsBcGshTNcMbiupthRtgalUSwkEWyvhuuZgW022FVgLuk+2VKyX7YTtWkJtHd1WIa3II7o9DAJaR+G7NkDbRLg1OAtOI1xaMMzihPHaw2wr5TagLCSdck9QXnYRzusEsu2k24yx0AzSZYRCrLuwXmeI7aTdNoSFZ9LuaRjAegvvdQXYHuLtwFdkNvGyIuDVT5ivJ7wOUG8XuqJyqJcVCa4Bwn19wHWYfPuwVTyXfDlFoTVI2K8/tI7S7yCySjyjX24xYL0j/DcQWMctgCO4Kp1nATwvCauhYgMaDKuPrYBjqIrOswLyokE1QgDwTADoPVCdQsCfEHACU+XyETAAAfllIDVKAPB1aKIA0DBIncXgYDIfIuBTRJUvQEBTVdUPgIIKgBojALgWrNRFAaCRgDqHgN8qpSYg4DSeKvkB4K/7VzEQLCvCaZwA4EqQ+msJAkCj4ZSAwyuRjENAPJpeg2D9MyC+KY8B00QBwKUgID5MGgumiwj4DRIXQc5DCYRLtW8gcfHeXwVKkwUACYHqHzojADQeSpcRMAWLYekLSKoBwS0d1cC4yacakKYi4FyA+pFOImASkK4iYIL6McMhuBCCozcgWFeFYzOg6jCajoCzAXBsYjcFRtfwmIAYAsHANIpqQbAbYCVANg1/E0SzEHDSB8jDLqaBKAkB/4rIQ5qSMFQHgnUFSB4uWBNCcxDwkQ+Sh+LOgNANTLbZHISA6wiqB8GTHcqCcgiJ2gCaB8Gzrnw6/3EcgmDfEgAlI+BdVA59lIyfRhAcOCFa77Bi2QJAdeGzAAGHlV77ETAXPb5bCPgXTX0RcNMHnqYCgOwSmiIyBYAagGcJAg4gcxjn+dgJ+A4B/6ytFwLuYLeMheAAq8WhefmBxtBZjoC92Ly0xyLo1vewORtudwTcDQBOCwHAD1HgvCRVM+CsRMBO9SJth+DEBLgJTEXnHRK6ICAlEDatBADpES8kJF0AqDlsViPg9+rF2oKAFagJuo/Pu2bFISAVtWU7AcCTsBcU/FgAqCVo1iFgs3rRNiJgFWaKPELAr19YBwQ8DIJMRwHAoxCIvu61gcwmBGzA6Pv1NYgJTkNAh5egLQLSggETB8EPYYJBuj7SHjBbEbAWpev6G/ASko6A1ijNoz0BZYnO/GtqEZjmqDvBZTtOV2NXQnBlHy2hGQj4FU73rWaEYgKb++RTgoDab6EzWHYiYLl6WS1DwDashGcidbdhLAKehkGlN1RbJ/luQ3B7HVT2IGCJenktRsAOpERmI6DJS9QEgk2PI4DSD4It1gPAen5TT6AcQMACtJ47uAsnUTkIaPhSNYRgGYkJVJ7PfTMArue894HJYQTMw+t8EvtQUjwXAT/H61wtOUVBMkgA8A1i50HqD5KjCJiD2DnGDmKkxDME/Ayx8/flFoPIO5gd7ewrAaCBEDmOgJmvwEwEHEFI6TwE/BSzczo/LwmQoQKAL1E7X/pggHyMgN+g9l4Ex/ARDcG6Jmrv85EXDY8RAoDL6tX0hQDQe/A4iYB/w+39qU6go1w+Amq8IjUgeMmjMuAYJQD4XL2qEiE4Yzo4ziJg4ivzIQI+xUb5AgRUe2Wq+gFQUAEaYwQACerVdVEAaCQ0ziHgg1doAgJOI6OSHwD+Kq9QDATLisAYJwA4p15lCQJAo4GRgICx6H1JjMdFFQjWMfB9Kx8DiwkCgLP4fQQ1FhYXETAKv0sn540Hu4uu+F3y91cBxWQBwEn1qjsjADQeFIkIGIHgiPUF4wHu5oyyEN4aVA0SUxHwMYa3tE6CxFUEDHGA4Qi4ZDywbeJSBsQthKoDYjoCjqO49d0UQFxDwDuOMAQBV4wHtM2eS8G41fibcJiFgKM4PiJjGhySEDAIx0c7JaGhDgbP/wDykYQ1wTAHAYeRfJTuDDDcQMAAJB8Bfx0L9TB4TjCUR5eoDYV5CNivnNMhBMyGQjIC+mF5VKRkJDQE8zwxUdkCQHWBsAABe5ST2o+AuTjw3UJAL0fpC8H54XwwaArnYVQjMgWAGsBgMQJ24nmE5/koCPgOAd0dphcE5wxGYRkrAMiMAPSVCRqDYDkCtiP6qh+LQFjfQ0AXRF9R524ABFpg8B4jkL5aVTMIrETAVuW8tiNgKQICUxEQ50BdEJASCIBWAoAnIQ4Ukg7By1UBYDUCNiontgUBK8wv6D4COjpSHAJSzb9sKwBIC3ak4McCQC2Nbx0C1ilnthEBq0yvyCMEtHWoDgh4GGR4HTH4bx6wXy3bGN5GBKxG9rv8NWYX/BgBrbD9dMro4gQAD4KgvarS3ui2ImAlttMAG0wuJB0BLcCdYvPQJaqTrOBOX3cyuO0IWI7uXUObzS00AwGx6N7tmhFqbN0FAN8HwLtLQ2dj24mAxcrZLUPANlMLz0RAU3x3xXsa5p3o2hnTd1sAqKuh7UHAAoR3Id9hZpHZCGjoeE0weHqGkfUTANz2QfzUp55Gth8B8zB+WuEuE4uCYF0P46fsZkUa2AABwLc+kJ8O38fADiNgDsqnmthnXsVzEVAH5dO45BQ1rkECgK9xPkVSf+M6ioBZOJ9+7KBplXiGgFo4n9ovt5h34uvkjl8JAA00rOMImO4aMxFwxKxK5yHgLahP91zSqIYIAK5ifSr1wUb1MQKmYv02BcdMKhqDw7OD/RYg0QY1QgCQqNzUFwJA7xnUSQRMRvutq06YU7l8tF+ypwYC8ssY0ygBwEXlrhIFgIYZ01kETHCZDxHwqSmVL0DAT1ymqh8ABRUMaYwAIEG5rYsCQCMN6RwCxrnOBAScNqNKfgD4K7tODATLikY0TgBwTrmvBAGg0UaUgIAxmH8hjTehKhCsY0D/AUCMAU0QAJxF/YOrsQZ0EQGjUL/gct6VSL58Wr4AgWUV45ksADip3NkZAaDxxpOIgBG4D2ZfcCW4b7MoC/wNRdUMZyoCPkb+RthJhnMVAUNcazgCLrkS1tux+C9ffOV9/uNd+rES/7HLf9eVv/bF37r617689tU3fgjuMjea6WL7mmI016yfKyZTS+xfbxrMLAtomsEkWUBJ5lJHbGA1jWWOFTTDWG5YQddNpZ7YwWobyjxLaLahJFtCyWbSUGxhdY1kgTU010R8t6yhmz4DaSr2sAYGstgimm8eAd9ZRHfMs4wVm1hj41huFS0yzvqeVXQ3wDBaiF2smWGstIyWmkVgqmWUEmgUrcQ21twoVltHK0wi6L51lGqSZVuxj7U0iHUW0ipzKPLIQnoYZAwdxUbWxhg2WklrTCH4sZWUFmwIcWIna28IWy2lDWYQkm4pPTHDsovYyjoZwXZrabMJhGZYSxmhBtBd7GWdDWCnxbTN+4VnWkxPwzxfL7GZdfV8e6ymHV4vItNqyorweP3EbtbT4+23nHZ5u6hsyykr0tMNENtZH0932Hra5+WK51pPOUU93CCxn/X3cEctqIPercQzCyq3mGd7R2xoAz3bcSvqiFcrnWdFPS/p0YaIHW2wR/vYkjrmzaLzLKm8aE82Qmxp73myk9bUCS9WLt+ayi/jwUaJPW2YBztrUX3qvcoXWFQFFTzXGLGpjfRc56yq016rkt+qKqjoscaJXW20x0qwrOK9VYzfsvLHeKoJYlsb66kuWlfnvVRVv3Xlr+KhJot9bbyHSrSwLninGmJjq+aZplpZkzzTVSvrkld6Q+xs1T3SdEtrike6Zmld8Ua1xNb2pieaZW1N80RJ1laSF6oj9raaHmiOxTXDA92wuK57n3pic6vteeZZXbM9T7LVlex1Gordra7HWWB5zfU2vluW102fp2kqtrcGnmax9TXf09a3ra87XraMFftbYw+z3AJb5F0C7llgdwM8SwuxwTXzLCshOI03f5Z6lcBUBLzzDX1SAj1KKwHAk5CyicJezT3KagRsVKp4PHtWeJOg+wjoqJQKP0aeVG9athUApAWrvxa8S7irpSdZh4B1//Bh0hrurPIiRR4hoO0/znPOp87DIA/SAYz/NkwU5mrjQTYiYLX6sYYXEGeN9wh+jIBW6kfr+5w3acGeI04A8CBI/XidsoW22nuOLQhYqf67mmfQZoPXCElHQAuNvY0fsOaJ1yy7gDJd+sYdIa1OHmM7ApYrnSp/Q5rN3iI0AwGxSivWxvEzQj1FdwHA9wFKJ97G8Tt7ip0IWKy04m0cf5uXCM9EQFOlXfAuxjwN8xC9YNmtkrlx/K4eYg8CFiitmBvH3+EdIiBYN1Qv1kS+ZEV4hr4CgNs+pRN34/g9PcN+BMx7CV/3nrNll1eIykZAPaUVd+P4WZEeYYAA4Fuf0om9cfw+HuEQAuYordgbx9/nDYrnIqCO0oq9cfycop5gkADga6UVf+P4/T3BUQTMUlrxN45/0AuUeIaAWi/zG/d4ouQW8wDvwHKaRgbH8Qd6gOMImK5easE7eXLE/UrnIeAtpRWD4/jPS7reEAHAVaUVh+P4b7vexwiYql5+E1lyzO2i80A70PrwAo7kRbvccAFAotKKxXH891zuJAImK61YHMf/yN3K5QP34jvNMxiSX8bVRgkALiqteBzHH+ZqZxAwQWnF4zj+p25WvgABP1E6ETmOX1DBxcYIABKUVkyO4490sXMIGKe0YnIc/7R7VfIDwF9Z6UTlOH5BRdcaJwA4p7Tichx/tGslIGCM0orLcfx4t4qBYB2jdCJzHN9f2aUmCADOKq3YHMd/36UuImCU0orNcfzz7lTVj8olTTrH8f1VXOlDAcBJpRWf4/jjXSkRASOUVnyO4//JjWpAcOtDWaUTo+P41VxoKgI+VloxOo4/yYW+QMAQpRWj4/iX3OcNCLZIKaN04nQcv7rrTEfAcaUVp+P4U1znGgTvpaG04nQc/4rb1IJgK+VSSidWx/HfdJmZCDiqtGJ1HH+ay3yFgEFKK1bH8ZPcpQ62T9eYKIRU01XmIOCwcnDDCvgww1VuIGCA0orXcfzrblIPlqfwMjuOX9tF5iFgv9KK2XH82S6SjIB+zv+W5AEZkt2jISyndeF2HP/nrrEAAXuUC6r8NRfmuoXvFgJ6Ka24Hce/6XOJJrAc9ZTdcfwGLrEYATuVVuyO4/+HS9a3EdBdacXuOP4ddyxjBQCZEUonfsfxG7vCMgRsV1rxO46/yA0C7iGgi3JVE2lwN8AFWsDyliAMj+M3c4GVCNiqtGJ4HH+pC35Qn4qAOKUVw+P4KYGO10oA8CRE6cTxOH5zx1uNgI1KK47H8Vc4XdB9BHRUWnE8jp/q9GVbAUBasNKJ5XH8XzncOgSsU1qxPI6/ytmKPEJAW6UVy+P4D4McrQMs/7nyPI7fxtE2ImC10orncfy1jv7v1GMEtFJa8TyOnxbsYHECgAd6a6bH8ds72BYErFSubyL4NjhXSDoCWiitmB7Hf+LcZRdY5kS5Hsfv5FjbEbBcacX1OP5mpwrNQECsHq7H8TNCHaq7AOD7AC1sj+N3dqidCFistGJ7HH+bQyd9MhHQVA/b4/hPwxypFyz7TvI9jt/NkfYgYIHSiu9x/B1OFAHBuqEe047jg/p8j74CgNt6a8bH8Xs60H4EzFNaMT6Ov9t5orIRUE8P4+P4WZGOM0AA8K3emvNx/D6OcwgBc5RWnI/j73PcB825CKijh/Nx/JyiDjNIAPC10or1cfz+eP7Vs/WwPo6/y2FbZKcjoJYe1sfx0wIdpRks52LkfRy/AZqnuZ6uh/dx/CmOcgqWI2fyPo7/kaPcB8BVpRXx4/h3nKSYAGCqHuLH8f0RDtIAlqOpMz+OXxvK+1quKK2oH8fv7iAjADBZD/Xj+G87yFhUXmGH+nH84Q4yyfwuKq24H8cfg+Ql6wl6uB/Hn+ggk83/UW9VLeSP47/vIO8YX4LSivxx/P4O8mvjG6eH/HH81jhes/ZX1sL+OH4tBylveueVVuyP45dSDuoeIh/0kj+OfxPHrQT8MVrYH8f/g6NMNruzSiv2x/Hfx/EklKP1sD+O/wtnnc3rsckVVNBi9nF8PA8Os8HkTimt2B/HX6mcpb3JDdbD/jh+SxgPbPhDpBazj+MjenCY2ea2RmnF/jj+VOU0pX4wtfwaesgfx88spRzXUiiuTrI/jj9POU+lZ2aW95Ye8sfxs8srBzYTiXf/IH8cf4ozT2143cgHTi6ph/xx/OshDv0Bgx+GYxZwP45f8Avl0H5nXr9X5qh4PD3vghLyR+N+21FME/fj+J+FKMdW7q5hTzqm/Xekfhz/nqPnxRvlmNSztko35sfxcxo4+78YHQz6U35vpRvz4/hZjv8q3ybLlJ73V9oRP46f2Uo5vtgMQ35p7KTMVJ8c5PzQQrmgn31jQncbKlPV7AFukn6qXFHUH8zndDllrn7yR9TsLabc0mjD/S2yxwcqkxU08Tlkf49hrhqM220yn9ZQpqveZ3g5XFm5q1ZfGmsGpLMyYXHfYuWLFsp1BbQ+7DeQxIFByowV6ZmAk/iegcqV1Vn/2DCzVetjlUlrvfUpQh6tcfPJzIJaLv7WFP7rd13ClWkL7bbhBjZuLPxloHJ7pVuN3Xgq8WaaZ/+f5KNvTm+ZFldBmboKPSZvOHPj+wwo+NNuJp7cMOZXpdT/aFXov0L/Ffqv0H+F/iv0X6H/Cv1X6L9C/xX6r9B4ClZQOCCEIAAAcBQBnQEqXANcAz51OplKJL+iIaJQiFvwDolnbvwTYYKDAA1gPPW5ActGpvblcB+gH9P9inEv4AdWD3v0l/ADjKfhB+N3qP//bYB4BXP/yRa8B+AF5JQV/J1kvrP93/vX+3/sXRabMeUun0xT/d/8X+mfzb28/Bfy3/R/1n/Lfuz7QHsm8wL+D9Aj+uegD9uPVF/zv7d+4j+H/4D9yPgA/kn+n///7//Er6h/97/6///9wD+Z/9///+zD/0v3q///yPf1T/v/uz///kJ/av///873AP/16gH/h66/rp/h/wL/Av7m+M4AO4yORfjGpXGB3pn0rooe95+573gLp6pR6pR6pR6pR6pR6pR6pR6pR6pR6pR6pR6pR6pR6pR6pR6pR6pR6pR6pR6pR6pR6pR6pR6pR6pR6pR6pR6pR6pR6pR6pR6pR6pR6pR6pR6Bddljy6J2JeIRYCsafnmT4pf91WvYlY0/M04j6znmWzRQqlHqlHqlHqlHqlHqlB0nAQkPtdDjesUgIhWSMennSqOAr0OSyYrkDhvLpPLpPLpPLpPLpPLosFAYSxQRvJz+kv9rIZosSVKnl0nl0nl0nl0nl0nl0YD7q9Wf1hmd8PmWwrXPs/wKRJR52Ds2Ds2Ds2Ds2Ds2DZ0YesMDwVGlUc7PJ45NgiQ0v+BtZ2ffmffmffmffmffmfbbuuzHN6enfbBWqJHqV+OFLMuxivClHqlHqlHqlHqlB0nKlUmKAv1zAyPpYWcqWleU+TGGpR6pR6pR6pR6pR6l1a93qrq2UQ8NMCJhvGl8LU/4CrtmffmffmffmffmffksHw6DVPvKGB7MOYHSg1peB38UxQPHAG8FPvzPvzPvzPvzLHW70DGfqWUjmNIp51Qc0cQL9Pvr9vOwdmwdmwdmwdmwdaPFnpPt12X0enaWG8U9dZHGxdo8XZlUZ4Uo9Uo9Uo9Uo9Uf69IRyrCR2c7hHYzG2FWbLBopNOyrunxivClHqlHqlHqkBVu9AwpULO71d0E6xgEoocic8RIl0Blm4Uo9Uo9Uo9Uo9S6uHLceeDpwHYbhjyxPx4q9Nr9rzlG0jKFUo9Uo9Uo9UoNOCQsnuBiPl2GvPYFJHJekNuoFbD/lB0Dp8HZsHZsHZsHZqy+7Yit//ON+gz0ikxPmpNpsVEJaTL8RIp9+Z9+Z9+Z9+SuICDFm2Bubqd2UY4gt8vBC0lmlJCB9pPLpPLpPLpO9hU8iN5uJ+OpUH1kl93o9TZepsw0XGhfKjDUo9Uo9Uo9UoOk5Ura1hGFWPWDjL5BMYjO/NhVnQM711y3YalHqlHqlHqlBnlMplXOgZ3ltQr4YXS/oMSmMHm/6KJBl63mK8KUeqUeqP9eKfcnC5z49DztifMa4jSd1NzF0VLfDrow1KPVKPVKPUvlbysbdyaubycLow4e9RB/gv9Mm02pZDpUvvxb8KUeqUeqUcsWYr68q3Pncxx6ad/mT28NNz0pml60yeEsV4Uo9Uo9Uf8s6bry2vGfxjKRJCoTaMUx9vp48cwRn74nfm4Uo9Uo9UoOk5UqeXSjlhGFXNb2tXvM479uTAb5PDQSzbynKJQN4KffmffmV7Z5jEeOza4XjAplYQ/voz1U2FWbABreYrwpR6pQauAO1gH/84+g/5+/FuZRAV5n0+YubiuRsRbT4xXhSj1SAq3egYz+Nj1CQo3suEckjPDC5WZ/cVHxmexIgF7Ng7Ng7LV4hDDu0nwjseqMdALj1QrezqwQvPmfkN8ulB2KlejFeFKPUu5reZ5vzQV8HARER/ZatW6+H/QM7HOuozu5SLxTG2j1Sj1SAq3egYU2rjiWy9Z0IKILlFIh1LrzTNuq17EqSfbYoL5vzR8Zn4WJwh/sHZsHZbpd6L2asnmdj3kky+JIPD5HfJmTdoaOXYMpv5dKDWi6W2Ds2Dst3dJ8I6rtV0dbCENu0nlyCGUqOQ+1bR/dGfFkw4olMppriKffmfbi+6vajhvebi9UxweYFUMdn35n30rEpy1PnItJvMMtHqbZoEJtGFPvzPWeUxT5HbzVoLS8cjhUpujD1Sj2m6UX6ZVGhyhxEimMG8rX4S5A+0nl0Xn73+ZCOXu1dnAPSODD9GpR6moO9GCySLJENwigC11GaMUD67zcKUegXXIfLIb3cRkbnutf+dmgn/F0nl1ZrWPSvmVCvDL/JeXRinIU35n2yeJEGudRT9Qz1c2E9lGGIKcKUkHsBOrhHcmcCG7YFa0oOnUy2wdmrCy3j3PhJYwgWHw3F1kAetgA1eL+MbvAPQfvo+hAgINJZsjGMPQFMaoaZqqPPg7LhfdXr5wD97QV8aBhDu2JVbNCuOwpFS6TzoXhwwr95CMV6IlCqtmSIBezYAcKilHqx4FW9XWuxOQ3fVa/NqKVip+0rSclFtJ2eOaHEt2/ZsvU5g5kKo/2Mublp780FYzdZY7aIlGqsMe4WE1i4HMQYnDbTF75Ifgqmo7/lDZLy7B3zEhHmigUYG/J9q3GYOzZvDqoFeAbtYOudP6MNTIgiCjAZTIWNgQzsrlZJPXw/2AEcXqwP3tcAAjW4AksK/5/lUf9F7i33Lqpv8y1OHIrvj8rLWe8qtfoiUKpaopdsyvRhUIYVBLNCKFqJniqUc3CaPOXt1iwUZz2LIeplFM/7YVr0MrhUS6gBPIjJ5EIeHQcI5n35NKANVT3Z/ECAnbPXoI4y3egL9U02BoBQbI2pIznW6axnuwbktMrB4OzYOtnQE502LTyzDf7F9PQ06JNPPXnjvl0nlOfW+TvNtlcca+w0hp+eZPil/3Va9iVjT87Dcnl0nlx0heHpufVd9n8luen/Ek147dk+KX/dLz2JWNPzzJ8Uv+5ZbxivDdQOiDV9n35n35n35oKhWbNKU5HkJhBvGK8KUeqUeqUeqUeqUeqUeqUeqUeqUeqUeqUeqUeqUeqUeqUeqUeqUeqUeqUeqUeqUcgAAP70RgAAAAAAAAAAAAAAAAAAAAEB+zAAZaN3H/sH4/HykyCTfeewahAq96Z1I+33lw/LoMBLXZAFdrkHaLK5asdXzUvQ8ALDgmMi6Yprj76cGByN4jNZroZ22U0zCKj87a9q9DN23MFm7bmCzd8ZSGgKlMYRIdW8aP0PvIlmwBalOzfXF6CAAAGztTR1Iu2W6gM5JujRv+xDUhH12MwQE7AbPiVRuZQSR/GToaGkB2U/A1C2pMvyspwLh9x6+v1scwkTvmt21rzmVV8vbzVWWNY5D5P1tBa0hpkbw/2pFVvSLUVYwvuiQJFNw17Wt+qY8Mm17nb46QzdpGWCoTAPmXB4+madlNuG2XqhdDMqdU7LNTslIG3mxN3jVigfDb64RgAAKfe937bbVFT/039qn/y3Sti4aKt9tHJ4+I5ChNq105YTXCmp0UntXyhPghu4Ym5Xt2DmAMgRxaVRclYAfie7LU6qkqD8yiEGAQQxIreRwMfQ0mLjK8v0YCP6m847Tt7aJPVeblijNUIYty9IAAAAOIblbv+gciEWHGkzpqLdtVpaNTNC+wILdOXA2IjkeXq8H6qk0dcmrxxP5AkspCHj70gDdyi2Qa4RioSaffYyqky1K6UrclGpl7JQiO0CjS9HDrTLslgxnzcqOAABP9ZepDpxU5LqeKxslkriKQTOUm+vUzazCPtf0nQ/rWzN0xNCqhu4bLOMbbFv1VloreP9UEqvpJs4xkLH9drfgoTH9RUFP01/JPl+pl749NJ4syKaUuA4xevv1n9f96QAAMVX7enah5qW75aicxswFU3K5TTazAj1k1n0J18BD5Zm3K+tABT3ZSurhaqGrqQ8yNr8hRZQa+QNG2XCwY7E29TX8vmjLQlz63b/FU/M/xX4nQBkEdwHO/aw7I3fo4AAL/VraOLBb9SXv1xemATlwpL/f3uzcQrdAmqW6Hpe5r4zhlXDM0KoT77vmPfyQJk0KfTRODCgsfwB0EPCLoUj8hObogQMdMgq8vnOJY8Cgo4UrBTTRBdgZDCSzTJlQ3APtN5oN5XntmAAAjF6ozSQjeTzcoyVx+40OEvtdp/gz7mUDjIh/ZcNiXjtuG6P8cKQ156UGsStjfVAOEqD0/SM+XlghgyTz5llSvJ+jvewToC0jrdhEZMUOVAeVHPzrCIYkeOWPyovzfL/sxDFvE10kQABnJVr07UPNS3fLWA/FXJL37q08HztKExsG+fSkXbcdsxao1HhRq29P+L6lBx7WmhOzHSbVCDgkB0Gvi2aI0xIS0Y95Ogc0AQL2VTmsMRvVV4nei2op/2if4jcqzVtIB67seAADaG5W7/o3AIRYbySA+ThKk2UONIEgtvQrR0df7jghCZq/UpmSnZ04luRnYsy7k3yGtIAZhm7GwN1G4lSJ0VbYqetKa2kRmL8WH46Y7PLNEPOCUFXGbnDB9kx1xWvrgdqweQABHBcaHE1tC4ks+efRDmumM3R6k2h9uazizsvYMusRQskubg9VmcSETbEXIR28yleyq31gCZhA63lqbs8kiZzaeIHiIEweyGsnHi4Slb/Ds5SDmEpqJcikoG5doAEN1B4ORXXtvv+geTazf496ITV+BaueR5+IJPonQRPKOIr1rZckZjbUMyVa83I6hrA6bav4sOocyley09c+RQDkH2bToMiWyyu7l/B2I4G9n/QcYkkcooqgGw/5gHrQYxLcNcJQ7L+ffkSyJ/IBXe9wGqueTAAAm6xRjyoCf8ooXjFrhDBwsFsSEYYFaytfse6uLpt09yzXjbXNrrnSlno878gnsmXp1H61vCCZjf5QjeBA+y7kCXHq8RohTK579vYmQc12hnBkBOG0E5xkWnCsw2FxHodHUmrIkLf+cAmRcAApINmHYtTrsD3RxxHJNTNnUATNTMo+2j7O+KCZO12UfXxtcQVCQYcoLpf3mzSVDcK+/znYcWDslLLM87R5SLv8cw9KfDPoThm/IdQQdw8csTEWHhCrnllbPsFJ/vgAYr+NiMoPw65e+QBvUZT0gJ3kFvOTEdEGq8ezGJng0T25oBPJ7rQC1TMJgWWAuavfg5Nu4GVHoT04wUwodffHbMwcZd3Wx1AHRgrOoipzO4iPmWf2WY9N/dBSLfH+tpxuakgAA9iygVhopagVp3SN9rUgQ56v3T8MWWgI2FAVUY00c3O2oWche1aoFJnmfwtWB8hBnFFdR7uBG8HuiH0fOIpQltaif6FJfZTe9qB2WMP7cqjI5UTXOAbQZSvYAkk65Z6PAAjjmkt4WggDeo7WclBGI6JZjDEvCHxbcLvI6iPDlOVeslTkJhu0m53Xd+luZA7wx4blEfjpHQy/F8D+8m2AnxWNGPnmF381iindbrtGDjUN6wqnHi4UPh3jgV/CCdXPiufmi9LnZUvehADd3J6sjiMoR5041LWIw9/9YXtSdSknkuRps3wMS19CYG7NGx/3CarQ5CaA7P15Cwe85mLtOPj0mFGqtnKH7weGu6f7QVedrspTyIQ7mVkVN701yq/aeujOWzQf1Qs5WQ9TCey6pKBf0AAVFRyx5UBP+UULxdAF2MTCT73uzi9CiJrB0WSQyjRBJA+tE9lGisHCMMXMUl/W8fjH1jUc6+MBbsQjS1GKZL6Pi/faUetPP2RYuop6cGEK6p0vogZfmuj00LycegAGhZbh/0Im7WclBGI6JZjDZdnQIgNJHURGE9erJMN2dyFkQDqd1S2+OdMtiA7LqwsBqzwPY8RQGwG16jWsOfbmP6eKPNwZ/W+Lox/J5ipdnx/7uS34feAvdEPlmFzFgCCCotwg5WeI0hGlC9fWJc0pODJPotmaWKk0ZW+LQEJ9GKG5VL1Yht9CWjUEXUv0Y0von5NeSfdjW5D1FnQ+r2WzEsy247qV3ApIfxwybks+QBXycreHHJh33Ol6Bs5zsvpDN1KaK5ByY4bs2x3dFE8LGG5e8OZtOuWb8AAgN6LVeyKdsgvv10R6kitVuc3hGQ3Ak8mIAYQGfVs2I97kcXktzEEd+r/LhmKLOP85R+PHwWF7vkYC9qQHldy/WuxMss2oFyLaI4welMxpJ2n3sj/kr7F5OVDI5JyMPEKEAWLMtKL/N7lyMQbHU4QpGIKV7zNKWh3W77MuW1QB+v8/9pzA9jXdRPCxivwAYsWJQyMJXFF+dD7iB59gSW2sYZ3q8T01oBW/0HhnogGNTNvQy7AfTqrAnytW0qCsNElXoRId1DBEEKS+JtojKTdFYqy0KrcWHdE6T9DK7GiMfqerxwbFWlJ9nN1TXYLg7lAnmtPBTsug5IXsfox/J5ipdnx/uKJ51g50/lxiuVo8WgHIwTOTR+SWFKXuqFpMi/ryDZllYD69zHY6mZrunY0rui4sZGNpzjkLN9cpejHGikpLkhfji8mGm61wUgBD+UEIN5qz1wpvYt2nUz1FtzeqhnFSiDX0u+OT+Xr8l2/XeahbAGb3r93ml1oVoxAWO8UiPMM+TzUJR/NCiELe/TOVJQL+gATftGk0fldDt/xr9La3+hDzM9Z4Kp7fKgbWWT1QMUfd0d/O78XQC2+T9REWBS394PFVfZyQ5eXF5TQifKzEXzDmU5W3iPR0cfYhLtZW34UxKfdWS5u9Kj7l5iPa3ZM9eTni0e69qhyGiY14GfkK5R/gBNw4fMcP4f35w1JHAHLTS+FH/A/bACQq9pLuw2aM54SSXYtCzJJlpezTW7plqDDJREjiWD877pKpustfLNYS3AY8haqIrh6cTCt2yVg00Spa3ODf/VwlTAVp9nOjkecWCc84LIb1y0jcdulAwAczS6tQU9wL6vMrwO4K/k0fkrdOL33dVZ2L+uxuEfNSEwCnpzVfaLVZpL5rOh0Y3rkAF6/G4tULgDSG3YtV6692ULEl49uRRXY0eFLt/6iwCOTybcNP5a97B1G8420+T/qPTcWwkpQwhh3T1n0SCnlyRdxdLirTOjWDe/fXbdwPAB3satlBoDCKcwv+WA5j6osIeYwFPWLEBFut2QT1kW+EVIKkk38eg5ud7osE/6JPQQvggH1h/IH/JmckOXlxeHogeQtyqg2UETAAq+HS+AtcvuXfzlhGoUHdfcvXT850lxbCwqywAVN+NwrXpOSv3Nb3y1G4XweKzh3NkeJjABkoYA+OqMKVbm4pcAOWml8WCTAUCgyYVcc75FQRsA2J5p0z+wehjCyxLCpPnRrjSnLGnKsi1MTOuBHmQtPd1CHCC6kFXSjXNKObkR9ic8ob6hBoWvq+MmXCCKzf58gtEj29GWbJnhW3FETFq972DqfLe5ej2YX/n4bJ8kGFsjndexjipbAstsC1UnVxsFs7B87lR5NH5XOOzm/yonootdc1eoTmE69iGEdgqkX4uRKPVALJuMtL6LvAcUIWPcu0+FbGPSVQ7sqhMAAV/1u5hwdFDfV0prrRNPa4+M1QFk/P1aZMbuiZOoWVgRRjo4qZE48TP+kQwAr9hGAL/VtSaUKNCtszm7RJpzXVtKtL3lyyFL1MCLoTjtxVsB5Ky4WGV2pkzKXXPfmdykF9r2coVzfP/JhIIIN+/ocqeZhf8P9mgM5Yh25bpvv/5avyEhQICe854mj4dnt74cL12UVBvYl3ZfFJLPXD09i4WnHgr18dcZsgKvTMmLzWsDM6F3l9+aMW3wSbyhnrymG/p6blq3cLa35UYbC8qSRLKPD66CT5lLA4T3zQf0WhxQaZ3eRgPpXR9yZsg5Ff6y0j6R5jd6oU1y8l8VgJohNtlBY9Eyzitpg4zEJ9dV7DEonwj6Bb5AC3BfLAAKAOYqj6u1LwZrIfTnvC0+SWJaSjyKQkmReudC90+TKUej2YYJTv02X8mm3ndwogH87nGaYN76uh8UKi3408w3W2wLKMR+e0MlweJRKDqBGgAarYm6aoTvu0oh/CopUEXaKvC+U0edrGRPSc4r9kZSdiZ1gJzqMM7eWsRwCwhv8aUsgHwk4n1L0gWBirIg0cKGqh3ySVobiGncGbpaZJiiF7QmVkVFR1OScmIqdKsunowJeEiU0JsDo4vM0bOEJPjGIvsAqPWBnbzTTKXG3Ge7tPc3/i7FawDqoC+PdWyxxkzBKmOK5HyyeVYR/zHmH3BBwib1evFgMn4L6qcJB6uBhSdJddGm17Z6bvUNXLvlyOPuWt4zBBOdupzvM/MX7Tb2RT8n4B3uBRW8DGN7WbQJw+HpeutGpnQmSgydYh1pMRtzXO4O65Hyyds7kn/MfXLiViWsG+JuqlyqRctcfkAnYdcSsyFqR3vjAkWOviAbUMeBnHbPu7jY8VXWinsal36d77EaNT84LP3ToxMLY/NxqoYcjR2RjiBMVLsVS2PXjTRV2imPvO4zQ1h7W526om/j8pbkJ+9iOWjZNgP8xIyNe5NDZvjJxiNOE9RpemCcJFDdAkPp4okAOjRKKG/199FjynUSgUNDmh6g7bL5cLztw7/tJWhkTWpbBsKUj+yAZMFdyQGQlMVYUrzWvnVRZG9xxK8ys6GjVexKW59U5aPH2VA2Diay9+jgNGa1CfyjwsfjXSwGlqiKQNvxLbSsOtjnhRCrVBBId5rjIorQd3l3dhEO6TWWiJ/J6gyOnBcf7iI/I4ycMYpKA3r4ST2rSJomHg8OmtD/EGlxRTsJ6SBqsioPUemVAgIAVunT4AyiUZMEqNfIqaFYeMlQbaGb+focIaaghcv7KuagpiBIQl2oYCUqiW8fKRMdJUmgVSLoEN68e6HuaoxGVQoTPtXF7suftCqB1V81I70o/X99o28PA89BhAvU2LioHn83gHIzLej9XdKv8YfA9bdaushcUt3y+5+obuxl/UveesJkLrFGUW7RO+pbIXtoq7RTH3ncZoaw9vtARQ6/ymIuKBcI/8eiz/LLEK2u16md8GHtehqvdVwAakhkCG4dRSlM+jcBn+lh3tphaFa47Ftsy0++oK42Lr8IZ+IkV2B9lvY8fi401kYhm1V4Kie85V65mmxpKrKfOz5zwuoYYIloYswsyCsVjzqXpx4Icq9cZtUBVZL2qTuPPhfai81J4khxOzggYWYHTXfZGrExtftSbXp9GhlWSOQeULAVGZ3GPKKjNrTXsUulOSto0Ej/VQF8oK4QP/bpX6ceM3cTjCmRE2elHrL6CGCgxAQFKH9v+HsnYRjc+DIAk2hX46T9nmWxN70jhOr506gYt+X9BF/ulDD8QP5Lh/NH9dAnSPRqO3geXGHKiDLeRs0+0FxbSHfki0UJ/n58sgGDIXaTVn9REK8Go36+BGvvJsfbFddxQ83GyVTkvA8MHbz0LBXQM7JMV0V9DRTsJ6SCDDxdjCf7hdt3l5pzBdDVQEtGSA8BTgeAIo0WbywirhfWFDvvPF0XnvtKD8OuRV/pKOWyLLiihccTNXAcdDSJBu2ntit3qw8G8x95ORDbFbvVQabKaU0Bv644/WIOJLx8DGOlgfLhlbf4LC1XxDyN3NgWpH32P4ByqVqYcOf7Gqd4hmamLyui4vrFNTL8yRU2gB9zimv33/ummwV8baedcndf07UyEsYXhaLUaIgDmrn7Jf62yDoRvLXdtoq7RUYKxeirW05pN7s/R4F7sbkUZE5s/ZVu9JGfxSHyzAaRMcKNEq1vubTeXACRzSgpdEYldsmYPssnuHDxNct0UAzyDGRMfCltOLCe2eoHU9fPSntsjW+BWde7+vIeNxv8k0W0u4GLyrWliWbslM5o1tYwcZJA7JOXA3SN36gmypfeeR/045fyrtpOkT0Zupviuv5IuEKW5N+7P52vuY51ledBvVb9Sc0x/j0cWqISdYeOa/HVFo3+e8dEmNWAs+V1I5QoU0trnMMjxlXa9ThwxYF3Ft7iP93JN9Lq+LjME0ZBHjVtN/booAkHmg7pVs96s1lxkoNykyo/pX3VjZx3b5Pr9uQuflvhOHK808sGIJQ+rO0fHwdQLFviHw725pWViTWjix7/l9CGDv8vUCBdIq/JW6h3EMrt9pL60bVTxMzQZGENn6wQMNR/oGdkmK6XKpoHr/extXJG5RpjQU+1JfDUNKuXU/CWpL9xuIjpuqsnuz9wHSAPpBw91k3r9jQbr3iaYbfNa+dU9RB7wR1Meb1Ip7fvRX7LVLK9lwGIMtoFBKfXDlQZSDWymrG121/qGspHPpXwdTlYf6DnHG5inzlYf2Jei2XecD12TPjdHe2p4IiX9DE0lQWeTmampkHUSBzcCdqSvrFNTL81yIUW6VnoQ51liDaoujZol1qd+TZbbqwbSaIDQdpaAMzLDu25g8R5iXHpca8gNzP7rcvaf96lUX04Lcf91/mPiACn/6s9riCcKWFaTnN9sfB3SoeMGbugWS4NPbwuoNnh3KQq1VjkVxWmpxPCJUxom/cG/qQp/ZYFoIAo7eioylQnxtLFA3eyDL5DW9f/5pHevLXQ2yj3tGB1Oi5fHWJka/tfXymGdFJqxiN9KABt6GHBtelPHO66XBWCfMRY1po/QR/nivVQWPI1Ly2A9zKvO89dsYHNTNV1sSfhmABb6cEVffLyHmaSGQtMf+RWhaGBglwbYONdPDFUhw77PC+eI/ymJJ3VqXAZHeAMWVqybjrwJNBmPT2NP95WpcrpN8CaEpeXZDe+IxnY6OZVmdGa0U3PV1oTB6p1LAz1kaz+2MP/n0xxphxRn8Ystfwmodm8s0y/6+1RHjMN+IUv+dn4VbFUE5VzPlnQesjVBfT5qJitaw1XFVWqsqoAXimPeZGbR+gTZERIBvCcHC4K5oHp64A24uTRXUBvfWBp2/BbTIy0YZg7M/VxRoXXJv4YInLIchr5GSYocnd4zqn8SuU/zylC34Q3V83tcxBfgheviQwkbm2bAv8heoA4bdYuxWkFLRTuZY0yf1JfuN+F+hnyGMSp8NcEc9a7JIDxeCCP6Z6g0yVdaLN5KDyn/dnHJzWvg3/x4qtG9fV2wwmD8xynItv4eMC0IVMjCufGBv0YGqyfEIy/XM/rKoaF6kcQdF6JZiSLB+g/nvQADVjs7zjuzf0ljUfvvzpX7YJX+YoiZifZKBkB7erB9zHqvlz3v+kAJylaOVrLJrZvdbHJZqAK9vxBe7+qo6H123jnJvAIpmc0STu97FRvL2anfMXlYAAAAAAAAAAAAAAAAAAAAAAAAAABFWElGugAAAEV4aWYAAElJKgAIAAAABgASAQMAAQAAAAEAAAAaAQUAAQAAAFYAAAAbAQUAAQAAAF4AAAAoAQMAAQAAAAIAAAATAgMAAQAAAAEAAABphwQAAQAAAGYAAAAAAAAASAAAAAEAAABIAAAAAQAAAAYAAJAHAAQAAAAwMjEwAZEHAAQAAAABAgMAAKAHAAQAAAAwMTAwAaADAAEAAAD//wAAAqAEAAEAAABcAwAAA6AEAAEAAABcAwAAAAAAAA==;" vertex="1" parent="1">
          <mxGeometry x="227.01999999999998" y="-280" width="120" height="120" as="geometry" />
        </mxCell>
        <mxCell id="ZyMM9qRGssIg45qCTCB3-30" value="" style="whiteSpace=wrap;html=1;aspect=fixed;" vertex="1" parent="1">
          <mxGeometry x="414" y="520" width="160" height="160" as="geometry" />
        </mxCell>
        <mxCell id="ZyMM9qRGssIg45qCTCB3-29" value="" style="image;html=1;image=img/lib/clip_art/computers/Server_128x128.png;shadow=1;" vertex="1" parent="1">
          <mxGeometry x="434" y="520" width="120" height="120" as="geometry" />
        </mxCell>
        <mxCell id="ZyMM9qRGssIg45qCTCB3-31" value="&lt;font style=&quot;color: light-dark(rgb(237, 237, 237), rgb(255, 255, 255));&quot; face=&quot;Verdana&quot;&gt;&lt;span style=&quot;font-size: 15px;&quot;&gt;&lt;b style=&quot;&quot;&gt;Linux Serverar&lt;/b&gt;&lt;/span&gt;&lt;/font&gt;" style="text;html=1;align=center;verticalAlign=middle;whiteSpace=wrap;rounded=0;" vertex="1" parent="1">
          <mxGeometry x="414" y="640" width="160" height="30" as="geometry" />
        </mxCell>
        <mxCell id="ZyMM9qRGssIg45qCTCB3-32" value="" style="whiteSpace=wrap;html=1;aspect=fixed;" vertex="1" parent="1">
          <mxGeometry x="414" y="320" width="160" height="160" as="geometry" />
        </mxCell>
        <mxCell id="ZyMM9qRGssIg45qCTCB3-33" value="" style="image;html=1;image=img/lib/clip_art/computers/Server_128x128.png;shadow=1;" vertex="1" parent="1">
          <mxGeometry x="434" y="320" width="120" height="120" as="geometry" />
        </mxCell>
        <mxCell id="ZyMM9qRGssIg45qCTCB3-34" value="&lt;font style=&quot;color: light-dark(rgb(237, 237, 237), rgb(255, 255, 255));&quot; face=&quot;Verdana&quot;&gt;&lt;span style=&quot;font-size: 15px;&quot;&gt;&lt;b style=&quot;&quot;&gt;Windwos Serverar&lt;/b&gt;&lt;/span&gt;&lt;/font&gt;" style="text;html=1;align=center;verticalAlign=middle;whiteSpace=wrap;rounded=0;" vertex="1" parent="1">
          <mxGeometry x="414" y="440" width="150" height="30" as="geometry" />
        </mxCell>
        <mxCell id="ZyMM9qRGssIg45qCTCB3-36" value="" style="image;html=1;image=img/lib/clip_art/computers/Laptop_128x128.png" vertex="1" parent="1">
          <mxGeometry x="-20" y="120" width="120" height="120" as="geometry" />
        </mxCell>
        <mxCell id="ZyMM9qRGssIg45qCTCB3-39" value="&lt;font style=&quot;color: light-dark(rgb(237, 237, 237), rgb(255, 255, 255));&quot; face=&quot;Verdana&quot;&gt;&lt;span style=&quot;font-size: 15px;&quot;&gt;&lt;b style=&quot;&quot;&gt;Klientar&lt;/b&gt;&lt;/span&gt;&lt;/font&gt;" style="text;html=1;align=center;verticalAlign=middle;whiteSpace=wrap;rounded=0;" vertex="1" parent="1">
          <mxGeometry x="-40" y="240" width="160" height="30" as="geometry" />
        </mxCell>
        <mxCell id="ZyMM9qRGssIg45qCTCB3-75" style="edgeStyle=orthogonalEdgeStyle;rounded=0;orthogonalLoop=1;jettySize=auto;html=1;exitX=1;exitY=0.5;exitDx=0;exitDy=0;entryX=0.5;entryY=1;entryDx=0;entryDy=0;" edge="1" parent="1" source="ZyMM9qRGssIg45qCTCB3-59" target="ZyMM9qRGssIg45qCTCB3-30">
          <mxGeometry relative="1" as="geometry" />
        </mxCell>
        <mxCell id="ZyMM9qRGssIg45qCTCB3-59" value="" style="whiteSpace=wrap;html=1;aspect=fixed;fillColor=#b1ddf0;strokeColor=#10739e;" vertex="1" parent="1">
          <mxGeometry x="210.01" y="720" width="160" height="160" as="geometry" />
        </mxCell>
        <mxCell id="ZyMM9qRGssIg45qCTCB3-61" value="&lt;font style=&quot;color: light-dark(rgb(245, 245, 245), rgb(255, 255, 255));&quot; face=&quot;Verdana&quot;&gt;&lt;span style=&quot;font-size: 15px;&quot;&gt;&lt;b style=&quot;&quot;&gt;Semaphore&lt;/b&gt;&lt;/span&gt;&lt;/font&gt;" style="text;html=1;align=center;verticalAlign=middle;whiteSpace=wrap;rounded=0;" vertex="1" parent="1">
          <mxGeometry x="210.01" y="840" width="160" height="30" as="geometry" />
        </mxCell>
        <mxCell id="ZyMM9qRGssIg45qCTCB3-58" value="" style="shape=image;verticalLabelPosition=bottom;labelBackgroundColor=default;verticalAlign=top;aspect=fixed;imageAspect=0;image=data:image/webp,UklGRl5dAABXRUJQVlA4WAoAAAAYAAAAWwMAWwMAQUxQSNU9AAABGbZtIznCamfP9d+x+0k/i+j/BISZPSLSETpkpqFJEOmRJMATasDExNUR/wTHIUvODhrS+JY5JzBGtW9VVQCOdYNvZ/MobtvGkfYfO7lenxExAXSUWVVLYizYN7H3pqAPP9Le+yEdQqBWZWH9VtukSXazbaT/XrMzrojIyr+awkaFGTAP+uXA1mEe9LHg0uEddLpKHVbQsYgJoAXZVt1WOnKiF+B1sJaQ5Nyp+dbDbPu7y41jZFu762xvdrY3ONubne0NzshGzjl2scs555xz9gZne7OzvcHZ3uxsb3DOef7v+/7+55DD5fycHseNf1BOxOfIlpUHU4kl5TQYV2pV6WAqEY8Tp/phVBGfKjmb22gw1bIyyEpnVGnzktUHqhHxq6jKD1SZOE7anHcHp9tQSdUB1WicRacP3Gr5d8425UQcR5ZS5QE7wRXXaUA12lA5f2C1g89JKimnwemm3TwYJ9FZqg7GlQYRIQuyrTqxDjEGBFwiS6Lj3Mfvv9ajNb3+x+t/vP5HKP7t/OIHZBxznwvjWbdj0r11+JmRnHXzJt2hso9SUdYtnXQv9j1MRVk3edIdq8vbJaRuzj7ewLFPd2Mf7+dVpu7AEu/sjZxOfgvv8bMSnXVZ3vJHkjrApRn28Z48lNTxLnA8HXkvhsERpD3ZJV5t8unrPRSjjnOJK1B5IZnrBG7pdIr7ePGp4O4Mkspznd8uXmj7XVxRdsPRLfAqpOtU5h24kdNQ0uvQltgXiNdKfOqWK0Pam+gcl9gNkPdpXRHCM1xgZx66cJdIzDOX9zqX1TsrHdwScxQXWnwHFFeSQ30T0QH9MM/CHvA89gK6jkujbNDhbOm6j93S4T1ZVueiOqsFXrPEHCHPv4B6kHUn0TULOpQfXreF+ZR4N7bKheu34YQWSHbaFyfoyXPudqsvlroQKZWTzucoYK8tWRomHD5ZyTVMs4KMUZxzWch7l1nKqcsEORfgLgcXaeXCK0ei6K7Qhh4J8pjKM4TFKDb7fLA883YUA8zoquNaYKcfX9r8PgxBQQbwSfMetMUSBCGCyJRViClusY6jFn2MwL4ASNLzkMGx1wkOoroYUBAhCJPQuP8ubr9ETmTX5Ki8DKfGTWm7iTYCbkZIPJ4AYLdX8QyGT4ZNZZImlAOznyhPuGwHGgWJ5PubxQkncSKPTph9A+ZhXARGLT7BZjQCqxygrMDKwFQpnNdB/IRldax12agGgvIkZqnFqmoJovlOf0Xe26DNmI+OB30QLIF8XDnscpGCGNmsuTV9mSSxDAxhMEJEEcOp2LZUbGlEgOTzN1hecqsbb7heh+X3lzAWLYLMIdIE2zcgplfREGJ+F8VrKfnxcvPt0EMiKhcGKQZ4XQR2/Fh5bDd03cGUQ5DHI59FETi5LZ3AlFsK+JsAcUkapsBrWnE5hU4rVl4xBHkACkiqOEiEs4Q/+x2et5ldCraEykGOOJhF9jDSefNkW+wDpMQbQGkhg88UZq3SgTw6YQjCw6HLxSx1FXtIzFMuqyBI0MqotQIckCvBrdrmLQfjIFjJSD2PQAQUIqvFENtqLAPSMpRa1vajtcCGh+6xlfiUN3NYaKLkGKIRpFHbBTSYYoOmFkQEj04sA5tyDSwgaCkwAWpJgZ7mvgfOQL1ig+CVA2gQLIhXsTco5qXcYSwkWQGAKIhcOxXCCEL5vOHDZL9bXQaWX44FARgFjLdkGK4KHsaDyP6R4HA1DFsZIFAEIsRaiqTJLR5PDKH49QgAukEE8IuRRBmPg25MMQQlWtJnexCiBIgcAL9eadsfazHEkFA1AeGBWoGkePwjmdGWsvvIW1caRW3bCVAEkQRRm4katpv98dnU+NmmLVuAkcIbVcDQYKBCDU9IBsaPhXTPG2dsMBGLjiyY8ESz448c8PdPYamBkSICi0aJkgVjAd2DU/RwmHr4fHrxbQaZ4SCqR9cuKgdJsEkmiBblRJLFo0QRE3DWnkme2fg462hqA9CynTyFUnegGIVws5OEuYNW8zklws7OsfQQGKMwZAlpQrgEaIwNgImeZueZ5MFeg2oGHPIccaQJFDN4hICCkaepuce2c0rbOI9e6jsjH1MkBBMwaQiALdpZhHWFUAsGoUVPCgDi8qinBAgA+hnYfo4p01n7vWOgRYjKiLYEYBgBSpun94h6G3BI+h6Jbw3rKWJRTODnR4uZphkNEVd8dOW7rtsAyRQR1YBU2ZyjcwSJcjDoIPFIa/DMz6qxbX46nMcmqlKH0AxIWDxHq96aiMstpSiIxeAp4DDA6dkGRu2YPMw2soRvbL1ygGMgyaAnpgotoeUMQSDH7uqp+ojvQARnM47o4vOSkMCAKA6JBiKq58tDhASIAYhmMulyHsEyOJL2WEocVtxaGwTCoQ9AGEAlYAKOmDgOIg6GT1wC4Whg6Bo+tb+DliG4aEGggAuM5yCPmNHRfr6NibMknyb/XEUsLQgcRkTOmQQZYXJmJce3KCAwEGXmoRBC6XKbiyBSAGDbOcSjBdOIaQIisI6MnjF6FgQknm9mQaAaWHeG8j2/L8Dv/f1IAaXMYBykqo2Mql36kDyyPao35p/1N9nENWj5im2nEFfpdmpTLkfgwDyK4Uk8/7S5CIXJOcKd6ZuRmICC58RDBSAhEAOARIT8HrySlm00qqtSJ0qcvM23JE4e+H7NXHizb0rt5+l//1Dtdfo+BUey9F1WaWL0LQTw648J0pj+Jnq8mTcuyPhY5KSUfDgAKgiDkM45RoHRBNVR/ovvAKMIcTmyZYi++6EmDIdzkiIbHJOrTag6WAdgWMhEcE10426iAuHB3vrqOxhM3/JACxXd22riQe7HxBBHY1MZ2/he37KJr7cmuhHK067WXU8zeKJvMwQqOcSwL3SCxtHAWCDIvBI3Udjk1BA1MEABC+Wmqp2QImgQGM5rX4gwB7lywZngYgRBMKgX3YEjcmQuF5B4kAqiFMjuOXnQd/wAr739rWIDD725yVupaJU6zSCk3UY90kXP9gvp96jf9rvV796f9x0nX5dfZ9dQYjClKiHY1VFAEx6hYQkYQgrZOcdoZtPfQVTOLgI0ae7gnoKxjmVyuJl6kmjvwEbQDnTByjoZlaLpymCgTQ/94G/jra0sDDdM+3A8ip0JtKDu6T06/Fstxddj2nSNMT8aT57uO3+jb/e1LkIpk/HcuLJOp1UqPi/YCNqZnOcwjy45h5R0V0fxXSjNHowwvIgBBhgGa62jpclk8Zjti3x77+7it7sSmyzIA64r/FtRrI5Mr9CT+W9/7DfZ8k0Hc/Pfad9SP90wlDRBInzOcXgkNyMJ0DH4Gax2a8f+PtYS7l+2GmzGJ6YRBpDgAGvP8dLc3Klnnj088d1cdf/Jl2uuK/2TXRnfy7f6pRfs0lP/0l1lsH1F6gratE3Ui7AZQyQmtpPsplpjoStB0mJ4Bv8tEDBcHQGq4VC1b5Grofcfp1Rwbs/qqQ918oYz3+lbtO/bSHId7h/HqwL2huG7PuGT7T7lq995YbBhKin41GRNFLq2alAlgm4qBlMbwZSOQRBX0hDu6BI0GnHbrjbCkrUhsnvXkyMg1aHr9DDv5SUe8NQ3D6BM2JPrhP/85KZFb5o+1ZPOb3nU6/TTygoUrIm4rmcI5iqYEtmjdNdVi22NmQ6lDxc8Jw6DiMORsdfcZHCNuff+vq7afBBA6VjD29YVq3IKoNu384TPfcbC/GQ6ZCm+ru3P3eRmalDO9JwWYJCLBDDWFQOM6WzB4Z8mhhAMYlpXD7zprW/hEd7P5csAVIjwtnXNqqwNwPwLfP4Ldr9atzgsnYSwrtkTCMrN3BQYz2k2GNrLo1+PQJl9ipoSDKt6GAPhe+qn3YE9132I177eO3IPh+u8/3chN7Mu+KJP9Q2ffPtBfB+57pu6JiyZ76kVhuDgEbdBi454e+gDID2A5SGjJ6CyQXE/8a+onHyH+3v37+RdXkvs0GPdOamwAo/3tc/6CpMdfZG5TZTEAlCpd3cMDHYcCEZVDGuy1GtPOgAEXew5DMoFd2nQgt8bq4YhIIO6pTt8gJP/+CZ0pa9Yx06l68ltZ215pV0rU1BqsracaLcPJzU46BuOahAAUFib1YyPnQm9Hg3HOt4nOCrLaIp38RGuezYwrj3WxZM6DYBztnz2O/eTYV9KMtqsMYzmd0QO+UweuRZ//c62HOxRhk9GMup0vPGyrY/4YR4IVNcT6+yplJ7S4U97z2M3Lg5GEBTJJz9VWwgqK2mYaKm3dRf0WQRHR8Aw1xwNumO33v2RPkRvqIh1+OTn3Z7P+1UuOPZKjGUjMVMTIriZ67isRGgrn43aHido2wm0Qx8gGKKp9m69yfXf41SqyASpkJMv/2UebWkzJmarslOUEAU4CIKxvv3v57SMYIaGzhvQ9nbTUgsigpbHpsoaIpDYeMUHfg/PXjtNkQ+SCvrR497zc423F7jbQLM3DApmOxjtWzDXhWJKm9VNjJx4zCiJejxAcJgE6DlYJ+Phh7/ea7M5ygxpUmv3Av/rC70RDAI5w/k6+++guLAaF43nQdvjRgSn48n5H/Ajb67h5yY5oULXs9v1iR9n33RQgpmqxHrC2Zr9CTYtIa7vKYY9MXo6pmXnhdf/IxeKhUSeSKWK3+DjbLxkkcVOVi9ysi2zkl4dK/GeCZVjiHS9im2HHvaDXJjCyxDVQX3Ydzicr23WCTd92Xo90FGjusQd5RtKyxEROAoG3/uIOWGJiMoRb//+TsYE2SOp4/5nfTt7JrWy+u8R2VktEhSN+HYvhkKQXgQDE1Oca/y2TQATAxfA2Lt1z0ZtQJp63eiY97t/ZUIih6Tu/Jd//5tGoqWorh7NnE7M9hRErAAX1UJ/SrZZVA0MIzhWdP2vutlBoUceSVW66me+a036ajSOVKCCem1U0Wz5s1bZ4xIF9SgECOjnyru9yfkFFdkk1YruNo9y+dKkhwgkJzI4EzlmJbSouoItKeZiCEMFitMQVS297fueKaIip6SKHvtudMUec6j0CVio5oxhljcoIkUtAk09z8IIhQ6Rpty1m1t59p9kqHNLYsHBv336XFcJBvO4yUFkKEPQjhYiQOLKZkrAKMISmdAetCMbQFB7Tty3FRMixySO+hu9/ME5O42rQakC3dxGMOWV3gVHzlVvVlAvMtcV1NHyHfYvT3rkmtRj0yk7Jl1zm8todmTQkhxWnCHBKC8wGML4LirHF77WDvREtgmy9H/89guTHgxme+oDy6QCR62LZCmEodl5eRJRO53+rlDQXHLOARZvsdgFM5sAvcQz8KKHQlpYO0xS+HFms48+SRotP/yC/Vgp82yTepuX6ApVbQndVBdo6iWFaOf4WjqyQ0cRwei6IWZEUEVWVJUd+zePiTyUrnznpSNt2HJLYet5ANDry7BBSxgVhQGEuXw2zeBVQbr8gdAjEyVq60Oev2aLtZzJz9lSEIq7tYyLT7fz1Gp4lBK9drjRxQCRjzZcftWETHkhUC0N9sUozS6yeiIJCsdN6dGkyDI4faEjkY8ShUMvMaqQw2hsaLfUCJpFm+bWO3cSCoMQCFJ0J9+AxlcdsqU5aSOuOHVc5GazKCaXTyUNiSo0f/e5fcAGBZSjrUdHxBAIJKHu9Ksg5Keky67c4Ls3q4ftLcwxnP+FjFFMqpmXY2N9AxMDTcGSZfEY5KkkbL1iQkB+nicQWmqyhPrqzCa4P9S43ehROn6HmKeCHc5fSXevEADQTFVahucy/eV1lNMLLUdTK5tQKjJVYsX2K0QJSPWulB8K2rOAuYJYQv2jkgBbj4DrTe5VTJ1WQCJfpYorhx0Dx5ugE0AI6sFY0wx2FD+/m5YgQtNOEZgjZdmxDCFrpYJ+2AUf28nUc5LQ+h2JQLNdlmEhc0ECVQnBKIKiR7Gh4dkQslc6eH4BQH8UeOv8DhURlEAAaGIzAiHURwpgSYkhIocoyGBpeUqvQVyvxTKEnfCkmXZTtI9KJQAUQwWhNakWMIddqCkUixAQJMwAYggCrWCbwmSwNdl9AksFPTJYin5inbrNaqC2VeRiTD2rKnP5jBFYVLH9HdAQcgilQchmaTyi+xjcakBBtNOfDQGywchD16npN3sIcQq4oaxQTrsIB3b2klNTfsZzRopoxvs7JUOQTCUHJCAwPP3e9RCQ07alcd940EIA1xOQQDCmq6IAgcB2XE6lppz+E5IhiIiEvt+D7JbKXBWAoFxIOFIFvZEN+AaTRQJLivPKg62ugrktiL3rB4IiY6KVBmK4bk22ypToSn/UE3JQdtRMO5a9qEB+23Y+dS9F898pNGsiz/VDBkg8hFKcIihHSvtB7HoRGS4Jx44qyUgQgk6KYOWZiXHIFE6zTOCw4rqyCEq8HnmW6dPNs+S4QMH6ecYOqHGi2beSRzM7aZzrnWRCDkJuxAIeORqZesMnOQdClgsRxw5VIBNehlASQYFIcjxrj8nM0SgeCj9ISiyf5qA/by+yXVI//82m8krEggS22P0sCDiH3QRlEY6EWi34EAhR9cC3hpDx0qtdZygJDBac4FQuUideo6BQslnqwDegUzekDLAqSIF2K0+JzJfWH+7jT/MENJ0lenN6M/InLN7g1VF26ap2kZQcgX9RIp9hPM17IZy2pxZFNgSKpOVxOVPO4TZdkEY8UH6QLEE0PvVPXISS+Xa1/FLWhA3WEM9hkFI+TfotoBE9HphgTBQhRETD9buy3wWFxz7BNFBVSnqCpOJqc+45V8tEcFNiUPxg2dya6OrkGezo5L6iw7vqJCGtoFAWJ0/LU8YZSjtzgvz9W1IXNCNDA0BKwOTxu6r8FyjYv3FaJFp1KXmJvCwMW3mmgHwTnYIAuT3kYXyu2J6owaXnUMiBqeL4uR7h6hPc4nSx+ybWvvNPOjAsP3dJcANUoqEp3cIpt4SQBUP97uP7YgxhI0lxCruegNS1WtPmmtFJXXYvBwGhRI4bEm78cuiRDdMF25ZlfJAXp8Dq4e2RhYgUnnce1xMUMBRFa/yGJ94HZcMgHnN3BawkVo1AmYRGlnO+GUFSjFVV/EaUEGlRyvL+CzLiBQUX3Xahs9ZSjSfRN0MYWxRbNsU8DCJTjzIjFvQhGQKCS3cFhZy43fKElQI0t9kuJCuPnDxqIR1nmTlpme5QtKrLDI4hcj11Gy54NQp5MT3GJX2BENc1+8AY79EM/J2mYDAoEYYbELPrFl7gsdHlxaMy3XbBmqsC5wgUyyMvVEvRRpsxDMKWQHYsXHn0IiRfld0NUJEZk/Bl9w/kFBFQrD6JK0cyz1b6PwYiCkBMcKhoescn75UbAxVfsbIATCgTKdRuCWshZlqnTT/8IxCTZ6n9xsuQIxP3Hz809iZEFhTepqRmY78YgjD9EI+KoGJ7MlyDL7GTyJLpdtumRpnoTZMCuSWPEWo85A7m5iZMLiDwQ1MAdSu/9GtAOTIKvvkfXCkNgADnS4FieQTN0io58HvSDoEEuBEpSPykYnLDVQp5cvua+zdMjCpBZ0aVQCCLwMCF4tgmezjOXreHPItphMn597wzujyZ13T1i4/ltCmAtdg77vRWZFvMwPHkJtxANy25cvhB0fSkGyJbpg5XbjnYeU9CbZII9F9EryH3OwRSWAGmlYui8cEz/tG0ZMtN+MLre3tL4IxTyAKsvR+dmqptCAWKNkiuwcJJXwAd8mUM/sRth0VSVGwMSmnk1B+9NH0c/+jlcyV4O1pKf9dTBkLG3PDp5u1VAbw4cDlfL+Qxx39bVpE2dbkx8RSS6Xa67fchb6Z69U2HxRqjyBlbT0akhGjD2c3onLYcm3exe9p2QTkrBh8lcwbKZx5P6RISOdBJVQxpN0jLCRz6eAwJ3FJaN/6oC3PnBb/0CxqJZE/+UgsW057FZiM3zc9vBo+6AqRAi1NxxU1QMudW8cUuGZBgsBBVMLDY48zUBkMJUm4QPFtTb3Dsi16umjljghtcURpfAmFSeqU0m6RlF4L+DmTakYDI2m29W/a8hire894BfYaEGNfl2tGeAQK2v+kIzOOvBH0bDo59r3fr+twZ6OojXzWuXhaQ1ShkpQIDvXz5xi1JQCQCuUHbRwDF0db7Qsig6Q3PPVABBsLQ5egpgEjDFmQgAXrZMOayPW/8GTfp+gwaHW6yY0IrbVriFtoSGTjyRSn9LGlzptwN1sFXgZhDd/p19z926nhxrEUUEHgzoUCk/S81QoTNGBw2+c0fTlNk0dS/j4EYLEVi8k1Xvi4v30PQElGyzuYK+iqGpaJfc51HL8QHG1ulSCcQjUCojVCCmrV4vVQew3SGHL68SeJHREUmTYfe27h3SxFb2MVWp/E0ZpwDZ28uh0WPQBkcvbOtyKVJ9dfuqQCiAlJMnJYyqeMwctNw+CcT0mYamNqw9Ds/6lTIpulONxrVlGaEL2dYueLg66hochkla3erE/PpEcuFf/aSgS1NZBneAcMaj1wUJsvE456uf95TxWy6CQ9pOibhszOUmCMOjGzrAYAGAb8B/FdWWLF8Mko+vaq41s/bPY2umBaKQLOol8PPEy83qAdu8TPAjJod96euVueMgoNQsLkcwhlHGyh7wH7poa4YV+TUq/d06/meNAyxSkbviHAc02I6IDbxcHBoieZOzarXQD8587WX2GKtohcsfdnZU7Eu+LQACq1TqPP/6LXUI6+m/ffXAXQNnEtCUy8k7uhzltiimCX3Qz9XvT8dE2bV6PEvLh5VtyghKKbfC2nXEAzkFHtwEAquAYyufDlk1mt2Vy4UpK9qYBmD0nHsRydFW48RDlnH59+sVGTWDX92WXRC+SulZONktWUzdZtj0PTtQ8iu8XJT+boxDjWLygxAyNecTZQNHwg1v8bWQ22yBBKem3ojCUwfyEVhjX6K7r4SMjkZRHZN9X12tVFHUUFtDGPZJ5VJNweb1CTrZEMKZnevy5Bfk/CIE2NSjSVlQq0RDUbZwWzhacTaHdwXwMn1kGXT5hrJSsQ/UgNFIdjg5xdQjsEj9JnxuVCOjQtXl3pG6pK+u9RWjvfghH6laBBgrk/flGOPqOWbzblqDC2jkG+uwRfKzQQPMJiQj9H3Qfqlf3g2mGG3gguXauJNFZ1d7RodHccSiwkMpijIOvePULLsFR703O/psqRa6jvgllRq8CXSgWn5EJRn4zZ3m68pw5jUjcNtSewJ59fP3+tEMMvGpL9q1WZjpShWMSESUwbWVawmTcpmzqAd99z6GGXZgLB5KJKRSIy0m8kk7+8na+Q+yX7uECZ5NirOvXzVN06ta7F6HKhttMZAejIAdBiTQ7cCkWnj9OPnGGfTprGIfBu7SZujs1Vr8pefi5png5PFzeNKL5Ezd2YaXy44O1R1eqCyjo4/XcyzgYJFpkyLMSZyiTjr5KvOdkxybVRca/M4XqNqIJPAwtUDZzd8ERSJD8vwQgDZNm59aMyZCkgEw7GGR8JM2GynsN1NQR1feTPUXBvUiZd1JGl7JuX1KhrppilGzBDdwWTTmWC2jY4DzcCZeWxiJtVy8OKSbQPEnVJ/WAcDgDl7gVVMHJYOWTduv1zChSrtTxaJ15eJpcAQQ9M7gci4ceuFQoBM4Ti6XS8xYxiE+dGmCohEk8ryvfJubO7jDy0MihqrrG8BL8e0jGrL0ctLw3vn3ADO54wWN476sKRjphqcjrybNgVV6JyqM4/epguCpv3BvLvDX1GrpQy9j1Nv4OGTbALmSBOThcy7e22RsbGz6y8vg6PDwKpg4qSOz7tHwuVksqLNBQsOu5GizTc1BvuRedMVwqzUH7BYrzPOa+fe2F4Cz5xoYkC9SbSn3IyI46G8G9PFwtBUHpnFZZQmQMGo2RW5d7d4+zkrUsorNQhydB9U8VxiOj/vBjE8tVQGR2tbJXzycMj8f0lgmnt39U6TyKdKbx1ZbOXDvnOIZvr6Psy8IRwq6bVqorehOX8UCdqr4WWB2TcOlvSJYU2rEulhzN3tsuwby8nlq/WZoYMz9N2foqYaEtk3qS0NJ2mrCMfpIiZkd9UQzLwNz77DXE+STLRlwLJBFScmkQfFyanMvteLF49nsqrNfMNHgtn3QixcJra4UIz4zZGVZ6gJdhej5N6Dgy8xCoLtTxjDdTlGkx99hV8BQp+Ba0/F2RR1CInpnCWY4dQg+2YKDnWprth1w+j6D6HsuxuK7RUTZ9qCzimepBPyb0p7u5ZdU5mRfPsAzL67BdnFyjRfO/1mNJb+1lZk4KTZMJejis4gA0mQ1KDPwGXTYbiRR/5lsmdeU4LZN25z4lxtpRrnkpguHAGOT92UgXeLi93MfYSmTTSMshwcZOBK4zFnZ5HjLCaHOB0y8G5lRSnL+XGrl8a8wl52Q6YWoPwbW48Z8UjcLzsMw7QkdA3uDqEw+x5Op0r4VSu/ZcxWQ7+m+XcHSEctX0yht1sQiBz9bSu2JSZPn+hz8K7vRftlq7Xz1SQzlWEGrjLpN02OElZrIg7zCoNcnHojUvsljPXwTDwiSB+aF21oDmuZ4mC3uJjLXzqms4sEx6eemp2DR1qNmcVQJOuyvIwfzJQYd6RcXjZnVszeCvMBugBcO6szH2VlA5h9o2BY1rYTQfYZmjnZvDmLL9ecNLUyHOZohbWKUYpfztXIqQZPTnZqyf1ntdRXt3MRAq5kxH5sxk+GUPRlLRqXUPKvP+ZcyOQvJD//qp9fyq30v/wbfWD9p+pr/aZvCuVFU0X/lOq5mlQvWhP5FFkUT/jLeAMX2xdfxq4/1rsfLIP4QA2O5Bf1P2vhI/592g8Zf4Lxw5bkAg8H+cPk1THffv6pcb3NTfw1w3GU1uRHa3r9j9f/+AVi6NH6+e3RWvh+ioKqR2t6/Y/X/3j9j9f/eP2P1/94/Y/X/3j9j9f/eP2P1/94/Y/X/3j9j9f/eP2P1/94/Y/X/3j9j9f/eP2P1/94/Y/X/3j9j9f/eP2P1/94/Y/X/3j9j9f/eP2P1/94/Y/X/3j9j9f/eP2P1/94/Y/X/3j9j9f/eP2P1/+4G8G/6/vBev18tmaPVtTrf7z+xy/fQqxHa3r9j19kx+t/1Ov/v8I0LT1lkv/41Pavy33h9ePTM443vDvLZ871HyX+d9Nkhyk9YVd++vW/R5V6wJefqbnSo/cPVVeo+kIW6Ll+fqGH6zzztL2kd5x/0y9xDU869GA9ZKS+vl96rJ70axUJ88+inp1byy/1uRZgm2Tj+/f6flb+DkNJKGI08fc/+QVdnFrEw44fzPOhip6z78ufI8mEGb64NxBjpu8xqt8TM0IShUdVAvIHN1VSeFS6H2xTpwfZdN8+6AeTiKwsFSMjZ929Ow+H1EI+agrXFeeQ8vIf1iHNsr16Sh5gNB0dRelbawbeKpaOauSRBAh1z54MHByNqmRUWls/slFwWC4LL38alKU/lNSk7fxsl/06vrqag4PJWzTnfn1Rb8bcnJdHWsuWSaWxlIOrnXfJtE12cG/lQNhycsdtTsD8G0vJZpTnngZfVoKLYzD/Htbabp3rNvJdIbJy9IoRCOXfGI9bOqrImKYJBk/MUfeg5t/MC1y6XCJt15oPTNQBU/15qMq+MbdaW61cC/iDECILd8QKadZXu3EG0VQumj71av49gr1FLW6aZOAUq+TkKPk4fADKv0G19FhVnMkpVf30v1crGThTmPo6iGoRw1RZueCi7Nuyx95pfLyWlAiPyuGs1e+eg7LvTkdyc+RiBC0WFcEsNQN/2Wr+pKnS9T0OQaRhh1a5iUoSNM7AX2M8pbdfbEp8OBgf2IYbR4VJ6ELV9fl3d+DwoGht/00SMUhTt+XeEC65dKEkVi4qMKyN4bu64MgZs/tz8m9fXVvZqAnPLiUnX02vk3sbEqs1/jejGImUH+OGsbgdHj+/ZX9QEMTgGfYAmTd2Mm3a6F+p9cKSVPqXn8u+cUlVEMUi2BFMozqufiPpwmr2veWEadHseasBq4ptPYWyYtmdfX9r7ISp2qyK4qhbYtlkKvIpcm9XB+65UFouZIUeFmqSS1DR/ERXz5F9MwOvlNRm+Rq+eVWB9c+a3erv4HFyb1yS9FailN2nWR6pSLw098Z5ULhGxSeGhZvTWMoKM7h4iRGoS1k3iOtSmgVnx28fjdCKX1vYnQdl3YMzCHeZ8SKmOS5KlXg4HD9J3g3dg+mapb0sHVFdJWjESDWtiaV75t3YOFX6rJCqastpzJJC9WRacpJRWGW8JeeGsHdMKLitjXwa9ZFkmoV29SZWUXNu3HO1qsU/m1xYMF1fXwkgH0F2e/G/OTa/tyrbRsGdV2tolWZy8jiFWgqkN912S5RsG8Thzlfxm9RPYQ3zTNL8btZ8K2hNKtO9Xy3fhvo9YxYpPBBgI+fsSAUdHgbg6ugiZNz8LfdN7doUWkWhJU321XXJputgNNg5Gijbxk1fbUEzUaxQc5cJ3o+Xsj8JSC2c9ifybRanjExN51Kkj9hDRg206Jw5opuKuuX9W3JtaDDaNxAUL4yhqhr3shPnaepaBDk6/+MITtaDeTYKXuDqhaJGn8Qyhd9HERfHGR9j9QpIjcHCCatTZdp44hdYKW51mrGxg3slQttDzaVu8Y4nZNpsxd4xE241Ts1sIRu3oJq6NHzh8q3h1Zm2U/U7b7m9kyQlDq3mTCk8lNxKq1+G10HNs/kT7ri9hEolmiuvpYYTXLaeAEpy2ZWvfIDKsEGcc15fNMNbFLN3xIIyLDIAJRgMLbzktkx7y5blAgRLEyQvUiuaO4xdew2aZ1Lhf6sWP2COD2fZW7D3Fyx27VczTfTNWoRJ0QoulOljgDn24JyLamNOUOhsigzKVdVYphMiSPGDk/p/OcqwR8RjDaSEQV7iVDWNuaO9v3M5gGIHoN8F5detfMmpkPrAghBiq6B6GuUaVFEmyv4hSvFjING2W/qX+TWEc/ZSCj9od0IZtUTk3+DrcrNQAxEUGN3H18yx8aUmDBZGidanGUuroR+niMIw8gz97qv7kl3jsrlq5QoVS38Er4zJw9mtUNa2wvDwH0RmDfVXb6t+ZUpIrNiy4duLlpMrdwR16Rvn1vwEv/3wQnEtrcdtVkdhjOFu7LwsqTK/FTBJlkArz7F/mlWvRFy6ZHa2Y9neJbh9WMBRqwvWYnwlCeo2/KPHRJdTo0zP2r/Yye3UkATesob0V1ka+ShK4F2KqXJq4KveY8Xf5haohEgCSMO2EfC2TT5++MWNyWTHXe/DjJrVYOkZFopjCGyJlFJOv4Fv/qpkyvnTY8gQDJ/jBGTV6/vcdFOTh6JP24WkWaOuyqVRtXnLUkQHvsF4x6Pu7JVNo+IFDrCYi6lqJbIcSc2iXg5942cvnsEUlOVrnpRTW+/97ed3jTGBQyI0I9WG/746kqQr8Ay8OZhPD07bMigI1iNXrrXFYyECp57a5P0gRERSt/JP92TTI+pfXqPlz6vlcoLWaRjLleMQ6AFGD19B50T3klAu3fb9hkFJ/FqLy4VfInQBZlulHIHrvGD06XNpCK9ZAf9rLY6FKWeUM0iDrKpKgEMNhv2XNQWSTH3ZkSGf43BVJt395DG9L4FAsEKFqoG1QUwudecSgxFQWTjnk2OSQ6Pjl947KNHtVFIphf0b+NJU/j8eo+yjNyR2hPRLtw1KBo2Cv7pvEMhiym3GFwfMHdlhIRZMUgIEV6Lu/i54zRz6ReFu8Dr3WOmsTCZj7SneqfZrp6oGXZVbzuw9RnjVnTE/UPaMgtvtXxEU9Aa182vwdVkCR99PLf+wLYLQdKYmTc6/+eOjy5/Xx125aSIh6g2yDjkElqxmWL4ZGlXJgARjIdHDaO6u42n+vLr2M6wUJw4lGHeSQtVM7sghaHoggSPBjs/k0HMdh8wZ6nd91vMnCn9xJOVTQrcJ9sUZ7BCYYQluQjf9PF3NntcvMCyBJwpyVKyUFW20qkrj6PNbSI6ILI667c91deY84vzvOzjxmjTqJD9oFzRzA0ey28lR5mVyEsKcwygbPgGUN79mdc3TavGiROo4Agpyhvn2DT9T4C9BEkQyAOXZXoDKmlefemodSVgmgIqdU2Y+aBPI26Ze0JNbzSWDpeHGl8E4Z37N6g/epQaKQI0wSY0at9L+jrgql0gBiwgE32XW9B+9zrDLlmV19EpLU1PiXUlpNAvSjS65qggSsIMCMMBig6OFix7h4SZ9ngxOhv9wILARRGy1wQaxQeDQCit0zpA3TtJC+QFgjKvlre87V173uPGZS72xBAtFo5QlYNQ3QzBkYUWYaPZNPZdjA0P16+92L2TJq9o96PXmeq8H0MUIZGVK6zfsbiEQEgwIwtFgBVDq9FmXC3NkHq9y8YiNHDSaNJVI44whYCuY4900fxeiDwGDqnSDQarpSQ1IXTrzWqj5MSoe7IPunjo5WHAOhqa2HIcVuVM6bPb+sadW8WoHZfyrNmXJ4kdZMWdx7hrqQjBAYaTR16uEERSSO3iJaXagDBsnm38elB97Pvc6Ixp/kCtF9AIuNXBxk0d8yUA4VenOk2NK0S7zk7sd0zE7fsvqWZV4W+ePT65tQtJN1jsg7ElyNB4WxL67q2S3cmMoN7a58ZnjalqhWRDLFZxFT+4ZdjgzsBQORFAPsJ0B7FfPvX1ebMLxhltM2AgSaUwaYfyFUty+OUSnH4Tg2g+Of5NaR9fZ0dWseH39s8dEDQxxmAhdMkSaeQb4gWH4yhMYTnJ8zF8B82H0uPvP2Dhlowz9+mh8wZLPN5d9A5RrKyYlvrVMSXX+5BPz4UYt/nr7PkmxOzItqeRQOpaVhp4pAEOzt682wQsOKhBlSFbcYlHZcMP1Lxybd0jROyYkDYsGhi1ISsApvgVgWM+Pg0CYqh5lfP59s+F1OfXue2wfxpPvD4CMMI5E0DFNfEcK0O4TI5MYCXJ0+YmZMApuPCjuB75ODqwMgUJgu9fwNKtglvLbSQzfqNpvYuqhVsbMgj3+8e2TCnNL07Q2/raCOFYACAXXx34JvRhQMUCipxKopiexrOwHc+DlNpePiAorg9GiqiknqE7jCxQs8DPPNwFscgyCYMiDSle9zm2+N2r2u3SL96X7nMT24ezB6rBhsGuT/0VYLDASQ8SAh0157c69GMx9x/jjfUcERnhBfL4ggmZqz2xnMDrBGEVDwcTQFJy7Upj1ouLyiyfVv6MjAzG+gTCYiNO0pzwJzVAQbmToWeIBKrg8+93XHSaNB7Zc0SZiSwrOoxJO0IgQTDA2BsbuPQfdgIlkuf/j895WTxwbGSjQVaG1xRgDTI5pZglmaoZhVbpXnQiHCgZBqOPTt2a8EE6lsVikYKoQpBGERhs0Sk3+3EQw+fRgMBonuiXeEMydfkXHbHe5zdldpXMhIQp9cdgG8Xzw3TkaNwpMtY2Yqkfh5BiCWS4q7vQSIxKBG64+0cv8zu9QzaF3YJ8bHz9Wlic1iGX7hZmuB+w4e65GOiR95ec3ZECAk4hckv+SgyGwHS1l60V/D/OVYI67bD97QknwFjDw1GGglSg+immeMmp7JOEo/WuOmDiJliUSccwgw7UQNq0IjM7eJIdgXEEIcM0XecYyDHoiWyGlR4pc3f5AUGY7Ljh9MGHkKkHnBMOiGL6MevNZTqBFVYbjR8ehgxugzHY82IAamkq4noIc7YUd0nvmfnJVZhTRcJFI1A1GqqhDzWktcGg6CQwILUi4UCZYxTk30EPwd3kkCEQmRwiyHBQ2gNksKg4e7KqTwYSY0qfF6OLyfK4oBaSm+wRGhHK5xe3ZbKuoKu7DddNM3gEKMvWsQSsa6/2TD0RAGJaBURfo51GyWBSgIiplRGCb+6rMLXAEgXnF2XbQ5uey2FZAQAkbonIGHIACATFk2qya002ebj8wiAhjUqActhUwmOsxQoog5M56KhH1FZwEentF9zP5NSFktfuxE18m1PIkcDVlGeo5D0Cl4CJLIw8s1ckuMHP9qdgnEVQgiCg0uUBuGCOEEKpm15tpInoITPKyAZAhIM9T1mogHFhf1QAk3FDgQwsjqpjRbbpgEotE5doRC1pevwvZ6qAIS92ghRAEPUcCA8Gwg2MzjqE0LSWpAMb1hPE2TUuuuvXVdvddS0HJJAvX4W+xI5unL1sNX5nufrp5MEOFsOfYrgZzna2c4ezqNJEayqQsjNdiyAKIkOD2in4+z+lpd8lQl4qLtk0IyE98eQ8sQ2tLTHAhb9n1DMSWLw3DX3ospLxUKlx9zpBSOLsFQonZz7QInLpsX5EJEQKMJJcoO9zDcw6jLxkpCvDyuxbU0gW2cZjFqFArKkOPwo5cGK2qqp/c4zwiFxVKddsJ+wYdwdQMB0MX0nJgrJXoXewApDQNk1UL8Y92oeShTcRxW/pa0HaJYMTDmfrDVXVrVTHYk5IBkAVQcAdCrVdvmR9koSDuctwQkJ/Rtl4w340XqYVGsZZqPVUYYlJb5wFZPDV7onC4dPPdgLLPJ/71Oc5Ydf0rMdePYJ3W4TmzPcKwncKmLNPVF7gUNescSMRTnaVeYIDCtBWzZg0XMmMfx2fAKQtSuHDKb9iJopxzWX+755iiJCY3Z6ANTT1X43nnAwznDBxWCoaWpQw3nnXb1b7LNFH6uS0vuToois7EkotLWoCQY7W3sj2GfAXvc4XSBKW64bT/vwvTkmNKgX13vXraQ83e3FDg+5doGY6yPxYCnQu3s0ohi/EY8OMsW9UDm6alLOx5yRsIVdnlaIqbX3vnSgk8hrwF8rM7gkkQGCJnQFrXoMgclFpyihGQuP05bv6qLChZ5Ui4x02fZKV6c23uSOInF9cOkzCEQhgxegmzROoW8DqPemyFlEuOOvCUn3xWt9yJfqbGk7mlCy31XejdXJpNTQhKjLwsUcG0e/S7nkLlkQ9TOnLnK//V3QN2EOBn8+yIzNnRZ323tykIegKFTVkaFF9PqsOTfsHrbJxmkMJS+gOP8xueY6EXitZEUQEEKfguCCCzh/1cgdBRqLlKwMjnkCOQQyIthqOUgnpFBcPhlr96Rw2yx51Qr/Mvn204tJO3gG5a+9Ov8CwsWkSEVlooKNVaLk27Ykm2I38EBAwQwVK2L73kF3qGNRhFuaJEVXy2T3PWnk2lyEzc4AuLEtRGS86+OlztVwNqPX6JkK3X8eDGM37faSCzxEFRZfcMH/u43Zs0mYUTObuOztZitMTG2BD1wlT6yAGo66ejj/UfnmFPRZcbDjpNse+4z3K77RpMEvNVLaY02816HoX+uPoKIjksRYSCwmfGIZTSr9zjo32SO873WeFART2vvvYNv9JlQz9ZTSQmtSyJK2fIpNlYe5bivQIQQEzBvnRppGaNBsHgQDR8DZBHEOry6mlzO88cUswEUUjc8qaPeefFxbH7pTBzAP8ECCW20a4JtAQ0cf3fwfBZpUBHNj0djLigNAKx5uDAy288fPIKGs/X7auaaSfe6u+8wHHbFycdFMzSKgPhuarawcSLQIn6PCF45LgJQmsqnPfyl565iURHrtN/bCJc8pNveNJ5Cyulg5qAPUAjRz+7y8HFCs5MVymEErWNOER7wOF49bRXvf9rXMY6QV0Xj1LYA3tP+O0/v46mw1IgN0P9tZKtFxV3/ZcMvX8JSuDGz4sJxzklTrv2ZfObh73KunZ1lTIl9v6jE/7XCRsGoARF4dVr10ICKADAVTsuB0AAAK1JJQDkGOTayZAVscFjhIY6Xbjo2hsvWrkSfcE69EFRL86/8p+4z63KpkEn+VlKFcBVpjlkq2Hgh8DAmLUCAK4SIf23cUhLMUIw+nbvoQi6esJ0Zc+WU+5xyr2Xa4OxzltVTq/JDR71orPOW1xU589BIb8HB61BIIRpOQCSoL/a1lMVr4OTGCGZ2dNE0JNKvzx9tUvu8p8Pbl5uQArJddW6UiWAsvPOn/OUbef026elE+w+6El+fiIU/8otrsImgrn+FORSoj+H4OrGPUmDhdG+jXe9Jq9RNhDoSq1c5/yKYscpgNG+c679V6/GPAYDdLLeJnuygQ2WpzJhcwrrzdU3pjQk3ROSJpWN+ACQOJ12k4tudwNccvy9FwBN0BNcN4yiggGAyatdvfeM/7x+oVYScG/uZE87o7A5y9QwGABIVM1Rvc+v1wQB6AAYnKyLhqtANCGwqSvYEC0fp8P+2Nu99i1O3Hz36w5FFdV1vZuEoloBjPY/wfrD93nVfnmlyk1GobCA8uefEk0UIHB9UChzGBO7IECwkeNSAEAWAwJI5jQIfwcMWFw9SOnHYABFdweYbhjN7xk+2Ik7Lr79rVfEiHGdSe5IOE9x+ILb7tt29XHjhZUNKqUAinKC4O4g7kmGHvFACAgOMGy9lmD94ye9LhSGoSVwB5aAgCIqX4+GgyGMSu2J1dXxypWHhhv+yrWu2tEHD1CQo1zHEDkWLvEB2Pw5L3/NXzo+cMklo8HyMkspDVoqLHHI4VAQT1UZzj1PBOVKAecJD0T3VBkr29UDgxwrNZp0dWVhgK2PcPcrL+43bBhE86ezD8Sw0j7Mo7OrX4ZIvh5Ra4QzWhqtrn+OXbe7ejAe7xlj2g9ZVBrIIKCIQe3qobTzfQCPuxUfgboAj75diydHHoiRv+5ZiMIRNED2JVbg5PJzTzzm7OHCwpX9jiHapFKO+Hf6G4nv0eK/7Aa4e3X3+m40f8opl265y1CgmVq1SoGmgit3EDGQDIcj8QnAEdxS5g56rbmxfh0pelhGIAqeHEFNTVvPhGhRmiCiAMJHUMejSSdMtv+M4Yk7+gvZDzl6iatGWn6g3sSAR193f4ct0XTXfNX0pMPkaFwPbONddu7aXytrnQ6nKtF0lM2JPiQ6gkKpyRXQIdiJqk+0BM1hrMxIspvLEUGEQDmptVCeT9be4EBq/7iEAIuIogpmo3kFLns0LppAMoGFrSZ02UqDd0RW5W/dzm8rvG75n8aK7///yXC8WhPnHDYrdO0xqMMhgILgvJNSEIAsh0GhZAGCXIxgmWQ63KIDIFDO/UC0mTaSOF5vKSCMjCUYIUQ5ECFCm3o9SIc6GhEa2eex6EhpjJYXnOO08w9x7rjeQi9oOLAgMv2l4RQARAyKKFLhAeLdrXznck932HI4GJXbdkyMOIOco2MCxqO2iuQTVxlhzOr3s7j9ZyIDcCq+A5UYKI5EPcUMAYlnEeKcAAtIKNB5+z0whLVhe4dEi2UjwRByeAwwhGfqcfDILyvXp+ciUlX6DmIK2VCSQQmCAMDzBJBRS5l+0Ea/CwDY3kIbRJBLE3hChvhRiEw8DA9xNPonaG0pJCZAZFkCQ4OAAgoo4IlpSgVYAxla4nTn7KaUmnK+X0o9Q3RgokRDCrqcJ7Dkrn8ikpvyj+mIjCAp9+adho80AxF0GXWfauJmWbEEgIFweA6sSjYwRpsAQNj1vQMbU1y5J5EgBSAiEEOItqcANQZwiC0ojuDtGvATuDrVTFCU6qltPTUMCQSlIWLJ7m94VLYjA+rRSxkIGlGwHUEaGEzUm0Hw6cf3dos5rNU2EgBKIShEURpBAQR8tFAq+56AjmE5Ugx0FFEuBklwhO18T7McPLebue6RbhvbGERYTy17irk8aPqHknb0eKTDseBqSIAxQ3sEIkGTAAgixph1dfcsvSbKSAmA0MggPIZiHHmolgjhRBXo3n0dJ4IIakmcii3IZNDo398pgKPEhsg+lYarNgxEFDXAbBEkoFmQ9TDfhmaataVTooNgKkoWQMHnJB5MDaWpbZDgMBUqB+vlRNjNgj8x3Y4BRVAxgGJYO8QNkR1NzDsr7vKE//w+zdGyp6hegkOIyqEkj5fOWRxGaR29om0gWgMRaEHgog1H+6OjnNSLSS3vQCGKkuWAfC5BE8Ar7fOYYopDmIUhQsLFgKYlRBvuCDqBf9Qq8h5vRtIEitu1MVUhDRSAYLYIf2nXn2vg+zIixcBWFJ4hyRayJIKxw0fHN2VB1K4nKKqXMFQBRFs4xTMyDFv+qIm2RjKiiSlMD1LAJJDw9WDbmZ4AOjYRjB4yW4eOL5gLxVgKKArgJ4noiQSZegA9gpttjpqm3FHY7BQ5enQG503Clhg6VpwIUjkICC/EkDkmj/b+rqqUoJDXUoBBAEQesQKcTh65TtFmz7WOlZ6oDGAABIczgl7s4y2P9gK0g1hJJYVBAEeUq9RTWu63ElTSl5QdOGLcxQ4fIk+2jT5IggARPYWJAEc2GfXpAm33WoWelQ6Ej5AhC0BDhCDG+TceBlDAU6VAMHyARodwE+4bGbdYoBwgYRUbEoJnnlTLbflkKaLHVwt0CsOqRoBlCEqIR+A4UBUoXWpJVBQilin3QfTq6Zp+0j7fTF2KVzFWjw0zhWFZDQabFNnHSx73uiIc/LTUAHxCHqCEIdx6HpIByGavzX7UjFHQhWKgng/kg17o8oE/UFECRWmIKuXS1BFcg3oU8TfwHI62FNkyiMb7Oito2kTDEqfcLQVh/DdIHxg6g4Woq3RoXLi8xFypmbs7WSgJEVQ3ixNNVrv+wLsuhEFoYcNF897ysGvmWMJeykdSAMdfOodPObohsaujwfysybCwSljgy2fcpYDTwMt8lrIMtARhWZUgqlKPvLXVq88uLKwKyBtGYZifPbQ8/JFTYSb5bxBDSiydwJ1A74XUhig1wy6HLD/vMuqEIcyVYdFBfeisazYUE+DsK/JpC64QSGRfdkvfBE/im4CcruzA1d3k4xJf4yGrKi2s6riWpG46MeFw1PPJ9OSKnVxQ5sowKQzXd8u2N/CChWIveZn1755UUoCq25ZSncnEfjRMGd6P45A11zVwCoFdvqSDWSimUdgF8XY0FKe5dl+pMkuHtVDMQcQ9PuqNuhxQPsXpLVUV8zz9TOaY4h6z8krafYm5x7LrgoGQ80vMJY5li+wKXT4i6rBexW447Nnubbrl01XiHuKGYsbimyG40m8zyoCoE1wYcpzkEbY22MB5dkuXuXvNgHpTVnNmXsp0ThsylvbnOnLfNRileg3Vh7hhNmEPWP0xlk5rQx9n75rcGm8kPbKFjrreIb91FWunpaPecPaiayp+1QlOnNDM0x9VT7LsYMLy7pU90KURdeUdq3usW8Z2lTfI5JPdN5OkvBsmn/CWlQvKXRi24N65jbvuxgD7PO1Snf/Eu1v3WdqlAtOzVFR1lybeO42fnndR3dGJd0nh58B41aM1vf7H63+8xAQAAFZQOCCgHgAAkA4BnQEqXANcAz5tNphJJCMioSMVSBiADYlnbvw6meFeaat7+fwNY18l/c/2+5/Xj36J+quMMP960fNWfP/g+o773vcN/V39gutJ5mP3H9YX/petr/CeoB/Zepe9Bv9qvTw9nn+0f9Xg4uln6sf6Ptq/2H9v3Aa7fal/J/v9n67E+AF+UbcWAD6z+eV9N5meIBwPv3X1Bf5p/mfQ2zx/ov+x9hXo3/ut///d2/Zj//hnjq3M+3M+3M+3M+3M+3M+3M+3M+3M+3M+3M+3M+3M+3M+3M+3M+3M+3M+3M+3M+3M+3M+3M+3M+3M+3M+3M+3M+3M+3M+3M+3M+3M+3M+3M+3M+3M+3M+3M+3M+3M+3M+3M+3M+3MtDSXxgm8fzpFrjdsCAy2B9YjwvC8LwvC8LwvC8LwvC8LwvAPO4ezTNM0yvSSXOkGfoOE7zJkrXJJfloMUgBblbmfbmfXqAI2reWoXn/pqnw8gTTi3wV3ox6zkQ1Np+RdN9RA35KpkPwFhqufiv4vtDhHzm8lV36tzPtzPtyQkxcEMG3VDn25n25n25n3ByOSAFnpRGsLgusgDPjZBYYrcrcz64d/PfzRt3x4nhAC3K3M+3M+3M+3M+3M+uMZT58I0ii3Q6F4UgBbkkgjvAYGWGG8KQAtytzPtzPtzPtzPtzKkbpc1pQGoyl5n25nrAA3x6KdRb1bmfbmfbmWhXs6Uwf22qKqReZ9uZ9uZ9cLAlqGlwDq3M9KJ5gazgUM+3M+3M+2kCD9OPxj2+QM+TSThBefTB4a/YXhSAFuVuShbB7p+BS3F5n2znbRaUNhitytzPtyRUj49awxrnegESFM6bVoAAEZe3jDeEqQAIou+zALbkY/R5T440ROMN4UgBbkoC+ySx5de2grrrwoG8YbwpAC23sUcbVuVuSpE7N4lAbzlxeZ9uSsxzqAiMN4BXHCc9Dy+Xt4w3hR/1T6sK87d4w3RKqwZxZeZ9uZ9uZ6gtB5Lcz67RpR3gRhvCkALclhoTmyXhdBSAEXXjmODPtzPtzPtyVkUfApGM14wTa5I1JC4epAC3K3M+3T5TsAotzPUQfSp8IAW5W5n2/4zKP/1q+YNllb7537WvCkALcrcz1uJbgZTIEZe2oODYUgBblbmfXSnpTZL+IKMq/PbkJ67WuVNCMvbxhvCkAI4P4rcq8i42AW5W5n25n1xmcZTWNNQbCIp5rssmKQAtytzPtzPx2YXLi8kx0WLt5sKQAtytzPtzPugsvbxhvCkALc3vJwpACOE2MN4UgBblbmfbmfbmfbmfbmfbmyAfxW5V5Gs+EALcrcz7cz7cz7cz7cz7cz7dQIq4vM9V3TiMN4UgBblbknoeoSKll9UALcBXtzN4w3hSAFuVxE6pcXmWTPBvGG8KQAtyWABkbtzAQxmuoos9+bKGwCnLNwpAC3K3M+4idUuLzLJng3jDeFIAW5JS2bKtcBNWcV39gRQfUhtzPtzPtzPx2YXLi8l85Fl4w3hSAFnEaADRIZtyRLDkYMlG8z7cz7c0HvJwpACOE2MN4UgBblbQJYnXpbzPT8AUbxhvCkALc3vJwpACOE2MN4UgBblbP1ex3IBGXObjnquU8N4UgBblcROqXF5lkzwbxhvCkALbd9/SOHjLS7s1u4gi0BblbmfbmfjswuXF5L5yLLxhvCkALbZheJZRnszcJcgD2FA82eFIAW5W5n3ETqlxeZZM8G8YbwpAC3JZyVReXbqIeHzMjLE78RHsbSEvn8gIy9vGG8L6VGbxhpUCSf7cz7cz7cz1H1Zb/vfOw7v9mFbmfbmfbmfjswuXF5L5yLLxhvCkALcrc6oAjL28YbwpAC+JUZvGGjTndYZ9uZ9uZ9uZ9uZ9uZ9uZ9uZ9uaD3k4UgBHCWHF5n25n25n25n25n25n25n25oPeThSAEcJYcXmfbmfbmesABgf/yNyS3CfBYIGFCzF3dGG8KQAtytzQe8nCkAI4Sw4vM+3M+3MrPfdGaZNzTtWbVBc23j0ox7y4vM+3M+3NkA/ityryM7crcz7cz7ckXplRRzq3NUoujIMIbVuVuZ9uZ9xE6pcXmVhX3LI0T7LxhvCkALOWpTK7jsH/UbjPjKeg6tzPtzPr6EgsX1iuXF5KlA7N/xn25n25n2z7q0Jn25ldkZF0vGG8KQAjzrIEB3mF+tn25ldt7UrNwpAC3K3M9RlkF7j2Z9tGNhkT43vIFIAW5W5np7ZnH1sGK3JYyMFrrsu3CIy9vGG8KLWb/pFk8gtySiR2MXrYMVuVuZ9uSHXhQpM5CMvbQxMb3PpAC3K3M+3JGjlYMn9zRq5ue6nHqtxMY03nLi8z7cypb4ywVuZ9s46xYDSlg12z7cz7cz7dEe4wspY4E9S3e/ElSgJ3ub509iFjtnB1bmfbmfbPdeS9tvK+zALclmoRUeuuWyzYQAtytzPup0hV2LDeFIAW5WznVv7SH9SAFuVs5UTkl6c+F+8LsYbwpAC3K3M+3M+3M+3M+2cc61G9kYG8KQAttiwy4DJmrm/Li8z7cz7cz7cz7cz7cz7ZxzPMMhyzIEB1bmfbtA8bV4DLFJziGg+/Ircrcz7cz7cz7cz7cz1g7y8Tx/SxTtohAC3K3M+3NUm7Gza5lQfT7DSS++TPRDeVCujtqPehi2Td45kHrTG6R3j4Tt1H7sD/9gZ/7pET7r8XmfbmfbmfbmgoTczomY0BXxM0zTLYDEljmOY5jmOY5jmOY5jmOYsusnwvC8LwQZbCtXKPWLGlIiRDFblbmfbmfbmfbmfbmfbmfbmfbmfbmfbmfbmfbmfbmfbmfbmfbmfbmfbmfbmfbmfbmfbmfbmfbmfbmfbmfbmfbmfbmfbmfbmfbmfbmfbmfbmfbmfbmfbmfbmfbmfbmfbmfbmfbkgAD+/9zlAAAAAAAAAAAVkNpGle0F3wIp+qbdAObW2bzbBdCbiQdD7f4jPl16hDiH0jvpObA6S7N6GzodzE5NSbR0gib0b3yH7rqkDvEP8Z1uX+jIubdxrqXaKr2q/Ylk1AAwzQxhj7r8GAMC+pXp+Gu1+tFZOPlnOpAMPwI1ofVgunYhZ2xfmrLwKBJGHUqMW4AEQyDXRd7VSPeAWv7c2zUBsQGznHozPvOax9DhNrPJRvtGJTAcg6hcTgtfl6a9igQNJ87balLoULkGVCr8hZfPs83M9ZiA3ThVMz4EcyiENfnnoFdD+KvtQaInhFGxdYkh9xn/w8mW8CawiG355pE9jhJP+KPZdDl94tNCJlBVgWNE9NzlahuyLOhS56COOHi+ckaH1THWPTSh2wFQ3KT2umGZ+VAvi+HZYTVg/DLZXdSa96MmxQsqg1PSWxmeDa0L1WWpWFB0Eu31pHZD2EhZfA+36iUFYJzkswRSBwcsRMnbHTJ2x0ydsdMnbHTJ2x0ydsdMnazfRGJGiceoBILSrICVA9D1+9PYZe3B22064uPHSfZRKWYh1WDaPKhFwbaub1oVy1Ov+1cAwfDfxcRmPFmXSrOKl+SP5AKoI6eCQsrMcdEgHmeoRLBFidzCkM6zrO+yi7QpUKz0iCBAqzA7uoESXg1qoSQWWLEY8k5D5Cpu+nzHaRbV4ZcLFfJ1c9Ufjj4GDgFCwRcVvd7kATZ+gfl0kJEI+56S9+mynsvieCxH21TqjzTFhqiwNLw2lPvMgiHOyPo2AYPBmxZdqn1FXdywIN56G7ZCKkAAAReBkS9gg/7cv6DlM5/9rdHgPb98sE+mpSdgZ11ykrNn93pvT1YSXGP7nJYf16yZjtBddrsPSV+CYYR2hcQEohE7SAwjTI42tggsF1Z0FnTsfh9OsWpDvhdrFrEWsIpuHPUOWmHXx75TXLaW1Cskzup09rqVQCk4vXIiAJjeYKwoABEU02yRKBxU+Q02dKWtl2qRZs348PJS86sD57qR1MX6aWRNYvbKCNB/iKAG82bfg3cEH7yk1HWptPqqiBs4qk41FJ3N6xUVFeDFOh4DnT4vwZ7EoFBfs/vZRRs4RIOPjF0j1NmuTRDFlWGrHHQ+HigABZkwQOjOesffEO0I9BrnNstrdh58f8bEVHAOvPzh5S3ILUxPye+K+4UbtocfudzFkqZmurwZpcAhaRC7OeqWk5KSXff08zUPeyP55mltF+QtZe3Aqz1bdynUA/6V3NUc/q/gvj6amibEK9RTZLrSzPViiik/v4/UR4yJtEuBIkF3TgV8n9yZe+afMZCMhRyprUIANbzVAH1eP1rzw5A+cA+i7JfaEj18zdRvvXXpUwG7HlIQfDJEu18b90Eri4Afh0cHf2byTvCRd9j1gWSmn5gu3ERG1bIgmc74yj0wVFDLcszJrMUWTu8NPBK6z20oE9YdUhCq27CoNv2ppjTIzdWncylAz09GOs4tQ4JnK4ypazgpYZoW3KQEJQAqEmiSGZ4235vjf83SGu/nDWoeAejlUd2Ld+yrRX03Fdc1iKkg8Ylj4Rcmfzm1gdmaKkytldpHdgl3A/nMW3f7NAxqt1eVWUldCECewJirL/krGtj8jYRIDkKMToStSxieEZ086zqfE/rqEYc4THFFJI10t7a914ceBBKH0vYBH0gVAk5MDROWHJeecAbvcdcso+c8k3wS65QNEAEFleuTRxkaj3O9v0nw2EykX4XzxzdEI0BtCjG5Y2gIkbnUPnHeCkyvlLi/yarVLnz6ZR+Jz2bqwvhrIRghv4w5APYvN9E1n7F0tRGZkaYWcGBbx2WH7Z3gG1Jnzv6YxsD2usNWm77d2GVZfB0CiNCxP7a5rwfO9sDp6I2i6yFY44PqAu2b92qMiYt0esGDIAeA0OKApItBdNAeqoVbFMCh4nNWKtqS1YrkMgG1KeTTRJyRJRb7c7vrYopisUyOQi6f8uofeWfrZM/NHamQzILO9Ihf6vrP4l2gNIVyj0AeBb9esqK7uwP5M9ye5C+ZG/b7UEyq3wligzXRr/ScyczZpWD2UBI75VlkKgM86mROBKqGPRpKI6EoCzsgihwo+AehFavzTGiP4U1vJovtCI6nr0PsdYYM7KXrBrJg0S1sKtIjS7csO4MjXfwZ0jbk27tn5fPpkjc9QKPYQBh3nlz+MytNZvjAZ8gXKs//Yn1hR01IE2FT3WQCanLmx4SWqoUxE2TSBSL8EZAsvwqUywgzSN3QmwX5irGtZW53n2gJ1bKEhiskkmXImydHOk9cp1WpQwDKzo33yQ0zIpWcZq+c1x7uDeKQ/4/Ht9giCNBkrLbbex00coZbFagHKS30yjATQBZAVtzRXhdib1nnQYUsIwFdwaha4kHBfSmq30y0cRi07wIcC8d5ShgP1NqQxTblinN2yCWdp6dNrUAQOnBYECDNC7L0T002sipqYPk1A3F7BFlHf7IKuRTFhi5Akd5nj4uizZUnklqSGcRoHCNZNjfPZFWJw+jWGXbWnoRHt3YnsshnYMY0/m0QSePLeOqW3ATLB+zlKq3mA9378G3AKjTh4Ol1Tx31HV90hLS01X/LjxRjzkQQX7Fy0ipjL7JztVTqk7695iSFlbYE2VTXxTc57x83evYrauR4AOpkGuHIQiwQuBlUx6Gn9LvnmKBTUvtt/oAi+htRnAlULp+R9qsUzActdA9sJZRl9un7xTRMIn4qU0QdVgx1G9cpS7J2/+o4AIF43sQuHpxFI04U9z9eKHoi5YbJPkhSDV2uNG3kYEKhDyq57aA248GuGLQPZKp9zBpHKUjAkQAT5m1lvrgQ5MdejwkrAw9KL2Ubi2TUlKf+H8TTFMSAspEB75BRFKhEf9eKZgp0cTHa78/VEceN9b6qY3em9Jrs6HcafSWa4UHT6+Naj6D0USnrDJbYCX8zoyypb+7+ZvpW1fIyeRr/o6ynJUv4k/Eog2qhSrkz57aZ7LKbOrHPcFxRSS1tkuHz2ZgRKedi7Hmw9IXE/7g8ELDyTptx60MRvSIc371AOAH2v3Gs2kU6gpeY8mofmeQ7aBf1HnxcGM6UAj4U7bVMFP9UD+gfZtdh88Oe0R73IL1wL46EHQE/URPxVoXL8Tw8G/09GlOjzBULlh377D24WfUVfqlQAYWJnIB8id6kGAAAkgdCAAAAAAZIFJM6BUY0gX4Lg+gn0xdb+qvWeukM80hXFVJVzwrvF2YjBvo1jrxP9svFoagAD5e4+xhpiHtkgfuHrcwh/kUNPXzzs149fIGNSEGMJhJ/R2WB+JhEsiXR3idewdF52F+hP/k4u0+TyjWF7iShABud4ne3bGU8Oag0NEhlruLZygrwr7E7rVrsAKIOYA6yhd2uahEZ0ga3bnXdaArMRUc3+JD7JExRHd3Acbb9UVt3re4R5R3QgDjNbPAqu1o/weTbQPYlhPxTFhdwl9yAXMTceygm1gwarDz9OzfJjAItR9y5+NlcNfdSPtrYZBpLC5jKurWIGCt7cNBbOL0k1CCigB15b5uiCZhpDKhSvtTCef0fs86xd5+VtRjZRCu42+VKdbMV/W3/adp21VbwN565gAAyHZImz2M2Oyu2ISi+VZQyoGzQBZK7q1kjwGCz542khPJ7F8oq7l6UGUVAgAvCtTJwCGpzyHfz4TymeEWVO3kPsSYmAbnfyLOc0I1dKXMMt+39ClO/q+w4qnDM4XyPYgr5fmt+ressqYOrMFhAdoScAoWuUjLISGbeA97RRE64dAAeKGZOErCJ+oLwMjcjQ7UcEl7BCa06hzzQGvKV0yRuZwXRcbyTyIoMqmmQW6T9o+Jg7wD8Rtxas1PhgAxgRoN5YaS3SONBLeP5KcK99TcsRphAWm3wTsb5YRAySmKioGXLYI0QxAOdBZRtfm1LmIc2dAzhAASUSXgpHUr2ply6rtLvIhS/pROEPFA45BGErNh+IZAQZhz/INA+u4nVsKVpG+P1kWBTP1VCfvxvTH1GVPh8tLlf4x2pZSvbev1FxaOq1QAX5XUozbEFivQfJc83ZrjIXO1xW/nBN/OV9/JK0gDBvcDWoN7x0YsyZAB+fZP1R0PCmkg9q2YEWc+U2xVwYJT4DmfCHzAvLcThwQZ/kPzubxo5MJUUbbR94btGv6NOWu4zlwYUIkIAAaBTDKDvrfGqfaK4L6A8R7h7WPUfrJ8IrzID7ZxJmng9uI0ZCGF3n+5vJvkDQAA4DGJQwEzCRRmkKKLlIx8H1SgkA8Txp+b3qlvSo3vZhj6WaVCbcKRO1C5/8g1NV9mY2nhM+id3Sf1o28b40OJ8QYKmB2qMaQdOGjWo2Rt54mdTb5xGX8bmZdhxuZG54NTrSpG2z+/c9+r591cv0ympYjp4cZnUewAABsaiAdxAj+2+G4u3e5HVpYQSCqbwZ2VFn4EK/lVA9XKZxEOfgMuIP05RyXQJs0AL0Sz9NKq2t7+CJKykjlIAAAAI8pGpoLf+pga1AANYJfe1yFLbg8ABGGYOCBreZ3+y4D/+oNXPBJv7z3I+JIpCp9jzRBjIlXBxhKW9XcwKhmbVUPBbIi7MRhxvU+X+RTV+qaqkEAaFs6Rly0qWhqsmYlDxmqSArnshZjDIXoNsJsN1G+0zMPFtjDQgG/R889FehiBSOgi8xCbYzsW5DVkLI5ZmhCjvo4aFtwdqQZSp89QP29QR+AuLb8/qm+UyvL5GXDJGTO8ldC+8898Xl7dk3QOLWr5Z28/7l2wwTn+Sj1Ae6CuSe0HK6onsl/Z0khEpXMiFtx2WORB2NOw3uYHHL88W/0QyAA8tHj9KsFpYInuGZ5g6A0djmnPkHXLbl8WFcfUll6ldyGJfscaeSJOdP/hG8a6CEdI/s1X1N4x8OvNeHU/SrbSq6HEyihJIrSb5jbMt/UfH12dyI6Tk6JuO58SvQAkMZdnyf57+kJs7YdjPVb20nICzWrwuRl2JZc1ghS1Ec8UuV2DjDRa+mGbTcrOrtKVUP+efwguJO16ii68IFCx3WB1i9MHW6hSkfBQSn2v8Se5uWBuS/IAW4s/op2YYD++xkdu+yF7gkXTNzOJFEwXTrOqsoPXTuRNumLfzGxp0N04rCPoElz1wgd7hnxeDuYCleWxnmdUd9d4efaPZgd6MUxCzNsx8Z5BRDuFq8reaAgwVJ1fWZ2fSCC3oPz2hj/jLRizb4GdsBnFcOudzkDD+vf51fKYq7tbVq4Ls13uuFpF9NvkAOSAvJrh5uq2yTUHwY2PllV5AQzUx2anHxbAdvZyjd+Ggr0feH6pRTdUxZUFZq/vLfuC+31U+TjMZniVhHviTphM7h+dgVkfik5c2H9vWOb3khKoDCcYCH+JoVD+PSx8vKU60wUYq0j39M547O9y5EQpaCuNfG7Yaz2A69LPqhw56hUmyij0oTVdt1r0Fq3inOUAjINJXHRpfIWtNi2e88tJ+nkkC9Prs/VLNphK4uiBh5Cr20WzwGVh7k3w+jS8wkRArekNQUzmuK02yLQ9761gVqF5BPju2wJusf7om6DLj3lahMYb4XWNCdadSPWaqct3Fjn0KCzAeAheSuCI7eBFtA1NR2yz0H1cb4FUxzRbjIpH/F8cKor2P3OE7b0TMC+6Tggs+0am+he8+X+jO2okBZSzv2r71aLZ4PbbfNvmXVbL1/NqLzeGSs5R2sOUc3/oz7x6d6UX0QQMJYU7dSBxJO1nAqPIjGdA3njZ13mpX9QT3kqLbzwqNM92Tnm5OeMwJOK63FQDENb8SJU9T4BzQ7G6ZJlfEvFftOiIp6AQvdiPIQubWV8+mYAXmNeIPxY+23iuMAy7z9w3yd2sXKbGigaQbGnL+ccMnlAIsYXNd4tS4zv3j751r0On5OvF7hOnvPjj62Lfg6dxZmP+E5rm6wMz3hF8sH4V78oYF9grx0rA0m3PBpASCNw6oIyZdtd8jLLZ/yLlGamrU7ShiEBiG0yl1t1fcA8upeX6M1uol1guMtHmtq4bQX/dBai1qq5IkaoA3cO2yH0rSk3YAVqUMvwnKAszmCZ11xFaVDlSW1D8P3JMRqH+rMIsD4e25950cKSjSa3925gn83aK2zPaD/4WyhUKCCCX+7LGoetXomm8iy4k5KdY7F4AQd5xmip8XIafXpIPJjYGWzwfJptATTvaLjtinTL8qJddNfGrxOSV+Fxlg/3/L6MugOhkfFSV48gRVnAyFaKHBNjpnZCT0DkqdHFUwvofciHB6dRtNluMzA/hslQ6Bbhx6LeDvqD4H9YwTvBXJxvjBmniJxpf/Y6bOQW5KNU9YnmRLIg4qEVCVDen66ttTbcEpzVFTVClc6puP4JmqjG6U6s0J59iZe2fAYtNdBuF1qHplhYYUUw5GUKiBkhcBJphXOQooB7ftSBjPNcAAAl60YhJgBkY9LUmmwNpwafQhj17lDSomkKBD3YulXpnl/TGNeT18rAw/buwyrLJDZ79VRLgPh9yxwd64SftewZnnjOKGoXwrR67PI8Xk8gJiqv2fgZgJvS4cb+HeSZAXNr+fPf74E1UhAdBnVoLiURhOXqeCpJjOrzz4oVp2Tx93UnpHeW/ez6WjzwNyr3u1iIUydDNqIKylDznm7Wvg34xyfpSHO3llul9S3U/G0OpIbyF/93MQuSfVFHGBMzblXdBzEI2P0z6s4qqvD+ltqkwM1DrclAx4U8qHs0ffmv10bqyW26yxYptf4dGnJlEuvJNn6vIoNIU6d2fwlVMjQf8wfPi27dJxR35b2pMEE90Yc96UbpnmiGqEqPmRCdzEHNOjWTQ8NWtQIFG5M2+eh3zNivI9xvuxUdmZvzBf0hDU8jBC60+y/UZT8f0LR5v+7x8oafvR8flG5CjFPqVgDmNsk33UIQ+QxBkH79YNozEa4JDqqAVlgXaPYe1csXRAEgdUw6ax4WjufHpbHc7PgEM9avNQdfZ8rOMQAKt3Xn+s9ogAJyfGjfYaDJAK2sLIZ6FgWFgSYh87Iw/4cmAD8K+QrBpXtKN25vU9pqkkp09CSHVWvryDQnAaBzTeNEPuZUum4s/GeL3SAZAiHH3gNZdGia7z4+4Px20lm9tJT8h8u1LWwzHGPOfEBWp4tv+QR+VOHELuwDajit2SE11NPAi40QGHz5WLR3gLqHxRqkfdyeNzsSNsmeh7EZbIdZrzoDx/kcvH/KiVwgxDy3g1wvFFJ6E2AHi++gYgOMX7gaAeAit+M5E5t5CYqyhXppSRmb6Loe4veIs2zIsFaMVN4WAk69T5tpCzsIXW8hX8P/C0vSWYD2K1xKBng/J6svSgImllSXFAdMPp0hQ1zBSfyFRY/DSz9WU/MZSjEKWndM0FSuXnT39dTGBYP2HLQsurzQNTX8m/QDoMd7dQi/5PzweiuOMcfKFFT4jh5QyChhtOGo3IY25xHtaJkBp/Vg2QLMACbnCmQW55rtZRIg+Is0LiW0/OHOE6olA/Si+9PMg42+NocS+5Ay2B6ae9dTEO7KvAy+1SmWyIkwnJzr3WLJFCgSVYoR9zc+fJP7Es/5eCJ8zqs3I5DusBwAAAAAAAAAAAAAAAAEVYSUa6AAAARXhpZgAASUkqAAgAAAAGABIBAwABAAAAAQAAABoBBQABAAAAVgAAABsBBQABAAAAXgAAACgBAwABAAAAAgAAABMCAwABAAAAAQAAAGmHBAABAAAAZgAAAAAAAABIAAAAAQAAAEgAAAABAAAABgAAkAcABAAAADAyMTABkQcABAAAAAECAwAAoAcABAAAADAxMDABoAMAAQAAAP//AAACoAQAAQAAAFwDAAADoAQAAQAAAFwDAAAAAAAA;" vertex="1" parent="1">
          <mxGeometry x="228.76" y="720" width="122.5" height="122.5" as="geometry" />
        </mxCell>
      </root>
    </mxGraphModel>
  </diagram>
</mxfile>
